<svg width="512" height="512" xmlns="http://www.w3.org/2000/svg">

 <g>
  <title>background</title>
  <rect fill="none" id="canvas_background" height="514" width="514" y="-1" x="-1"/>
 </g>
 <g>
  <title>Layer 1</title>
  <path fill="#ffffff" id="svg_2" d="m169.175,271.874867c-24.725,0 -35.169,32.773 -35.169,52.803c0,20.031 10.444,52.807 35.169,52.807c24.727,0 35.171,-32.775 35.171,-52.807c0,-20.029 -10.445,-52.803 -35.171,-52.803z"/>
  <path fill="#ffffff" id="svg_3" d="m345.221,271.874867c-24.726,0 -35.17,32.773 -35.17,52.803c0,20.031 10.444,52.807 35.17,52.807s35.171,-32.775 35.171,-52.807c0,-20.029 -10.446,-52.803 -35.171,-52.803z"/>
  <path fill="#ffffff" canvas-opacity="1" id="svg_4" d="m448.624,167.828c4.888,-14.853 7.379,-30.475 7.379,-46.191c0,-20.604 -4.599,-30.954 -13.992,-49.641c-42.933,0 -70.724,8.145 -103.306,33.733c-25.109,-6.039 -51.176,-8.818 -77.052,-8.818c-28.652,0 -57.211,2.971 -85.003,9.584c-33.062,-25.876 -60.854,-34.5 -104.267,-34.5c-9.295,18.687 -13.991,29.037 -13.991,49.641c0,15.716 2.396,31.624 7.379,46.767c-26.45,30.762 -39.771,68.712 -39.771,108.867c0,30.571 5.366,63.248 19.358,91.042c37.758,74.27 143.558,71.681 216.198,71.681c71.492,0 171.351,1.725 207.672,-71.681c13.702,-28.08 16.77,-60.471 16.77,-91.042c0.001,-40.154 -11.019,-78.392 -37.374,-109.442zm-168.57,254.917l-46.191,0c-67.083,0 -144.133,-12.938 -144.133,-97.081c0,-42.069 25.589,-79.157 70.438,-79.157c18.209,0 35.746,3.258 53.667,5.75c14.376,2.204 28.652,3.066 43.22,3.066c14.661,0 28.942,-0.862 43.223,-3.066c18.207,-2.492 35.553,-5.75 53.665,-5.75c44.851,0 70.437,37.087 70.437,79.157c-0.002,84.238 -76.955,97.081 -144.326,97.081z"/>
 </g>
</svg>