<svg width="24" height="24" xmlns="http://www.w3.org/2000/svg">

 <g>
  <title>background</title>
  <rect fill="none" id="canvas_background" height="402" width="582" y="-1" x="-1"/>
 </g>
 <g>
  <title>Layer 1</title>
  <path fill="#ffffff" id="svg_1" d="m15.5,22.17a3,3 0 0 1 -2.13,-0.88l-1.06,-1.06a1,1 0 0 1 0,-1.42a1,1 0 0 1 1.41,0l1.07,1.07a1,1 0 0 0 1.41,0l0.8,-0.8l0,-7.93a1,1 0 1 1 2,0l0,8.35a1,1 0 0 1 -0.29,0.7l-1.09,1.09a3,3 0 0 1 -2.12,0.88z" class="cls-1"/>
  <path fill="#ffffff" id="svg_2" d="m4.48,12a1,1 0 0 1 -0.71,-0.3l-1.06,-1.07a3,3 0 0 1 0,-4.25l1.09,-1.09a1,1 0 0 1 0.7,-0.29l8.35,0a1,1 0 1 1 0,2l-7.93,0l-0.8,0.8a1,1 0 0 0 0,1.41l1.07,1.07a1,1 0 0 1 -0.71,1.72z" class="cls-1"/>
  <path fill="#ffffff" id="svg_3" d="m14,15.74l0,0a1,1 0 0 1 -0.71,-0.29l-2.12,-2.13a1,1 0 0 1 1.41,-1.41l1.42,1.42l4.46,-4.47a5.35,5.35 0 0 0 1.54,-3.86l0,-1l-1,0a5.35,5.35 0 0 0 -3.82,1.58l-4.96,4.92a1,1 0 0 1 -1.41,0a1,1 0 0 1 0,-1.42l4.91,-4.91a7.36,7.36 0 0 1 5.28,-2.17l2,0a1,1 0 0 1 1,1l0,2a7.36,7.36 0 0 1 -2.17,5.24l-5.17,5.17a1,1 0 0 1 -0.66,0.33z" class="cls-1"/>
  <path fill="#ffffff" id="svg_4" d="m6.32,19.65l-1,0a1,1 0 0 1 -1,-1l0,-1a6.17,6.17 0 0 1 1.82,-4.39l0.86,-0.79a1,1 0 0 1 1.4,1.41l-0.82,0.82a4.2,4.2 0 0 0 -1.23,2.95a4.28,4.28 0 0 0 3,-1.23l0.82,-0.82a1,1 0 1 1 1.36,1.4l-0.82,0.82a6.23,6.23 0 0 1 -4.39,1.83z" class="cls-1"/>
  <path fill="#ffffff" id="svg_5" d="m17,8a0.84,0.84 0 0 1 -0.38,-0.08a1,1 0 0 1 -0.33,-0.21a1.15,1.15 0 0 1 -0.21,-0.33a0.94,0.94 0 0 1 0,-0.76a1.15,1.15 0 0 1 0.21,-0.33a1,1 0 0 1 0.33,-0.21a1,1 0 0 1 0.58,-0.08a0.64,0.64 0 0 1 0.18,0.06a0.76,0.76 0 0 1 0.18,0.09l0.15,0.12a1.15,1.15 0 0 1 0.21,0.33a0.94,0.94 0 0 1 0,0.76a1.15,1.15 0 0 1 -0.21,0.33l-0.15,0.12a0.76,0.76 0 0 1 -0.18,0.09a0.64,0.64 0 0 1 -0.18,0.1l-0.2,0z" class="cls-1"/>
 </g>
</svg>