<svg xmlns="http://www.w3.org/2000/svg" version="1.1" xmlns:xlink="http://www.w3.org/1999/xlink" xmlns:svgjs="http://svgjs.com/svgjs" width="1920" height="1080" preserveAspectRatio="none" viewBox="0 0 1920 1080">
    <g mask="url(&quot;#SvgjsMask1550&quot;)" fill="none">
        <rect width="1920" height="1080" x="0" y="0" fill="url(#SvgjsRadialGradient1551)"></rect>
        <path d="M1159.39 606.97L1159.39 611.94L1178.84 611.94L1178.84 606.97zM1170.04 609.45 a8.8 8.8 0 1 0 17.6 0 a8.8 8.8 0 1 0 -17.6 0zM1153.12 643.47L1151.22 648.06L1183.48 661.42L1185.38 656.83zM1175.63 659.13 a8.8 8.8 0 1 0 17.6 0 a8.8 8.8 0 1 0 -17.6 0zM1133.35 674.79L1129.84 678.31L1159.48 707.95L1163 704.43zM1152.44 706.19 a8.8 8.8 0 1 0 17.6 0 a8.8 8.8 0 1 0 -17.6 0zM1103.11 696.17L1098.52 698.07L1108.29 721.67L1112.88 719.76zM1101.79 720.72 a8.8 8.8 0 1 0 17.6 0 a8.8 8.8 0 1 0 -17.6 0zM1066.98 704.34L1062.01 704.34L1062.01 722.34L1066.98 722.34zM1055.7 722.34 a8.8 8.8 0 1 0 17.6 0 a8.8 8.8 0 1 0 -17.6 0zM1030.48 698.07L1025.89 696.17L1008.85 737.31L1013.44 739.21zM1002.34 738.26 a8.8 8.8 0 1 0 17.6 0 a8.8 8.8 0 1 0 -17.6 0zM999.16 678.31L995.64 674.79L976.84 693.59L980.35 697.11zM969.8 695.35 a8.8 8.8 0 1 0 17.6 0 a8.8 8.8 0 1 0 -17.6 0zM977.78 648.06L975.88 643.47L961.75 649.32L963.65 653.91zM953.9 651.62 a8.8 8.8 0 1 0 17.6 0 a8.8 8.8 0 1 0 -17.6 0zM969.61 611.94L969.61 606.97L956.75 606.97L956.75 611.94zM947.95 609.45 a8.8 8.8 0 1 0 17.6 0 a8.8 8.8 0 1 0 -17.6 0zM975.88 575.43L977.78 570.84L942.73 556.32L940.83 560.91zM932.98 558.62 a8.8 8.8 0 1 0 17.6 0 a8.8 8.8 0 1 0 -17.6 0zM995.64 544.11L999.16 540.59L980.95 522.39L977.43 525.9zM970.39 524.14 a8.8 8.8 0 1 0 17.6 0 a8.8 8.8 0 1 0 -17.6 0zM1025.89 522.73L1030.48 520.83L1012.58 477.61L1007.99 479.51zM1001.48 478.56 a8.8 8.8 0 1 0 17.6 0 a8.8 8.8 0 1 0 -17.6 0zM1062.01 514.56L1066.98 514.56L1066.98 471.82L1062.01 471.82zM1055.7 471.82 a8.8 8.8 0 1 0 17.6 0 a8.8 8.8 0 1 0 -17.6 0zM1098.52 520.83L1103.11 522.73L1119.69 482.69L1115.1 480.79zM1108.6 481.74 a8.8 8.8 0 1 0 17.6 0 a8.8 8.8 0 1 0 -17.6 0zM1129.84 540.59L1133.35 544.11L1147.57 529.89L1144.06 526.37zM1137.02 528.13 a8.8 8.8 0 1 0 17.6 0 a8.8 8.8 0 1 0 -17.6 0zM1151.22 570.84L1153.12 575.43L1177.08 565.51L1175.18 560.91zM1167.33 563.21 a8.8 8.8 0 1 0 17.6 0 a8.8 8.8 0 1 0 -17.6 0zM969.58 609.45 a94.92 94.92 0 1 0 189.84 0 a94.92 94.92 0 1 0 -189.84 0z" fill="rgba(255, 129, 0, 1)"></path>
        <path d="M1102.84 696.29 A93.92479999999999 93.92479999999999 0 0 1 970.1 599.43M970.1 599.43 A189.84959999999998 189.84959999999998 0 0 0 1102.84 696.29" fill="#cc6700" fill-rule="nonzero"></path>
        <path d="M1071.24 661.66 a18.98 18.98 0 1 0 37.96 0 a18.98 18.98 0 1 0 -37.96 0zM1054.77 576.33 a18.98 18.98 0 1 0 37.96 0 a18.98 18.98 0 1 0 -37.96 0zM1111.77 581.98 a9.49 9.49 0 1 0 18.98 0 a9.49 9.49 0 1 0 -18.98 0zM982.22 633.61 a18.98 18.98 0 1 0 37.96 0 a18.98 18.98 0 1 0 -37.96 0zM1014.73 672.57 a3.8 3.8 0 1 0 7.6 0 a3.8 3.8 0 1 0 -7.6 0zM1030.35 528.63 a9.49 9.49 0 1 0 18.98 0 a9.49 9.49 0 1 0 -18.98 0zM985 560.02 a6.64 6.64 0 1 0 13.28 0 a6.64 6.64 0 1 0 -13.28 0zM1046.68 638.92 a5.7 5.7 0 1 0 11.4 0 a5.7 5.7 0 1 0 -11.4 0zM1111.83 627.99 a3.8 3.8 0 1 0 7.6 0 a3.8 3.8 0 1 0 -7.6 0zM1028.06 594.04 a5.7 5.7 0 1 0 11.4 0 a5.7 5.7 0 1 0 -11.4 0z" fill="#cc6700" fill-rule="nonzero"></path>
        <path d="M587.73 950.12L587.73 953.85L619.37 953.85L619.37 950.12zM612.77 951.99 a6.6 6.6 0 1 0 13.2 0 a6.6 6.6 0 1 0 -13.2 0zM583.03 977.5L581.6 980.94L592.85 985.6L594.28 982.16zM586.97 983.88 a6.6 6.6 0 1 0 13.2 0 a6.6 6.6 0 1 0 -13.2 0zM568.2 1000.99L565.57 1003.63L582.84 1020.89L585.47 1018.26zM577.55 1019.58 a6.6 6.6 0 1 0 13.2 0 a6.6 6.6 0 1 0 -13.2 0zM545.52 1017.02L542.08 1018.45L553.39 1045.76L556.83 1044.33zM548.51 1045.05 a6.6 6.6 0 1 0 13.2 0 a6.6 6.6 0 1 0 -13.2 0zM518.43 1023.15L514.7 1023.15L514.7 1036.09L518.43 1036.09zM509.96 1036.09 a6.6 6.6 0 1 0 13.2 0 a6.6 6.6 0 1 0 -13.2 0zM491.05 1018.45L487.6 1017.02L476.11 1044.79L479.55 1046.21zM471.23 1045.5 a6.6 6.6 0 1 0 13.2 0 a6.6 6.6 0 1 0 -13.2 0zM467.56 1003.63L464.92 1000.99L442.84 1023.07L445.47 1025.71zM437.55 1024.39 a6.6 6.6 0 1 0 13.2 0 a6.6 6.6 0 1 0 -13.2 0zM451.52 980.94L450.1 977.5L438.96 982.11L440.39 985.55zM433.08 983.83 a6.6 6.6 0 1 0 13.2 0 a6.6 6.6 0 1 0 -13.2 0zM445.39 953.85L445.39 950.12L429.7 950.12L429.7 953.85zM423.1 951.99 a6.6 6.6 0 1 0 13.2 0 a6.6 6.6 0 1 0 -13.2 0zM450.1 926.47L451.52 923.03L432.19 915.02L430.76 918.46zM424.87 916.74 a6.6 6.6 0 1 0 13.2 0 a6.6 6.6 0 1 0 -13.2 0zM464.92 902.98L467.56 900.34L448.65 881.44L446.02 884.08zM440.74 882.76 a6.6 6.6 0 1 0 13.2 0 a6.6 6.6 0 1 0 -13.2 0zM487.6 886.95L491.05 885.52L485.76 872.74L482.31 874.17zM477.43 873.46 a6.6 6.6 0 1 0 13.2 0 a6.6 6.6 0 1 0 -13.2 0zM514.7 880.82L518.43 880.82L518.43 846.76L514.7 846.76zM509.96 846.76 a6.6 6.6 0 1 0 13.2 0 a6.6 6.6 0 1 0 -13.2 0zM542.08 885.52L545.52 886.95L553.6 867.44L550.15 866.02zM545.28 866.73 a6.6 6.6 0 1 0 13.2 0 a6.6 6.6 0 1 0 -13.2 0zM565.57 900.34L568.2 902.98L588.46 882.73L585.82 880.09zM580.54 881.41 a6.6 6.6 0 1 0 13.2 0 a6.6 6.6 0 1 0 -13.2 0zM581.6 923.03L583.03 926.47L596.81 920.76L595.38 917.32zM589.5 919.04 a6.6 6.6 0 1 0 13.2 0 a6.6 6.6 0 1 0 -13.2 0zM445.37 951.99 a71.19 71.19 0 1 0 142.38 0 a71.19 71.19 0 1 0 -142.38 0z" fill="rgba(255, 129, 0, 1)"></path>
        <path d="M472.3 1007.75 A70.1936 70.1936 0 0 1 490.26 885.83M490.26 885.83 A142.3872 142.3872 0 0 0 472.3 1007.75" fill="#cc6700" fill-rule="nonzero"></path>
        <path d="M475.29 957.82 a14.24 14.24 0 1 0 28.48 0 a14.24 14.24 0 1 0 -28.48 0zM493.52 1007.3 a14.24 14.24 0 1 0 28.48 0 a14.24 14.24 0 1 0 -28.48 0zM452.29 925 a9.97 9.97 0 1 0 19.94 0 a9.97 9.97 0 1 0 -19.94 0zM553.1 971.37 a14.24 14.24 0 1 0 28.48 0 a14.24 14.24 0 1 0 -28.48 0zM525.85 885.3 a2.85 2.85 0 1 0 5.7 0 a2.85 2.85 0 1 0 -5.7 0zM518.45 956.48 a7.83 7.83 0 1 0 15.66 0 a7.83 7.83 0 1 0 -15.66 0zM465.04 993.04 a8.54 8.54 0 1 0 17.08 0 a8.54 8.54 0 1 0 -17.08 0zM542.37 901.57 a9.26 9.26 0 1 0 18.52 0 a9.26 9.26 0 1 0 -18.52 0zM569.51 939.1 a4.27 4.27 0 1 0 8.54 0 a4.27 4.27 0 1 0 -8.54 0zM547.18 1010.35 a3.56 3.56 0 1 0 7.12 0 a3.56 3.56 0 1 0 -7.12 0z" fill="#cc6700" fill-rule="nonzero"></path>
        <path d="M1650.62 972.71L1650.62 975.82L1673.82 975.82L1673.82 972.71zM1668.32 974.26 a5.5 5.5 0 1 0 11 0 a5.5 5.5 0 1 0 -11 0zM1646.7 995.52L1645.51 998.39L1659.79 1004.31L1660.98 1001.44zM1654.88 1002.87 a5.5 5.5 0 1 0 11 0 a5.5 5.5 0 1 0 -11 0zM1634.35 1015.1L1632.15 1017.3L1649.05 1034.19L1651.24 1031.99zM1644.64 1033.09 a5.5 5.5 0 1 0 11 0 a5.5 5.5 0 1 0 -11 0zM1615.44 1028.46L1612.58 1029.65L1620.02 1047.63L1622.89 1046.44zM1615.96 1047.03 a5.5 5.5 0 1 0 11 0 a5.5 5.5 0 1 0 -11 0zM1592.87 1033.57L1589.76 1033.57L1589.76 1052.22L1592.87 1052.22zM1585.81 1052.22 a5.5 5.5 0 1 0 11 0 a5.5 5.5 0 1 0 -11 0zM1570.05 1029.65L1567.18 1028.46L1561.21 1042.87L1564.08 1044.06zM1557.15 1043.47 a5.5 5.5 0 1 0 11 0 a5.5 5.5 0 1 0 -11 0zM1550.48 1017.3L1548.28 1015.1L1537.4 1025.98L1539.6 1028.17zM1533 1027.07 a5.5 5.5 0 1 0 11 0 a5.5 5.5 0 1 0 -11 0zM1537.12 998.39L1535.93 995.52L1513.48 1004.82L1514.66 1007.69zM1508.57 1006.26 a5.5 5.5 0 1 0 11 0 a5.5 5.5 0 1 0 -11 0zM1532.01 975.82L1532.01 972.71L1519.15 972.71L1519.15 975.82zM1513.65 974.26 a5.5 5.5 0 1 0 11 0 a5.5 5.5 0 1 0 -11 0zM1535.93 953L1537.12 950.13L1527.35 946.09L1526.16 948.96zM1521.26 947.52 a5.5 5.5 0 1 0 11 0 a5.5 5.5 0 1 0 -11 0zM1548.28 933.42L1550.48 931.23L1545.09 925.85L1542.9 928.04zM1538.5 926.94 a5.5 5.5 0 1 0 11 0 a5.5 5.5 0 1 0 -11 0zM1567.18 920.06L1570.05 918.88L1561.81 898.97L1558.94 900.16zM1554.87 899.57 a5.5 5.5 0 1 0 11 0 a5.5 5.5 0 1 0 -11 0zM1589.76 914.95L1592.87 914.95L1592.87 893.5L1589.76 893.5zM1585.81 893.5 a5.5 5.5 0 1 0 11 0 a5.5 5.5 0 1 0 -11 0zM1612.58 918.88L1615.44 920.06L1625.36 896.14L1622.49 894.95zM1618.42 895.54 a5.5 5.5 0 1 0 11 0 a5.5 5.5 0 1 0 -11 0zM1632.15 931.23L1634.35 933.42L1642.93 924.84L1640.74 922.64zM1636.34 923.74 a5.5 5.5 0 1 0 11 0 a5.5 5.5 0 1 0 -11 0zM1645.51 950.13L1646.7 953L1665.98 945.01L1664.79 942.15zM1659.89 943.58 a5.5 5.5 0 1 0 11 0 a5.5 5.5 0 1 0 -11 0zM1531.98 974.26 a59.33 59.33 0 1 0 118.66 0 a59.33 59.33 0 1 0 -118.66 0z" fill="rgba(255, 129, 0, 1)"></path>
        <path d="M1549.89 931.79 A58.328 58.328 0 0 1 1648.78 959.5M1648.78 959.5 A118.656 118.656 0 0 0 1549.89 931.79" fill="#cc6700" fill-rule="nonzero"></path>
        <path d="M1589.41 971.15 a11.87 11.87 0 1 0 23.74 0 a11.87 11.87 0 1 0 -23.74 0zM1578.49 1021.7 a11.27 11.27 0 1 0 22.54 0 a11.27 11.27 0 1 0 -22.54 0zM1611.35 923.23 a2.97 2.97 0 1 0 5.94 0 a2.97 2.97 0 1 0 -5.94 0zM1555.28 1016.2 a5.93 5.93 0 1 0 11.86 0 a5.93 5.93 0 1 0 -11.86 0zM1643.94 960.02 a2.37 2.37 0 1 0 4.74 0 a2.37 2.37 0 1 0 -4.74 0zM1543.12 978.98 a11.87 11.87 0 1 0 23.74 0 a11.87 11.87 0 1 0 -23.74 0zM1627.23 1011.51 a4.15 4.15 0 1 0 8.3 0 a4.15 4.15 0 1 0 -8.3 0zM1617.25 991.04 a3.56 3.56 0 1 0 7.12 0 a3.56 3.56 0 1 0 -7.12 0zM1586.76 927.89 a6.53 6.53 0 1 0 13.06 0 a6.53 6.53 0 1 0 -13.06 0zM1610.86 942.2 a3.56 3.56 0 1 0 7.12 0 a3.56 3.56 0 1 0 -7.12 0z" fill="#cc6700" fill-rule="nonzero"></path>
        <path d="M756.39 160.15L756.39 165.12L770.54 165.12L770.54 160.15zM761.74 162.63 a8.8 8.8 0 1 0 17.6 0 a8.8 8.8 0 1 0 -17.6 0zM750.12 196.65L748.22 201.24L786.04 216.91L787.94 212.32zM778.19 214.61 a8.8 8.8 0 1 0 17.6 0 a8.8 8.8 0 1 0 -17.6 0zM730.36 227.97L726.84 231.49L754.33 258.97L757.84 255.46zM747.29 257.22 a8.8 8.8 0 1 0 17.6 0 a8.8 8.8 0 1 0 -17.6 0zM700.11 249.35L695.52 251.25L703.4 270.27L707.99 268.37zM696.89 269.32 a8.8 8.8 0 1 0 17.6 0 a8.8 8.8 0 1 0 -17.6 0zM663.99 257.52L659.02 257.52L659.02 271.49L663.99 271.49zM652.7 271.49 a8.8 8.8 0 1 0 17.6 0 a8.8 8.8 0 1 0 -17.6 0zM627.48 251.25L622.89 249.35L605.48 291.38L610.07 293.28zM598.98 292.33 a8.8 8.8 0 1 0 17.6 0 a8.8 8.8 0 1 0 -17.6 0zM596.16 231.49L592.64 227.97L563.6 257.02L567.11 260.54zM556.55 258.78 a8.8 8.8 0 1 0 17.6 0 a8.8 8.8 0 1 0 -17.6 0zM574.78 201.24L572.88 196.65L532.13 213.53L534.03 218.12zM524.28 215.83 a8.8 8.8 0 1 0 17.6 0 a8.8 8.8 0 1 0 -17.6 0zM566.61 165.12L566.61 160.15L545.59 160.15L545.59 165.12zM536.79 162.63 a8.8 8.8 0 1 0 17.6 0 a8.8 8.8 0 1 0 -17.6 0zM572.88 128.61L574.78 124.02L552.43 114.77L550.53 119.36zM542.68 117.06 a8.8 8.8 0 1 0 17.6 0 a8.8 8.8 0 1 0 -17.6 0zM592.64 97.29L596.16 93.78L581.24 78.86L577.72 82.37zM570.68 80.61 a8.8 8.8 0 1 0 17.6 0 a8.8 8.8 0 1 0 -17.6 0zM622.89 75.91L627.48 74.01L615.36 44.74L610.77 46.65zM604.26 45.69 a8.8 8.8 0 1 0 17.6 0 a8.8 8.8 0 1 0 -17.6 0zM659.02 67.74L663.99 67.74L663.99 52.34L659.02 52.34zM652.7 52.34 a8.8 8.8 0 1 0 17.6 0 a8.8 8.8 0 1 0 -17.6 0zM695.52 74.01L700.11 75.91L707.71 57.57L703.12 55.66zM696.61 56.61 a8.8 8.8 0 1 0 17.6 0 a8.8 8.8 0 1 0 -17.6 0zM726.84 93.78L730.36 97.29L757.83 69.81L754.32 66.3zM747.28 68.05 a8.8 8.8 0 1 0 17.6 0 a8.8 8.8 0 1 0 -17.6 0zM748.22 124.02L750.12 128.61L770.83 120.03L768.93 115.44zM761.08 117.74 a8.8 8.8 0 1 0 17.6 0 a8.8 8.8 0 1 0 -17.6 0zM566.58 162.63 a94.92 94.92 0 1 0 189.84 0 a94.92 94.92 0 1 0 -189.84 0z" fill="rgba(255, 255, 255, 1)"></path>
        <path d="M756.42 162.1 A93.92479999999999 93.92479999999999 0 0 1 614.67 245.2M614.67 245.2 A189.84959999999998 189.84959999999998 0 0 0 756.42 162.1" fill="#cccccc" fill-rule="nonzero"></path>
        <path d="M662.28 211.39 a18.98 18.98 0 1 0 37.96 0 a18.98 18.98 0 1 0 -37.96 0zM723.43 178.83 a15.19 15.19 0 1 0 30.38 0 a15.19 15.19 0 1 0 -30.38 0zM603.49 122.63 a18.98 18.98 0 1 0 37.96 0 a18.98 18.98 0 1 0 -37.96 0zM660.42 87.74 a18.04 18.04 0 1 0 36.08 0 a18.04 18.04 0 1 0 -36.08 0zM622.15 181.23 a15.19 15.19 0 1 0 30.38 0 a15.19 15.19 0 1 0 -30.38 0zM665.47 157.22 a13.29 13.29 0 1 0 26.58 0 a13.29 13.29 0 1 0 -26.58 0zM568.12 173.23 a13.29 13.29 0 1 0 26.58 0 a13.29 13.29 0 1 0 -26.58 0zM710.25 135.67 a11.39 11.39 0 1 0 22.78 0 a11.39 11.39 0 1 0 -22.78 0zM585.17 210.88 a6.64 6.64 0 1 0 13.28 0 a6.64 6.64 0 1 0 -13.28 0zM631.97 220.73 a4.75 4.75 0 1 0 9.5 0 a4.75 4.75 0 1 0 -9.5 0z" fill="#cccccc" fill-rule="nonzero"></path>
        <path d="M292.46 638.72L292.46 643.69L325.48 643.69L325.48 638.72zM316.68 641.2 a8.8 8.8 0 1 0 17.6 0 a8.8 8.8 0 1 0 -17.6 0zM286.18 675.22L284.28 679.81L306.95 689.2L308.86 684.61zM299.1 686.91 a8.8 8.8 0 1 0 17.6 0 a8.8 8.8 0 1 0 -17.6 0zM266.42 706.55L262.91 710.06L272.95 720.11L276.47 716.59zM265.91 718.35 a8.8 8.8 0 1 0 17.6 0 a8.8 8.8 0 1 0 -17.6 0zM236.17 727.92L231.58 729.82L239.11 748.01L243.7 746.1zM232.61 747.05 a8.8 8.8 0 1 0 17.6 0 a8.8 8.8 0 1 0 -17.6 0zM200.05 736.1L195.08 736.1L195.08 775.98L200.05 775.98zM188.76 775.98 a8.8 8.8 0 1 0 17.6 0 a8.8 8.8 0 1 0 -17.6 0zM163.55 729.82L158.95 727.92L152.32 743.94L156.91 745.84zM145.81 744.89 a8.8 8.8 0 1 0 17.6 0 a8.8 8.8 0 1 0 -17.6 0zM132.22 710.06L128.71 706.55L114.59 720.67L118.1 724.18zM107.54 722.42 a8.8 8.8 0 1 0 17.6 0 a8.8 8.8 0 1 0 -17.6 0zM110.85 679.81L108.94 675.22L97.48 679.97L99.38 684.56zM89.63 682.27 a8.8 8.8 0 1 0 17.6 0 a8.8 8.8 0 1 0 -17.6 0zM102.67 643.69L102.67 638.72L79.86 638.72L79.86 643.69zM71.06 641.2 a8.8 8.8 0 1 0 17.6 0 a8.8 8.8 0 1 0 -17.6 0zM108.94 607.19L110.85 602.59L93.1 595.24L91.2 599.83zM83.35 597.54 a8.8 8.8 0 1 0 17.6 0 a8.8 8.8 0 1 0 -17.6 0zM128.71 575.86L132.22 572.35L115.35 555.48L111.84 558.99zM104.79 557.23 a8.8 8.8 0 1 0 17.6 0 a8.8 8.8 0 1 0 -17.6 0zM158.95 554.49L163.55 552.58L148.17 515.47L143.58 517.37zM137.08 516.42 a8.8 8.8 0 1 0 17.6 0 a8.8 8.8 0 1 0 -17.6 0zM195.08 546.31L200.05 546.31L200.05 500.26L195.08 500.26zM188.76 500.26 a8.8 8.8 0 1 0 17.6 0 a8.8 8.8 0 1 0 -17.6 0zM231.58 552.58L236.17 554.49L252.52 515.02L247.93 513.12zM241.43 514.07 a8.8 8.8 0 1 0 17.6 0 a8.8 8.8 0 1 0 -17.6 0zM262.91 572.35L266.42 575.86L281.62 560.67L278.1 557.15zM271.06 558.91 a8.8 8.8 0 1 0 17.6 0 a8.8 8.8 0 1 0 -17.6 0zM284.28 602.59L286.18 607.19L308.41 597.98L306.51 593.39zM298.66 595.68 a8.8 8.8 0 1 0 17.6 0 a8.8 8.8 0 1 0 -17.6 0zM102.64 641.2 a94.92 94.92 0 1 0 189.84 0 a94.92 94.92 0 1 0 -189.84 0z" fill="rgba(255, 255, 255, 1)"></path>
        <path d="M209.13 546.99 A93.92479999999999 93.92479999999999 0 0 1 273.49 698.17M273.49 698.17 A189.84959999999998 189.84959999999998 0 0 0 209.13 546.99" fill="#cccccc" fill-rule="nonzero"></path>
        <path d="M262.13 625.86 a14.24 14.24 0 1 0 28.48 0 a14.24 14.24 0 1 0 -28.48 0zM159.99 707.55 a18.98 18.98 0 1 0 37.96 0 a18.98 18.98 0 1 0 -37.96 0zM223.32 643.66 a11.39 11.39 0 1 0 22.78 0 a11.39 11.39 0 1 0 -22.78 0zM195.97 627.66 a5.7 5.7 0 1 0 11.4 0 a5.7 5.7 0 1 0 -11.4 0zM137.73 610.47 a18.98 18.98 0 1 0 37.96 0 a18.98 18.98 0 1 0 -37.96 0zM175.47 570.7 a11.39 11.39 0 1 0 22.78 0 a11.39 11.39 0 1 0 -22.78 0zM215.34 583.58 a12.34 12.34 0 1 0 24.68 0 a12.34 12.34 0 1 0 -24.68 0zM110.36 652.09 a14.24 14.24 0 1 0 28.48 0 a14.24 14.24 0 1 0 -28.48 0zM260.25 700.62 a4.75 4.75 0 1 0 9.5 0 a4.75 4.75 0 1 0 -9.5 0zM257.21 668.15 a7.59 7.59 0 1 0 15.18 0 a7.59 7.59 0 1 0 -15.18 0z" fill="#cccccc" fill-rule="nonzero"></path>
        <path d="M1554.63 145.58L1554.63 149.92L1592.58 149.92L1592.58 145.58zM1584.88 147.75 a7.7 7.7 0 1 0 15.4 0 a7.7 7.7 0 1 0 -15.4 0zM1549.14 177.52L1547.47 181.53L1565.6 189.04L1567.26 185.02zM1558.73 187.03 a7.7 7.7 0 1 0 15.4 0 a7.7 7.7 0 1 0 -15.4 0zM1531.84 204.92L1528.77 208L1554.33 233.56L1557.41 230.49zM1548.17 232.02 a7.7 7.7 0 1 0 15.4 0 a7.7 7.7 0 1 0 -15.4 0zM1505.38 223.63L1501.36 225.29L1516.71 262.34L1520.72 260.68zM1511.02 261.51 a7.7 7.7 0 1 0 15.4 0 a7.7 7.7 0 1 0 -15.4 0zM1473.77 230.78L1469.42 230.78L1469.42 255.42L1473.77 255.42zM1463.9 255.42 a7.7 7.7 0 1 0 15.4 0 a7.7 7.7 0 1 0 -15.4 0zM1441.83 225.29L1437.81 223.63L1424.71 255.25L1428.73 256.92zM1419.02 256.08 a7.7 7.7 0 1 0 15.4 0 a7.7 7.7 0 1 0 -15.4 0zM1414.42 208L1411.35 204.92L1403.02 213.25L1406.1 216.32zM1396.86 214.78 a7.7 7.7 0 1 0 15.4 0 a7.7 7.7 0 1 0 -15.4 0zM1395.72 181.53L1394.05 177.52L1368.77 187.99L1370.43 192.01zM1361.9 190 a7.7 7.7 0 1 0 15.4 0 a7.7 7.7 0 1 0 -15.4 0zM1388.56 149.92L1388.56 145.58L1354.15 145.58L1354.15 149.92zM1346.45 147.75 a7.7 7.7 0 1 0 15.4 0 a7.7 7.7 0 1 0 -15.4 0zM1394.05 117.98L1395.72 113.97L1359.66 99.03L1357.99 103.05zM1351.13 101.04 a7.7 7.7 0 1 0 15.4 0 a7.7 7.7 0 1 0 -15.4 0zM1411.35 90.58L1414.42 87.5L1398.47 71.55L1395.39 74.62zM1389.23 73.09 a7.7 7.7 0 1 0 15.4 0 a7.7 7.7 0 1 0 -15.4 0zM1437.81 71.87L1441.83 70.21L1427.15 34.77L1423.13 36.43zM1417.44 35.6 a7.7 7.7 0 1 0 15.4 0 a7.7 7.7 0 1 0 -15.4 0zM1469.42 64.72L1473.77 64.72L1473.77 27.52L1469.42 27.52zM1463.9 27.52 a7.7 7.7 0 1 0 15.4 0 a7.7 7.7 0 1 0 -15.4 0zM1501.36 70.21L1505.38 71.87L1520.35 35.73L1516.33 34.07zM1510.64 34.9 a7.7 7.7 0 1 0 15.4 0 a7.7 7.7 0 1 0 -15.4 0zM1528.77 87.5L1531.84 90.58L1545.1 77.32L1542.03 74.24zM1535.87 75.78 a7.7 7.7 0 1 0 15.4 0 a7.7 7.7 0 1 0 -15.4 0zM1547.47 113.97L1549.14 117.98L1585.14 103.07L1583.48 99.05zM1576.61 101.06 a7.7 7.7 0 1 0 15.4 0 a7.7 7.7 0 1 0 -15.4 0zM1388.54 147.75 a83.06 83.06 0 1 0 166.12 0 a83.06 83.06 0 1 0 -166.12 0z" fill="rgba(255, 255, 255, 1)"></path>
        <path d="M1475.55 64.79 A82.0592 82.0592 0 0 1 1541.56 192.51M1541.56 192.51 A166.1184 166.1184 0 0 0 1475.55 64.79" fill="#cccccc" fill-rule="nonzero"></path>
        <path d="M1469.23 119.89 a16.61 16.61 0 1 0 33.22 0 a16.61 16.61 0 1 0 -33.22 0zM1401.86 105.8 a7.48 7.48 0 1 0 14.96 0 a7.48 7.48 0 1 0 -14.96 0zM1522.97 150.47 a15.78 15.78 0 1 0 31.56 0 a15.78 15.78 0 1 0 -31.56 0zM1401.58 172.19 a16.61 16.61 0 1 0 33.22 0 a16.61 16.61 0 1 0 -33.22 0zM1430.58 90.5 a15.78 15.78 0 1 0 31.56 0 a15.78 15.78 0 1 0 -31.56 0zM1441.06 126.21 a3.32 3.32 0 1 0 6.64 0 a3.32 3.32 0 1 0 -6.64 0zM1495.9 204.17 a14.12 14.12 0 1 0 28.24 0 a14.12 14.12 0 1 0 -28.24 0zM1449.05 197.93 a14.95 14.95 0 1 0 29.9 0 a14.95 14.95 0 1 0 -29.9 0zM1476.06 164.67 a4.98 4.98 0 1 0 9.96 0 a4.98 4.98 0 1 0 -9.96 0zM1525.69 97.42 a4.98 4.98 0 1 0 9.96 0 a4.98 4.98 0 1 0 -9.96 0z" fill="#cccccc" fill-rule="nonzero"></path>
        <path d="M306.34 77.22L306.34 79.71L328.94 79.71L328.94 77.22zM324.54 78.46 a4.4 4.4 0 1 0 8.8 0 a4.4 4.4 0 1 0 -8.8 0zM303.2 95.47L302.25 97.77L313.72 102.52L314.67 100.22zM309.79 101.37 a4.4 4.4 0 1 0 8.8 0 a4.4 4.4 0 1 0 -8.8 0zM293.32 111.14L291.56 112.89L307.42 128.75L309.18 126.99zM303.9 127.87 a4.4 4.4 0 1 0 8.8 0 a4.4 4.4 0 1 0 -8.8 0zM278.2 121.82L275.9 122.77L282.09 137.7L284.38 136.75zM278.83 137.23 a4.4 4.4 0 1 0 8.8 0 a4.4 4.4 0 1 0 -8.8 0zM260.14 125.91L257.65 125.91L257.65 138.41L260.14 138.41zM254.49 138.41 a4.4 4.4 0 1 0 8.8 0 a4.4 4.4 0 1 0 -8.8 0zM241.88 122.77L239.59 121.82L234.36 134.45L236.65 135.4zM231.11 134.93 a4.4 4.4 0 1 0 8.8 0 a4.4 4.4 0 1 0 -8.8 0zM226.22 112.89L224.47 111.14L219.1 116.5L220.86 118.26zM215.58 117.38 a4.4 4.4 0 1 0 8.8 0 a4.4 4.4 0 1 0 -8.8 0zM215.53 97.77L214.58 95.47L206.12 98.98L207.07 101.27zM202.2 100.13 a4.4 4.4 0 1 0 8.8 0 a4.4 4.4 0 1 0 -8.8 0zM211.45 79.71L211.45 77.22L204.99 77.22L204.99 79.71zM200.59 78.46 a4.4 4.4 0 1 0 8.8 0 a4.4 4.4 0 1 0 -8.8 0zM214.58 61.46L215.53 59.16L206.54 55.43L205.59 57.73zM201.66 56.58 a4.4 4.4 0 1 0 8.8 0 a4.4 4.4 0 1 0 -8.8 0zM224.47 45.79L226.22 44.04L209.73 27.54L207.97 29.3zM204.45 28.42 a4.4 4.4 0 1 0 8.8 0 a4.4 4.4 0 1 0 -8.8 0zM239.59 35.11L241.88 34.15L236.13 20.26L233.83 21.21zM230.58 20.74 a4.4 4.4 0 1 0 8.8 0 a4.4 4.4 0 1 0 -8.8 0zM257.65 31.02L260.14 31.02L260.14 22.81L257.65 22.81zM254.49 22.81 a4.4 4.4 0 1 0 8.8 0 a4.4 4.4 0 1 0 -8.8 0zM275.9 34.15L278.2 35.11L282.42 24.92L280.12 23.96zM276.87 24.44 a4.4 4.4 0 1 0 8.8 0 a4.4 4.4 0 1 0 -8.8 0zM291.56 44.04L293.32 45.79L309.83 29.29L308.07 27.53zM304.55 28.41 a4.4 4.4 0 1 0 8.8 0 a4.4 4.4 0 1 0 -8.8 0zM302.25 59.16L303.2 61.46L313.03 57.38L312.08 55.09zM308.16 56.24 a4.4 4.4 0 1 0 8.8 0 a4.4 4.4 0 1 0 -8.8 0zM211.43 78.46 a47.46 47.46 0 1 0 94.92 0 a47.46 47.46 0 1 0 -94.92 0z" fill="rgba(255, 255, 255, 1)"></path>
        <path d="M288.83 41.63 A46.462399999999995 46.462399999999995 0 0 1 275.92 122.77M275.92 122.77 A94.92479999999999 94.92479999999999 0 0 0 288.83 41.63" fill="#cccccc" fill-rule="nonzero"></path>
        <path d="M276.14 83.27 a9.49 9.49 0 1 0 18.98 0 a9.49 9.49 0 1 0 -18.98 0zM285.29 106.19 a3.8 3.8 0 1 0 7.6 0 a3.8 3.8 0 1 0 -7.6 0zM221.34 51.95 a6.17 6.17 0 1 0 12.34 0 a6.17 6.17 0 1 0 -12.34 0zM218.67 81.96 a9.49 9.49 0 1 0 18.98 0 a9.49 9.49 0 1 0 -18.98 0zM258.53 54.32 a9.49 9.49 0 1 0 18.98 0 a9.49 9.49 0 1 0 -18.98 0zM247.69 120.01 a5.22 5.22 0 1 0 10.44 0 a5.22 5.22 0 1 0 -10.44 0zM246.88 77.8 a3.8 3.8 0 1 0 7.6 0 a3.8 3.8 0 1 0 -7.6 0zM226.74 107.07 a6.64 6.64 0 1 0 13.28 0 a6.64 6.64 0 1 0 -13.28 0zM284.81 43.39 a2.37 2.37 0 1 0 4.74 0 a2.37 2.37 0 1 0 -4.74 0zM253.59 103.56 a1.9 1.9 0 1 0 3.8 0 a1.9 1.9 0 1 0 -3.8 0z" fill="#cccccc" fill-rule="nonzero"></path>
        <path d="M1648.04 533.5L1648.04 538.47L1667.64 538.47L1667.64 533.5zM1658.84 535.99 a8.8 8.8 0 1 0 17.6 0 a8.8 8.8 0 1 0 -17.6 0zM1641.76 570.01L1639.86 574.6L1655.19 580.95L1657.09 576.36zM1647.34 578.65 a8.8 8.8 0 1 0 17.6 0 a8.8 8.8 0 1 0 -17.6 0zM1622 601.33L1618.49 604.84L1648.74 635.1L1652.26 631.59zM1641.7 633.34 a8.8 8.8 0 1 0 17.6 0 a8.8 8.8 0 1 0 -17.6 0zM1591.75 622.71L1587.16 624.61L1605.07 667.84L1609.66 665.94zM1598.56 666.89 a8.8 8.8 0 1 0 17.6 0 a8.8 8.8 0 1 0 -17.6 0zM1555.63 630.88L1550.66 630.88L1550.66 654.31L1555.63 654.31zM1544.34 654.31 a8.8 8.8 0 1 0 17.6 0 a8.8 8.8 0 1 0 -17.6 0zM1519.13 624.61L1514.53 622.71L1500.1 657.56L1504.69 659.46zM1493.59 658.51 a8.8 8.8 0 1 0 17.6 0 a8.8 8.8 0 1 0 -17.6 0zM1487.8 604.84L1484.29 601.33L1469.63 615.99L1473.14 619.5zM1462.59 617.75 a8.8 8.8 0 1 0 17.6 0 a8.8 8.8 0 1 0 -17.6 0zM1466.42 574.6L1464.52 570.01L1446.41 577.51L1448.31 582.1zM1438.56 579.81 a8.8 8.8 0 1 0 17.6 0 a8.8 8.8 0 1 0 -17.6 0zM1458.25 538.47L1458.25 533.5L1425.87 533.5L1425.87 538.47zM1417.07 535.99 a8.8 8.8 0 1 0 17.6 0 a8.8 8.8 0 1 0 -17.6 0zM1464.52 501.97L1466.42 497.38L1447.09 489.37L1445.19 493.96zM1437.34 491.67 a8.8 8.8 0 1 0 17.6 0 a8.8 8.8 0 1 0 -17.6 0zM1484.29 470.65L1487.8 467.13L1471.07 450.4L1467.56 453.92zM1460.51 452.16 a8.8 8.8 0 1 0 17.6 0 a8.8 8.8 0 1 0 -17.6 0zM1514.53 449.27L1519.13 447.37L1506.56 417.03L1501.97 418.93zM1495.46 417.98 a8.8 8.8 0 1 0 17.6 0 a8.8 8.8 0 1 0 -17.6 0zM1550.66 441.1L1555.63 441.1L1555.63 400.76L1550.66 400.76zM1544.34 400.76 a8.8 8.8 0 1 0 17.6 0 a8.8 8.8 0 1 0 -17.6 0zM1587.16 447.37L1591.75 449.27L1600.15 429L1595.56 427.1zM1589.05 428.05 a8.8 8.8 0 1 0 17.6 0 a8.8 8.8 0 1 0 -17.6 0zM1618.49 467.13L1622 470.65L1637.07 455.57L1633.56 452.06zM1626.52 453.81 a8.8 8.8 0 1 0 17.6 0 a8.8 8.8 0 1 0 -17.6 0zM1639.86 497.38L1641.76 501.97L1673.94 488.64L1672.04 484.05zM1664.19 486.35 a8.8 8.8 0 1 0 17.6 0 a8.8 8.8 0 1 0 -17.6 0zM1458.22 535.99 a94.92 94.92 0 1 0 189.84 0 a94.92 94.92 0 1 0 -189.84 0z" fill="rgba(159, 255, 0, 1)"></path>
        <path d="M1521.78 446.39 A93.92479999999999 93.92479999999999 0 0 1 1646.45 553.43M1646.45 553.43 A189.84959999999998 189.84959999999998 0 0 0 1521.78 446.39" fill="#7fcc00" fill-rule="nonzero"></path>
        <path d="M1596.75 561.42 a18.98 18.98 0 1 0 37.96 0 a18.98 18.98 0 1 0 -37.96 0zM1528.19 624.25 a3.8 3.8 0 1 0 7.6 0 a3.8 3.8 0 1 0 -7.6 0zM1535.59 534 a18.98 18.98 0 1 0 37.96 0 a18.98 18.98 0 1 0 -37.96 0zM1501.65 512.84 a9.49 9.49 0 1 0 18.98 0 a9.49 9.49 0 1 0 -18.98 0zM1585.98 482.16 a18.98 18.98 0 1 0 37.96 0 a18.98 18.98 0 1 0 -37.96 0zM1499.63 547.33 a5.7 5.7 0 1 0 11.4 0 a5.7 5.7 0 1 0 -11.4 0zM1524.5 455.88 a12.34 12.34 0 1 0 24.68 0 a12.34 12.34 0 1 0 -24.68 0zM1537.68 491.89 a4.75 4.75 0 1 0 9.5 0 a4.75 4.75 0 1 0 -9.5 0zM1469.05 574.16 a11.39 11.39 0 1 0 22.78 0 a11.39 11.39 0 1 0 -22.78 0zM1547.53 602.47 a10.44 10.44 0 1 0 20.88 0 a10.44 10.44 0 1 0 -20.88 0z" fill="#7fcc00" fill-rule="nonzero"></path>
        <path d="M138.39 993.85L138.39 996.33L146.88 996.33L146.88 993.85zM142.48 995.09 a4.4 4.4 0 1 0 8.8 0 a4.4 4.4 0 1 0 -8.8 0zM135.25 1012.1L134.3 1014.4L149.12 1020.53L150.07 1018.24zM145.2 1019.39 a4.4 4.4 0 1 0 8.8 0 a4.4 4.4 0 1 0 -8.8 0zM125.37 1027.76L123.61 1029.52L138.64 1044.55L140.4 1042.79zM135.12 1043.67 a4.4 4.4 0 1 0 8.8 0 a4.4 4.4 0 1 0 -8.8 0zM110.25 1038.45L107.95 1039.4L110.76 1046.19L113.06 1045.24zM107.51 1045.72 a4.4 4.4 0 1 0 8.8 0 a4.4 4.4 0 1 0 -8.8 0zM92.19 1042.54L89.7 1042.54L89.7 1065.39L92.19 1065.39zM86.54 1065.39 a4.4 4.4 0 1 0 8.8 0 a4.4 4.4 0 1 0 -8.8 0zM73.93 1039.4L71.64 1038.45L65.04 1054.38L67.34 1055.33zM61.79 1054.85 a4.4 4.4 0 1 0 8.8 0 a4.4 4.4 0 1 0 -8.8 0zM58.27 1029.52L56.52 1027.76L43.76 1040.52L45.52 1042.28zM40.24 1041.4 a4.4 4.4 0 1 0 8.8 0 a4.4 4.4 0 1 0 -8.8 0zM47.58 1014.4L46.63 1012.1L38.96 1015.28L39.91 1017.58zM35.03 1016.43 a4.4 4.4 0 1 0 8.8 0 a4.4 4.4 0 1 0 -8.8 0zM43.5 996.33L43.5 993.85L27.33 993.85L27.33 996.33zM22.93 995.09 a4.4 4.4 0 1 0 8.8 0 a4.4 4.4 0 1 0 -8.8 0zM46.63 978.08L47.58 975.79L41.42 973.23L40.47 975.53zM36.55 974.38 a4.4 4.4 0 1 0 8.8 0 a4.4 4.4 0 1 0 -8.8 0zM56.52 962.42L58.27 960.66L43.55 945.94L41.79 947.7zM38.27 946.82 a4.4 4.4 0 1 0 8.8 0 a4.4 4.4 0 1 0 -8.8 0zM71.64 951.73L73.93 950.78L70.8 943.21L68.5 944.16zM65.25 943.68 a4.4 4.4 0 1 0 8.8 0 a4.4 4.4 0 1 0 -8.8 0zM89.7 947.65L92.19 947.65L92.19 935.55L89.7 935.55zM86.54 935.55 a4.4 4.4 0 1 0 8.8 0 a4.4 4.4 0 1 0 -8.8 0zM107.95 950.78L110.25 951.73L116.42 936.82L114.13 935.87zM110.88 936.35 a4.4 4.4 0 1 0 8.8 0 a4.4 4.4 0 1 0 -8.8 0zM123.61 960.66L125.37 962.42L135.04 952.75L133.29 950.99zM129.77 951.87 a4.4 4.4 0 1 0 8.8 0 a4.4 4.4 0 1 0 -8.8 0zM134.3 975.79L135.25 978.08L141.9 975.33L140.94 973.04zM137.02 974.18 a4.4 4.4 0 1 0 8.8 0 a4.4 4.4 0 1 0 -8.8 0zM43.48 995.09 a47.46 47.46 0 1 0 94.92 0 a47.46 47.46 0 1 0 -94.92 0z" fill="rgba(255, 129, 0, 1)"></path>
        <path d="M67.66 953.73 A46.462399999999995 46.462399999999995 0 0 1 138.4 995.51M138.4 995.51 A94.92479999999999 94.92479999999999 0 0 0 67.66 953.73" fill="#cc6700" fill-rule="nonzero"></path>
        <path d="M94.97 1011.77 a9.49 9.49 0 1 0 18.98 0 a9.49 9.49 0 1 0 -18.98 0zM54.95 1005.78 a9.49 9.49 0 1 0 18.98 0 a9.49 9.49 0 1 0 -18.98 0zM112.91 991.69 a4.75 4.75 0 1 0 9.5 0 a4.75 4.75 0 1 0 -9.5 0zM49.13 975.76 a9.49 9.49 0 1 0 18.98 0 a9.49 9.49 0 1 0 -18.98 0zM89.99 1028.51 a1.9 1.9 0 1 0 3.8 0 a1.9 1.9 0 1 0 -3.8 0zM97.32 972.2 a8.54 8.54 0 1 0 17.08 0 a8.54 8.54 0 1 0 -17.08 0zM128.84 1013.13 a2.85 2.85 0 1 0 5.7 0 a2.85 2.85 0 1 0 -5.7 0zM87.34 993.86 a3.32 3.32 0 1 0 6.64 0 a3.32 3.32 0 1 0 -6.64 0zM84.59 951.44 a3.32 3.32 0 1 0 6.64 0 a3.32 3.32 0 1 0 -6.64 0zM73.2 1037.35 a1.9 1.9 0 1 0 3.8 0 a1.9 1.9 0 1 0 -3.8 0z" fill="#cc6700" fill-rule="nonzero"></path>
        <path d="M745.24 540.78L745.24 544.51L762.96 544.51L762.96 540.78zM756.36 542.64 a6.6 6.6 0 1 0 13.2 0 a6.6 6.6 0 1 0 -13.2 0zM740.54 568.16L739.11 571.6L753.67 577.63L755.09 574.18zM747.78 575.91 a6.6 6.6 0 1 0 13.2 0 a6.6 6.6 0 1 0 -13.2 0zM725.72 591.65L723.08 594.29L736.8 608L739.44 605.37zM731.52 606.69 a6.6 6.6 0 1 0 13.2 0 a6.6 6.6 0 1 0 -13.2 0zM703.03 607.68L699.59 609.11L703.65 618.92L707.1 617.49zM698.77 618.21 a6.6 6.6 0 1 0 13.2 0 a6.6 6.6 0 1 0 -13.2 0zM675.94 613.81L672.21 613.81L672.21 633.01L675.94 633.01zM667.48 633.01 a6.6 6.6 0 1 0 13.2 0 a6.6 6.6 0 1 0 -13.2 0zM648.56 609.11L645.12 607.68L637.17 626.88L640.61 628.31zM632.29 627.59 a6.6 6.6 0 1 0 13.2 0 a6.6 6.6 0 1 0 -13.2 0zM625.07 594.29L622.43 591.65L614.87 599.21L617.51 601.84zM609.59 600.53 a6.6 6.6 0 1 0 13.2 0 a6.6 6.6 0 1 0 -13.2 0zM609.04 571.6L607.61 568.16L594.23 573.7L595.66 577.14zM588.35 575.42 a6.6 6.6 0 1 0 13.2 0 a6.6 6.6 0 1 0 -13.2 0zM602.91 544.51L602.91 540.78L590.76 540.78L590.76 544.51zM584.16 542.64 a6.6 6.6 0 1 0 13.2 0 a6.6 6.6 0 1 0 -13.2 0zM607.61 517.13L609.04 513.69L580.43 501.84L579.01 505.28zM573.12 503.56 a6.6 6.6 0 1 0 13.2 0 a6.6 6.6 0 1 0 -13.2 0zM622.43 493.64L625.07 491L611.77 477.7L609.13 480.34zM603.85 479.02 a6.6 6.6 0 1 0 13.2 0 a6.6 6.6 0 1 0 -13.2 0zM645.12 477.6L648.56 476.18L644.92 467.38L641.48 468.81zM636.6 468.1 a6.6 6.6 0 1 0 13.2 0 a6.6 6.6 0 1 0 -13.2 0zM672.21 471.47L675.94 471.47L675.94 456.63L672.21 456.63zM667.48 456.63 a6.6 6.6 0 1 0 13.2 0 a6.6 6.6 0 1 0 -13.2 0zM699.59 476.18L703.03 477.6L709.09 462.99L705.64 461.56zM700.76 462.28 a6.6 6.6 0 1 0 13.2 0 a6.6 6.6 0 1 0 -13.2 0zM723.08 491L725.72 493.64L750.44 468.92L747.8 466.28zM742.52 467.6 a6.6 6.6 0 1 0 13.2 0 a6.6 6.6 0 1 0 -13.2 0zM739.11 513.69L740.54 517.13L764.03 507.4L762.61 503.95zM756.72 505.68 a6.6 6.6 0 1 0 13.2 0 a6.6 6.6 0 1 0 -13.2 0zM602.89 542.64 a71.19 71.19 0 1 0 142.38 0 a71.19 71.19 0 1 0 -142.38 0z" fill="rgba(255, 129, 0, 1)"></path>
        <path d="M721.84 489.85 A70.1936 70.1936 0 0 1 696.05 610.36M696.05 610.36 A142.3872 142.3872 0 0 0 721.84 489.85" fill="#cc6700" fill-rule="nonzero"></path>
        <path d="M603.31 541.8 a9.26 9.26 0 1 0 18.52 0 a9.26 9.26 0 1 0 -18.52 0zM632.83 587.36 a14.24 14.24 0 1 0 28.48 0 a14.24 14.24 0 1 0 -28.48 0zM682.05 547.51 a14.24 14.24 0 1 0 28.48 0 a14.24 14.24 0 1 0 -28.48 0zM643.54 546.32 a12.1 12.1 0 1 0 24.2 0 a12.1 12.1 0 1 0 -24.2 0zM664.4 487.14 a14.24 14.24 0 1 0 28.48 0 a14.24 14.24 0 1 0 -28.48 0zM702.83 505.81 a10.68 10.68 0 1 0 21.36 0 a10.68 10.68 0 1 0 -21.36 0zM616.4 569.12 a3.56 3.56 0 1 0 7.12 0 a3.56 3.56 0 1 0 -7.12 0zM674.49 601.92 a10.68 10.68 0 1 0 21.36 0 a10.68 10.68 0 1 0 -21.36 0zM640.11 505.2 a7.12 7.12 0 1 0 14.24 0 a7.12 7.12 0 1 0 -14.24 0zM724.66 540.63 a4.27 4.27 0 1 0 8.54 0 a4.27 4.27 0 1 0 -8.54 0z" fill="#cc6700" fill-rule="nonzero"></path>
    </g>
    <defs>
        <mask id="SvgjsMask1550">
            <rect width="1920" height="1080" fill="#ffffff"></rect>
        </mask>
        <radialGradient cx="50%" cy="50%" r="1101.45" gradientUnits="userSpaceOnUse" id="SvgjsRadialGradient1551">
            <stop stop-color="rgba(71, 14, 14, 1)" offset="0"></stop>
            <stop stop-color="rgba(97, 0, 158, 1)" offset="1"></stop>
        </radialGradient>
    </defs>
</svg>