<?xml version="1.0" encoding="UTF-8" ?>
<!DOCTYPE svg PUBLIC "-//W3C//DTD SVG 1.1//EN" "http://www.w3.org/Graphics/SVG/1.1/DTD/svg11.dtd">
<svg width="475pt" height="475pt" viewBox="0 0 475 475" version="1.1" xmlns="http://www.w3.org/2000/svg">
<g id="#020101ff">
<path fill="#020101" opacity="1.00" d=" M 149.29 23.32 C 165.04 19.91 181.50 24.06 195.48 31.51 C 207.44 37.84 214.58 50.16 219.78 62.18 C 223.51 70.54 226.95 79.09 229.16 87.99 C 229.59 89.48 229.73 91.04 229.46 92.58 C 227.16 87.52 226.23 81.99 224.17 76.84 C 221.77 70.48 218.61 64.46 215.73 58.31 C 210.68 47.85 203.35 37.89 192.77 32.52 C 190.52 31.23 188.29 29.87 185.91 28.81 C 177.04 25.18 167.30 23.31 157.72 24.40 C 144.44 24.68 131.62 29.39 120.51 36.49 C 114.80 39.79 109.58 43.97 105.42 49.11 C 99.82 55.41 94.64 62.13 90.45 69.44 C 87.43 74.52 86.59 80.47 85.91 86.24 C 87.43 84.90 88.94 83.53 90.47 82.20 C 91.98 83.85 93.43 85.56 94.60 87.46 C 95.22 90.04 95.67 92.65 96.28 95.24 C 99.72 109.33 100.52 123.96 100.26 138.43 C 93.38 139.22 86.54 135.92 83.03 129.93 C 81.82 135.31 80.82 140.77 78.76 145.90 C 76.06 152.40 75.67 160.34 79.55 166.46 C 82.26 170.62 85.44 174.56 89.36 177.65 C 94.20 181.51 98.87 185.68 104.30 188.70 C 110.92 192.17 117.33 196.09 124.39 198.61 C 131.05 200.94 137.72 203.26 144.18 206.10 C 140.04 207.12 136.24 209.04 132.76 211.47 C 125.35 215.44 117.47 218.47 109.65 221.55 C 102.12 225.47 94.45 229.13 86.59 232.34 C 83.06 233.75 79.66 235.67 75.88 236.34 C 74.21 236.25 72.70 235.33 71.03 235.20 C 69.74 236.23 68.66 237.49 67.49 238.65 C 64.73 237.85 61.92 237.20 59.05 236.88 C 60.07 239.30 61.41 241.57 62.92 243.73 C 57.87 243.90 52.86 244.80 48.14 246.59 C 55.38 251.64 63.13 256.40 68.06 263.96 C 66.85 267.22 65.96 270.58 65.15 273.96 C 67.90 272.97 70.64 271.89 73.48 271.18 C 75.84 270.74 78.22 270.45 80.61 270.35 C 89.06 270.86 97.53 270.74 105.99 270.67 C 113.60 270.44 121.36 270.25 128.59 267.61 C 129.03 265.36 129.43 263.10 129.83 260.85 C 131.63 250.40 134.02 240.07 135.62 229.59 C 136.12 226.45 136.89 223.35 138.27 220.48 C 137.67 229.44 136.80 238.49 134.07 247.09 C 133.17 250.56 132.93 254.16 132.59 257.71 C 135.90 251.56 137.86 244.70 142.00 239.00 C 144.94 234.95 147.44 230.54 151.03 227.01 C 156.18 221.49 162.73 215.97 170.78 216.48 C 180.95 216.71 188.37 224.64 194.74 231.63 C 207.75 247.15 219.92 263.80 227.16 282.86 C 232.42 297.49 235.93 312.69 238.10 328.06 C 239.54 327.05 240.98 326.03 242.47 325.07 C 238.49 330.06 234.89 335.35 232.47 341.29 C 228.67 348.56 226.78 356.72 227.15 364.93 C 227.08 370.39 227.20 376.00 229.48 381.08 C 230.08 382.71 230.72 384.34 231.51 385.90 C 234.93 392.37 239.41 398.25 244.58 403.43 C 251.82 410.49 256.69 419.68 259.63 429.28 C 260.65 431.76 261.06 434.94 263.60 436.40 C 267.56 438.70 271.91 440.23 276.08 442.13 C 277.10 437.78 278.45 431.79 283.92 431.40 C 288.07 432.99 290.69 436.79 293.67 439.87 C 295.74 435.60 297.46 430.84 301.20 427.71 C 303.45 427.46 305.65 428.17 307.84 428.59 C 309.42 425.96 311.13 423.41 312.97 420.96 C 312.22 420.00 311.49 419.03 310.73 418.09 C 313.85 418.99 316.09 421.48 318.51 423.50 C 322.59 427.40 328.02 430.72 329.11 436.71 C 325.15 437.36 321.14 437.48 317.14 437.55 C 319.36 440.13 321.59 442.75 323.01 445.88 C 314.44 450.30 305.33 445.32 296.74 443.84 C 298.35 446.03 300.13 448.09 301.97 450.10 C 301.91 450.77 301.78 452.12 301.72 452.79 C 295.92 453.15 290.84 450.02 285.44 448.49 C 280.68 447.25 276.67 444.17 271.87 443.07 C 268.09 441.50 263.08 440.78 261.16 436.69 C 258.55 431.70 257.62 426.02 254.90 421.08 C 252.72 417.31 251.36 412.99 248.23 409.83 C 244.88 406.42 241.29 403.24 237.99 399.77 C 225.39 400.25 213.01 397.24 200.65 395.39 C 189.13 396.10 177.57 397.22 166.43 400.39 C 163.69 401.41 160.72 402.42 158.74 404.67 C 157.75 408.97 159.31 413.51 158.06 417.76 C 155.20 421.57 150.05 421.75 145.79 422.72 C 132.89 424.74 120.26 428.29 108.15 433.17 C 102.30 435.24 96.97 439.08 90.58 439.30 C 91.46 436.81 92.52 434.39 93.50 431.94 C 87.21 434.12 81.80 439.16 74.83 438.99 C 75.66 435.75 76.86 432.61 78.43 429.66 C 77.25 429.33 76.07 429.00 74.89 428.68 C 80.17 427.49 83.23 422.86 86.20 418.77 C 85.76 417.65 85.16 416.62 84.57 415.59 C 84.20 415.19 83.45 414.38 83.07 413.98 C 79.27 416.80 75.61 419.84 72.44 423.37 C 70.79 425.04 69.66 427.12 68.55 429.17 C 70.15 429.17 71.75 429.17 73.35 429.17 C 71.24 430.45 68.72 430.55 66.32 430.43 C 66.86 428.43 67.33 426.30 68.84 424.78 C 76.13 416.40 85.66 410.51 94.53 404.00 C 84.90 392.41 85.33 375.75 90.30 362.26 C 93.91 352.45 100.77 344.34 107.71 336.71 C 112.95 330.74 119.81 326.52 125.39 320.91 C 125.55 315.28 125.04 309.64 125.19 304.00 C 124.72 292.83 126.80 281.80 127.89 270.72 C 113.58 272.63 99.06 273.14 84.64 272.22 C 77.53 271.51 71.13 275.53 64.11 275.86 C 63.56 272.00 65.09 268.36 65.62 264.61 C 66.00 263.17 64.64 262.21 63.86 261.23 C 59.38 256.63 54.23 252.74 49.03 248.99 C 47.65 248.01 46.93 246.41 45.96 245.08 C 50.44 243.62 55.02 242.35 59.75 242.07 C 58.64 239.86 57.83 237.52 57.61 235.05 C 60.91 235.19 64.12 235.95 67.28 236.87 C 68.02 235.40 68.33 233.43 70.08 232.80 C 72.08 233.18 73.96 234.01 75.95 234.42 C 87.27 229.91 98.34 224.76 109.22 219.29 C 119.12 215.73 129.12 211.90 137.83 205.88 C 134.73 204.23 131.44 203.00 128.11 201.92 C 119.73 199.16 112.00 194.81 104.20 190.74 C 98.24 187.67 93.34 183.02 88.14 178.86 C 83.44 175.14 79.87 170.19 77.17 164.87 C 75.83 162.14 74.93 159.11 75.21 156.04 C 76.14 146.47 80.31 137.57 81.74 128.09 C 82.74 122.71 81.17 117.33 81.57 111.93 C 81.94 105.98 82.54 99.98 84.28 94.25 C 86.11 88.85 84.32 83.07 85.59 77.56 C 86.93 69.82 91.98 63.58 96.17 57.20 C 102.37 47.89 110.81 40.18 120.28 34.30 C 128.96 28.41 139.34 26.09 149.29 23.32 M 88.82 103.04 C 89.83 107.81 91.32 113.01 95.87 115.58 C 96.44 114.39 96.94 113.17 97.38 111.92 C 96.76 105.24 95.28 98.67 93.72 92.15 C 93.33 90.18 92.22 88.47 91.12 86.83 C 88.46 91.76 87.76 97.57 88.82 103.04 M 83.78 121.06 C 84.49 125.64 84.76 130.90 88.74 134.01 C 91.93 135.65 95.30 136.89 98.86 137.45 C 98.88 132.71 98.76 127.96 98.16 123.25 C 98.07 121.27 97.99 119.28 97.90 117.30 C 95.44 116.58 92.33 116.62 90.63 114.39 C 88.66 111.60 88.11 108.14 86.97 104.98 C 86.76 104.44 86.33 103.36 86.11 102.82 C 81.23 107.79 84.47 114.99 83.78 121.06 M 163.91 218.73 C 160.18 221.20 156.27 223.53 153.35 227.01 L 152.35 226.64 L 152.90 227.42 C 148.82 230.65 146.46 235.32 143.52 239.49 C 140.80 243.71 138.94 248.37 136.88 252.93 C 133.36 261.17 129.01 269.30 128.51 278.43 C 128.53 281.34 128.46 284.28 127.89 287.15 C 126.79 292.72 127.62 298.43 126.77 304.03 C 125.80 312.79 127.02 321.56 128.83 330.13 L 129.55 330.36 C 129.60 330.87 129.72 331.91 129.77 332.42 C 130.12 334.51 130.83 336.51 131.51 338.52 C 134.44 346.17 138.16 353.49 142.66 360.35 C 151.49 371.08 162.43 380.23 175.29 385.72 C 194.70 392.70 215.10 398.02 235.89 397.30 C 233.46 392.99 230.79 388.81 228.61 384.36 C 224.23 375.55 225.11 365.34 225.76 355.84 C 227.20 350.65 229.32 345.70 230.97 340.59 C 232.95 337.08 234.93 333.54 236.61 329.88 C 236.55 327.19 236.01 324.53 235.44 321.91 C 232.25 304.01 227.38 286.19 218.93 270.02 C 212.19 256.60 203.01 244.63 193.48 233.11 C 192.49 232.13 191.50 231.17 190.50 230.21 C 185.69 225.08 180.00 220.48 173.11 218.61 C 170.06 218.07 166.94 218.02 163.91 218.73 M 118.92 328.88 C 111.10 333.86 104.93 340.99 99.54 348.45 C 95.23 354.36 92.24 361.17 90.51 368.27 C 90.27 370.13 89.92 371.97 89.70 373.84 C 87.14 387.54 92.56 402.96 104.82 410.28 C 102.88 409.66 100.93 409.05 99.00 408.37 C 97.90 407.33 96.80 406.29 95.72 405.24 C 91.96 407.83 88.18 410.40 84.36 412.91 C 85.31 414.25 86.25 415.60 87.18 416.96 C 88.69 415.82 90.06 414.33 91.93 413.80 C 93.04 414.22 94.12 414.69 95.19 415.23 C 97.37 417.54 99.59 419.80 101.66 422.22 C 103.40 421.06 105.06 419.71 107.04 418.98 C 111.72 419.85 114.23 424.55 116.98 427.99 C 124.73 425.58 132.42 422.87 140.47 421.67 C 145.17 420.49 150.27 420.09 154.43 417.43 C 158.37 414.87 156.27 409.48 156.42 405.63 C 154.63 406.92 152.88 408.28 150.99 409.42 C 153.34 404.67 157.90 401.63 162.69 399.72 C 172.56 395.92 183.21 395.30 193.59 393.99 C 186.22 390.97 178.31 389.40 171.16 385.82 C 157.69 379.33 146.14 368.97 138.13 356.36 C 137.59 355.52 137.06 354.67 136.52 353.84 C 131.41 344.28 127.59 334.01 125.77 323.31 C 123.48 325.16 121.38 327.24 118.92 328.88 M 81.43 428.41 C 79.67 431.24 78.01 434.27 77.96 437.71 C 78.46 437.36 79.47 436.66 79.98 436.31 C 86.41 433.77 93.62 431.58 98.29 426.21 C 101.07 423.21 97.21 419.92 95.38 417.57 C 94.21 416.71 93.05 415.86 91.88 415.02 C 88.01 419.16 84.25 423.47 81.43 428.41 M 92.94 437.65 C 93.99 437.29 94.94 436.79 95.81 436.14 C 102.29 433.49 109.04 431.49 115.29 428.31 C 113.54 426.01 111.71 423.77 109.79 421.61 C 109.11 421.35 107.75 420.84 107.07 420.58 C 100.10 423.88 96.47 431.20 92.94 437.65 M 312.27 423.41 L 312.82 424.26 C 311.69 426.24 309.98 428.38 310.83 430.81 C 312.80 433.67 315.68 436.13 319.40 435.67 C 322.20 435.66 324.99 435.61 327.79 435.35 C 325.95 432.80 323.62 430.68 321.11 428.81 C 318.33 426.75 316.07 423.46 312.27 423.41 M 296.07 440.83 C 302.23 442.60 308.27 445.07 314.66 445.89 C 316.39 445.66 318.12 445.44 319.86 445.21 C 318.27 441.66 315.32 439.07 312.58 436.43 C 309.21 433.35 305.44 430.55 301.00 429.26 C 298.95 432.79 295.52 436.62 296.07 440.83 M 279.63 434.95 C 279.17 437.33 277.26 440.33 279.50 442.37 C 280.98 444.95 283.95 445.53 286.59 446.27 C 290.87 447.63 294.68 450.65 299.40 450.29 C 294.33 444.52 290.16 437.57 283.43 433.54 C 281.95 432.18 280.79 434.17 279.63 434.95 Z" />
<path fill="#020101" opacity="1.00" d=" M 102.87 79.44 C 103.20 79.04 103.85 78.26 104.18 77.86 C 105.23 82.07 105.93 86.36 107.00 90.57 C 106.71 91.03 106.13 91.94 105.84 92.40 C 105.10 88.03 104.32 83.64 102.87 79.44 Z" />
<path fill="#020101" opacity="1.00" d=" M 156.79 209.50 C 160.08 209.46 163.35 209.82 166.60 210.34 C 170.53 210.97 174.51 210.40 178.47 210.49 C 176.51 211.59 174.37 212.53 172.07 212.37 C 166.87 212.24 161.64 211.43 156.79 209.50 Z" />
<path fill="#020101" opacity="1.00" d=" M 287.69 248.01 C 288.73 248.33 289.77 248.67 290.80 249.04 C 294.69 251.65 297.81 255.33 299.43 259.75 C 294.25 261.38 287.52 262.51 283.21 258.39 C 288.09 259.03 293.07 259.67 297.93 258.40 C 297.63 258.07 297.03 257.43 296.73 257.10 C 293.95 253.84 290.69 251.06 287.69 248.01 Z" />
</g>
<g id="#edb38bff">
<path fill="#edb38b" opacity="1.00" d=" M 120.51 36.49 C 131.62 29.39 144.44 24.68 157.72 24.40 C 159.84 24.69 161.94 25.08 164.04 25.44 C 161.76 25.89 159.47 26.35 157.19 26.81 C 157.06 32.50 159.67 37.66 160.88 43.09 C 162.10 48.83 157.66 53.33 155.03 57.91 C 152.35 62.31 150.07 68.23 144.33 69.21 C 137.93 69.25 132.01 65.65 125.57 66.04 C 119.91 67.47 115.92 72.86 109.99 73.58 C 106.59 73.47 104.32 70.03 104.02 66.90 C 103.14 59.83 107.13 53.53 110.11 47.44 C 108.54 47.98 106.96 48.50 105.42 49.11 C 109.58 43.97 114.80 39.79 120.51 36.49 M 123.34 41.18 C 118.50 42.94 114.96 46.99 111.97 51.02 C 108.68 55.77 106.48 61.98 108.10 67.72 C 109.76 70.68 113.47 69.03 115.70 67.74 C 123.19 63.92 128.67 56.82 131.02 48.81 C 131.52 46.49 132.01 43.62 130.38 41.63 C 128.42 39.98 125.58 40.50 123.34 41.18 Z" />
</g>
<g id="#e9aa7dff">
<path fill="#e9aa7d" opacity="1.00" d=" M 157.72 24.40 C 167.30 23.31 177.04 25.18 185.91 28.81 C 189.30 36.28 195.33 42.35 197.59 50.35 C 199.07 55.67 200.88 61.11 200.61 66.69 C 199.71 69.16 197.11 70.54 195.34 72.37 C 188.47 78.10 184.80 86.99 184.79 95.86 C 186.81 95.61 188.83 95.35 190.85 95.09 C 190.35 106.42 190.19 117.96 192.91 129.05 C 193.47 131.35 194.16 133.67 195.54 135.63 C 199.43 136.55 203.27 134.76 206.92 133.65 C 208.39 134.19 209.86 134.73 211.32 135.28 C 208.18 137.79 204.55 139.72 201.72 142.60 C 199.56 146.03 199.45 150.53 196.55 153.55 C 192.16 158.13 185.97 160.46 181.67 165.18 C 180.28 165.48 178.89 165.77 177.50 166.08 C 170.25 165.60 163.31 167.95 156.27 169.26 C 149.22 170.62 142.19 172.39 134.97 172.53 C 130.58 172.61 126.19 172.88 121.81 173.28 C 110.85 169.41 100.11 164.78 89.98 159.05 C 86.14 157.11 84.53 152.96 84.00 148.92 C 83.71 150.35 83.42 151.78 83.11 153.21 C 81.79 150.69 80.27 148.30 78.76 145.90 C 80.82 140.77 81.82 135.31 83.03 129.93 C 86.54 135.92 93.38 139.22 100.26 138.43 C 100.52 123.96 99.72 109.33 96.28 95.24 C 97.09 94.72 97.90 94.20 98.70 93.68 C 100.00 95.04 101.30 96.40 102.59 97.77 C 103.65 95.97 104.72 94.17 105.84 92.40 C 106.13 91.94 106.71 91.03 107.00 90.57 C 105.93 86.36 105.23 82.07 104.18 77.86 C 103.85 78.26 103.20 79.04 102.87 79.44 C 100.40 82.40 97.56 85.00 94.60 87.46 C 93.43 85.56 91.98 83.85 90.47 82.20 C 88.94 83.53 87.43 84.90 85.91 86.24 C 86.59 80.47 87.43 74.52 90.45 69.44 C 94.64 62.13 99.82 55.41 105.42 49.11 C 106.96 48.50 108.54 47.98 110.11 47.44 C 107.13 53.53 103.14 59.83 104.02 66.90 C 104.32 70.03 106.59 73.47 109.99 73.58 C 115.92 72.86 119.91 67.47 125.57 66.04 C 132.01 65.65 137.93 69.25 144.33 69.21 C 150.07 68.23 152.35 62.31 155.03 57.91 C 157.66 53.33 162.10 48.83 160.88 43.09 C 159.67 37.66 157.06 32.50 157.19 26.81 C 159.47 26.35 161.76 25.89 164.04 25.44 C 161.94 25.08 159.84 24.69 157.72 24.40 M 180.48 86.45 C 181.54 84.87 182.16 83.05 182.35 81.16 C 182.82 77.21 184.05 73.42 184.71 69.51 C 181.43 74.42 179.80 80.56 180.48 86.45 M 120.38 155.90 C 120.40 157.19 120.46 158.47 120.55 159.76 C 121.85 159.55 123.15 159.39 124.46 159.25 C 124.76 159.48 125.34 159.95 125.64 160.19 C 126.20 155.34 126.17 150.40 124.97 145.64 C 121.86 148.18 120.88 152.09 120.38 155.90 M 155.76 155.73 C 155.36 156.82 154.96 157.90 154.56 158.99 C 155.33 158.84 156.86 158.52 157.62 158.37 C 157.71 157.33 157.79 156.30 157.88 155.26 C 157.35 155.38 156.29 155.61 155.76 155.73 Z" />
</g>
<g id="#ce9873ff">
<path fill="#ce9873" opacity="1.00" d=" M 185.91 28.81 C 188.29 29.87 190.52 31.23 192.77 32.52 C 194.06 38.74 198.51 43.60 200.38 49.60 C 202.67 56.97 205.42 64.53 204.75 72.38 C 204.28 72.51 203.33 72.77 202.86 72.90 C 200.42 73.39 197.88 74.26 196.65 76.62 C 192.99 82.10 192.17 88.79 190.85 95.09 C 188.83 95.35 186.81 95.61 184.79 95.86 C 184.80 86.99 188.47 78.10 195.34 72.37 C 197.11 70.54 199.71 69.16 200.61 66.69 C 200.88 61.11 199.07 55.67 197.59 50.35 C 195.33 42.35 189.30 36.28 185.91 28.81 Z" />
</g>
<g id="#ba8a6bff">
<path fill="#ba8a6b" opacity="1.00" d=" M 192.77 32.52 C 203.35 37.89 210.68 47.85 215.73 58.31 C 218.61 64.46 221.77 70.48 224.17 76.84 C 226.23 81.99 227.16 87.52 229.46 92.58 C 229.52 92.89 229.64 93.50 229.70 93.80 C 230.10 97.64 230.92 101.42 231.91 105.14 C 234.05 114.93 235.58 124.82 237.00 134.73 C 237.32 139.37 237.61 144.02 237.51 148.66 C 235.74 154.74 233.94 160.82 231.74 166.76 C 227.33 177.87 221.06 188.61 219.90 200.72 C 218.40 200.75 216.89 200.78 215.39 200.85 C 218.91 203.47 223.23 204.42 227.38 205.54 C 223.74 213.60 217.31 220.01 210.34 225.26 C 205.81 228.75 200.40 230.92 194.74 231.63 C 188.37 224.64 180.95 216.71 170.78 216.48 C 162.73 215.97 156.18 221.49 151.03 227.01 C 147.59 225.65 143.98 224.35 141.23 221.79 C 137.95 218.75 135.47 214.99 132.76 211.47 C 136.24 209.04 140.04 207.12 144.18 206.10 C 137.72 203.26 131.05 200.94 124.39 198.61 C 117.33 196.09 110.92 192.17 104.30 188.70 C 98.87 185.68 94.20 181.51 89.36 177.65 C 85.44 174.56 82.26 170.62 79.55 166.46 C 75.67 160.34 76.06 152.40 78.76 145.90 C 80.27 148.30 81.79 150.69 83.11 153.21 C 84.18 155.23 84.73 157.75 86.79 159.04 C 89.11 160.81 91.88 161.93 94.07 163.87 C 96.41 166.97 97.67 170.84 100.51 173.57 C 103.48 175.68 107.77 174.76 110.39 177.59 C 117.13 183.67 124.61 188.85 132.54 193.24 C 140.80 197.07 149.29 201.16 158.55 201.64 C 171.16 202.28 184.26 198.25 193.54 189.49 C 199.45 183.66 204.22 176.80 208.95 170.01 C 212.44 164.94 213.75 158.58 218.11 154.10 C 219.95 152.15 220.70 149.54 221.35 147.01 C 218.91 150.29 216.62 154.00 212.67 155.65 C 202.87 160.32 192.11 162.41 181.67 165.18 C 185.97 160.46 192.16 158.13 196.55 153.55 C 199.45 150.53 199.56 146.03 201.72 142.60 C 204.55 139.72 208.18 137.79 211.32 135.28 C 209.86 134.73 208.39 134.19 206.92 133.65 C 212.60 131.84 217.63 128.59 222.79 125.71 C 222.59 123.51 222.37 121.31 222.21 119.11 C 222.86 120.10 223.52 121.08 224.20 122.05 C 223.86 118.91 223.20 115.82 222.55 112.73 C 222.26 114.00 222.05 115.28 221.91 116.57 C 221.19 112.51 223.05 108.39 221.66 104.40 C 219.60 96.64 217.12 88.86 213.11 81.86 C 210.82 77.78 206.98 74.96 202.86 72.90 C 203.33 72.77 204.28 72.51 204.75 72.38 C 205.42 64.53 202.67 56.97 200.38 49.60 C 198.51 43.60 194.06 38.74 192.77 32.52 M 156.79 209.50 C 161.64 211.43 166.87 212.24 172.07 212.37 C 174.37 212.53 176.51 211.59 178.47 210.49 C 174.51 210.40 170.53 210.97 166.60 210.34 C 163.35 209.82 160.08 209.46 156.79 209.50 Z" />
</g>
<g id="#edc8afff">
<path fill="#edc8af" opacity="1.00" d=" M 123.34 41.18 C 125.58 40.50 128.42 39.98 130.38 41.63 C 132.01 43.62 131.52 46.49 131.02 48.81 C 128.67 56.82 123.19 63.92 115.70 67.74 C 113.47 69.03 109.76 70.68 108.10 67.72 C 106.48 61.98 108.68 55.77 111.97 51.02 C 114.96 46.99 118.50 42.94 123.34 41.18 Z" />
</g>
<g id="#040404ff">
<path fill="#040404" opacity="1.00" d=" M 180.48 86.45 C 179.80 80.56 181.43 74.42 184.71 69.51 C 184.05 73.42 182.82 77.21 182.35 81.16 C 182.16 83.05 181.54 84.87 180.48 86.45 Z" />
<path fill="#040404" opacity="1.00" d=" M 196.65 76.62 C 197.88 74.26 200.42 73.39 202.86 72.90 C 206.98 74.96 210.82 77.78 213.11 81.86 C 217.12 88.86 219.60 96.64 221.66 104.40 C 223.05 108.39 221.19 112.51 221.91 116.57 C 221.98 117.20 222.13 118.48 222.21 119.11 C 222.37 121.31 222.59 123.51 222.79 125.71 C 217.63 128.59 212.60 131.84 206.92 133.65 C 203.27 134.76 199.43 136.55 195.54 135.63 C 194.16 133.67 193.47 131.35 192.91 129.05 C 190.19 117.96 190.35 106.42 190.85 95.09 C 192.17 88.79 192.99 82.10 196.65 76.62 M 199.30 76.41 C 198.98 76.55 198.32 76.84 197.99 76.99 C 194.19 82.10 193.78 88.87 194.38 95.01 C 194.41 99.30 196.52 103.55 199.98 106.08 C 201.59 107.28 204.14 107.02 204.94 105.00 C 207.28 99.06 206.97 92.37 206.23 86.14 C 205.07 82.53 203.94 76.50 199.30 76.41 M 209.03 83.65 C 208.71 90.96 209.79 98.52 207.44 105.59 C 206.75 108.60 203.04 109.62 200.44 108.57 C 197.46 107.37 195.26 104.93 192.89 102.87 C 192.41 110.29 192.49 117.77 193.74 125.12 C 194.47 128.70 195.44 132.63 198.61 134.86 C 201.87 133.82 205.08 132.61 208.23 131.28 C 210.31 130.26 212.40 129.27 214.50 128.29 C 216.73 127.40 219.42 126.84 220.81 124.68 C 221.23 122.69 220.93 120.65 220.93 118.64 L 220.22 118.19 C 220.55 113.66 220.25 109.12 219.30 104.69 C 216.85 97.27 214.83 89.28 209.03 83.65 Z" />
<path fill="#040404" opacity="1.00" d=" M 120.55 159.76 C 120.46 158.47 120.40 157.19 120.38 155.90 C 121.73 157.03 123.08 158.16 124.46 159.25 C 123.15 159.39 121.85 159.55 120.55 159.76 Z" />
<path fill="#040404" opacity="1.00" d=" M 98.47 410.62 C 102.04 411.72 105.67 412.62 109.20 413.84 C 105.35 414.03 101.11 413.86 98.47 410.62 Z" />
</g>
<g id="#ffffffff">
<path fill="#ffffff" opacity="1.00" d=" M 199.30 76.41 C 203.94 76.50 205.07 82.53 206.23 86.14 C 206.97 92.37 207.28 99.06 204.94 105.00 C 204.14 107.02 201.59 107.28 199.98 106.08 C 196.52 103.55 194.41 99.30 194.38 95.01 C 193.78 88.87 194.19 82.10 197.99 76.99 C 198.32 76.84 198.98 76.55 199.30 76.41 Z" />
</g>
<g id="#eeba94ff">
<path fill="#eeba94" opacity="1.00" d=" M 94.60 87.46 C 97.56 85.00 100.40 82.40 102.87 79.44 C 104.32 83.64 105.10 88.03 105.84 92.40 C 104.72 94.17 103.65 95.97 102.59 97.77 C 101.30 96.40 100.00 95.04 98.70 93.68 C 97.90 94.20 97.09 94.72 96.28 95.24 C 95.67 92.65 95.22 90.04 94.60 87.46 Z" />
</g>
<g id="#161a1cff">
<path fill="#161a1c" opacity="1.00" d=" M 209.03 83.65 C 214.83 89.28 216.85 97.27 219.30 104.69 C 217.46 103.95 215.64 103.15 213.83 102.34 C 213.70 106.16 213.74 109.99 213.55 113.81 C 212.86 116.53 212.14 119.56 209.90 121.44 C 206.98 121.23 204.15 120.42 201.25 120.08 C 199.93 117.03 198.56 114.00 197.00 111.06 C 194.14 115.17 192.95 120.16 193.74 125.12 C 192.49 117.77 192.41 110.29 192.89 102.87 C 195.26 104.93 197.46 107.37 200.44 108.57 C 203.04 109.62 206.75 108.60 207.44 105.59 C 209.79 98.52 208.71 90.96 209.03 83.65 Z" />
</g>
<g id="#fefeffff">
<path fill="#fefeff" opacity="1.00" d=" M 88.82 103.04 C 87.76 97.57 88.46 91.76 91.12 86.83 C 92.22 88.47 93.33 90.18 93.72 92.15 C 95.28 98.67 96.76 105.24 97.38 111.92 C 96.94 113.17 96.44 114.39 95.87 115.58 C 91.32 113.01 89.83 107.81 88.82 103.04 Z" />
</g>
<g id="#000000ff">
<path fill="#000000" opacity="1.00" d=" M 229.70 93.80 C 233.38 98.22 232.94 104.34 234.36 109.62 C 237.26 120.18 239.23 131.05 239.49 142.02 C 239.65 144.41 238.84 146.68 237.97 148.86 C 237.18 144.19 237.62 139.41 237.00 134.73 C 235.58 124.82 234.05 114.93 231.91 105.14 C 230.92 101.42 230.10 97.64 229.70 93.80 Z" />
<path fill="#000000" opacity="1.00" d=" M 237.51 148.66 C 238.20 150.65 238.52 152.79 237.92 154.85 C 235.28 165.76 229.03 175.32 225.78 186.02 C 223.10 190.92 221.91 196.41 222.13 201.99 C 246.73 209.78 270.03 221.04 294.33 229.68 C 295.89 230.17 297.46 229.40 298.94 228.97 C 303.21 227.32 307.47 225.53 312.00 224.71 C 313.60 224.56 315.02 225.57 316.52 226.00 C 314.79 229.55 312.83 232.99 311.51 236.73 C 316.79 237.20 322.22 237.15 327.19 239.28 C 326.86 244.72 320.84 246.61 317.47 250.00 C 319.68 251.98 321.83 254.02 323.83 256.22 C 319.05 259.15 313.41 260.01 308.42 262.44 C 298.22 267.25 287.33 270.71 276.11 272.08 C 268.11 273.30 260.01 272.54 251.99 272.03 C 258.27 280.54 264.24 289.26 269.61 298.38 C 277.21 308.94 283.18 320.57 290.88 331.08 C 294.01 335.88 295.86 341.38 298.48 346.46 C 300.60 349.46 304.72 349.60 308.03 350.14 C 317.53 350.83 327.27 349.79 336.19 346.33 C 343.44 343.62 350.71 340.62 356.91 335.90 C 364.08 330.44 370.34 323.66 374.66 315.71 C 378.74 308.35 383.21 300.97 385.06 292.67 C 385.47 291.11 385.23 289.50 384.92 287.96 C 385.17 288.08 385.66 288.32 385.91 288.43 C 386.43 289.09 386.94 289.77 387.44 290.45 C 386.60 297.19 383.94 303.47 380.74 309.41 C 380.45 309.92 379.88 310.95 379.59 311.47 C 375.48 318.59 371.46 325.98 365.39 331.66 C 355.87 340.72 343.90 346.92 331.27 350.39 C 324.43 352.10 317.25 352.85 310.23 351.84 C 306.93 351.35 303.58 351.43 300.27 351.70 C 305.29 364.15 307.08 377.53 307.72 390.86 C 317.59 389.38 327.32 386.66 336.45 382.60 C 350.37 375.84 362.33 365.40 371.97 353.37 C 376.39 347.47 381.25 341.82 384.93 335.41 C 386.41 332.48 387.67 329.46 389.06 326.49 C 392.11 320.86 393.84 314.60 394.25 308.22 C 394.73 302.23 394.36 296.21 395.02 290.24 L 395.95 290.00 C 395.75 298.53 396.44 307.11 395.34 315.60 C 392.74 328.61 388.83 341.56 382.07 353.06 C 371.92 367.89 359.82 382.06 343.98 391.02 C 337.17 394.39 330.12 397.31 323.02 400.00 C 318.36 401.96 312.55 401.23 308.61 404.69 C 306.53 408.72 309.09 413.20 309.94 417.26 C 308.45 415.83 306.65 414.35 306.85 412.05 C 306.58 404.01 306.04 395.99 305.47 387.97 C 304.90 374.75 301.63 361.79 297.38 349.32 C 296.64 347.35 295.85 345.40 294.94 343.51 C 291.46 337.24 287.83 331.05 283.97 325.01 C 279.34 317.34 274.94 309.52 269.95 302.08 C 265.72 295.26 261.66 288.33 256.82 281.91 C 253.71 277.91 251.84 271.75 246.30 270.62 C 240.39 269.06 234.69 266.64 228.59 265.83 C 227.26 264.33 225.86 262.89 224.55 261.37 C 228.18 262.68 231.75 264.14 235.42 265.32 C 256.04 273.31 279.36 271.63 299.78 263.85 C 304.71 262.11 308.94 258.65 314.20 257.78 C 316.68 257.25 319.13 256.63 321.57 255.94 C 319.95 254.45 318.30 252.99 316.63 251.56 C 316.26 250.73 315.91 249.90 315.56 249.08 C 318.14 246.69 320.84 244.44 323.58 242.23 C 324.14 241.75 325.28 240.78 325.85 240.30 C 322.38 239.29 318.76 238.63 315.14 238.91 C 312.96 239.03 310.80 239.26 308.65 239.53 C 310.38 236.15 311.88 232.65 313.22 229.09 C 313.43 228.53 313.84 227.41 314.05 226.84 C 308.78 227.18 303.64 228.54 298.88 230.83 C 294.65 233.16 290.23 230.06 286.17 228.83 C 273.35 224.38 261.42 217.77 248.55 213.49 C 241.51 210.82 234.61 207.72 227.38 205.54 C 223.23 204.42 218.91 203.47 215.39 200.85 C 216.89 200.78 218.40 200.75 219.90 200.72 C 221.06 188.61 227.33 177.87 231.74 166.76 C 233.94 160.82 235.74 154.74 237.51 148.66 M 384.15 339.15 C 381.64 342.64 379.41 346.34 376.73 349.72 C 373.41 354.64 369.17 358.82 365.50 363.46 C 356.74 371.19 347.69 378.75 337.22 384.08 C 327.84 388.27 317.82 390.61 307.85 392.87 C 307.88 395.69 307.97 398.51 308.15 401.33 C 313.26 401.45 318.05 399.53 322.81 397.95 C 332.45 394.30 342.02 390.29 350.76 384.76 C 355.86 381.14 360.27 376.67 364.78 372.36 C 370.05 366.43 374.44 359.83 379.09 353.42 C 381.35 349.45 383.96 345.62 385.40 341.24 C 386.95 336.33 389.64 331.84 390.86 326.82 C 388.26 330.72 386.87 335.31 384.15 339.15 Z" />
</g>
<g id="#00637cff">
<path fill="#00637c" opacity="1.00" d=" M 213.83 102.34 C 215.64 103.15 217.46 103.95 219.30 104.69 C 220.25 109.12 220.55 113.66 220.22 118.19 C 217.98 116.76 215.76 115.30 213.55 113.81 C 213.74 109.99 213.70 106.16 213.83 102.34 Z" />
<path fill="#00637c" opacity="1.00" d=" M 92.83 126.91 C 94.61 125.69 96.38 124.46 98.16 123.25 C 98.76 127.96 98.88 132.71 98.86 137.45 C 95.30 136.89 91.93 135.65 88.74 134.01 C 89.37 131.50 89.93 128.94 89.89 126.33 C 90.87 126.52 91.85 126.72 92.83 126.91 Z" />
</g>
<g id="#016883ff">
<path fill="#016883" opacity="1.00" d=" M 83.78 121.06 C 84.47 114.99 81.23 107.79 86.11 102.82 C 86.33 103.36 86.76 104.44 86.97 104.98 C 87.11 110.27 86.35 115.70 87.99 120.84 C 87.10 120.32 86.21 119.79 85.33 119.26 C 84.94 119.71 84.16 120.61 83.78 121.06 Z" />
</g>
<g id="#151a1cff">
<path fill="#151a1c" opacity="1.00" d=" M 86.97 104.98 C 88.11 108.14 88.66 111.60 90.63 114.39 C 92.33 116.62 95.44 116.58 97.90 117.30 C 97.99 119.28 98.07 121.27 98.16 123.25 C 96.38 124.46 94.61 125.69 92.83 126.91 C 91.85 126.72 90.87 126.52 89.89 126.33 C 89.29 124.49 88.59 122.69 87.99 120.84 C 86.35 115.70 87.11 110.27 86.97 104.98 Z" />
</g>
<g id="#00647cff">
<path fill="#00647c" opacity="1.00" d=" M 193.74 125.12 C 192.95 120.16 194.14 115.17 197.00 111.06 C 198.56 114.00 199.93 117.03 201.25 120.08 L 200.73 120.85 C 197.64 124.90 197.63 130.08 198.61 134.86 C 195.44 132.63 194.47 128.70 193.74 125.12 Z" />
</g>
<g id="#d6d5d5ff">
<path fill="#d6d5d5" opacity="1.00" d=" M 221.91 116.57 C 222.05 115.28 222.26 114.00 222.55 112.73 C 223.20 115.82 223.86 118.91 224.20 122.05 C 223.52 121.08 222.86 120.10 222.21 119.11 C 222.13 118.48 221.98 117.20 221.91 116.57 Z" />
</g>
<g id="#337084ff">
<path fill="#337084" opacity="1.00" d=" M 213.55 113.81 C 215.76 115.30 217.98 116.76 220.22 118.19 L 220.93 118.64 C 220.93 120.65 221.23 122.69 220.81 124.68 C 219.42 126.84 216.73 127.40 214.50 128.29 C 212.63 126.97 210.76 125.64 208.75 124.54 C 206.11 123.24 203.39 122.10 200.73 120.85 L 201.25 120.08 C 204.15 120.42 206.98 121.23 209.90 121.44 C 212.14 119.56 212.86 116.53 213.55 113.81 Z" />
</g>
<g id="#7196a4ff">
<path fill="#7196a4" opacity="1.00" d=" M 85.33 119.26 C 86.21 119.79 87.10 120.32 87.99 120.84 C 88.59 122.69 89.29 124.49 89.89 126.33 C 89.93 128.94 89.37 131.50 88.74 134.01 C 84.76 130.90 84.49 125.64 83.78 121.06 C 84.16 120.61 84.94 119.71 85.33 119.26 Z" />
</g>
<g id="#57899bff">
<path fill="#57899b" opacity="1.00" d=" M 200.73 120.85 C 203.39 122.10 206.11 123.24 208.75 124.54 C 208.59 126.79 208.41 129.03 208.23 131.28 C 205.08 132.61 201.87 133.82 198.61 134.86 C 197.63 130.08 197.64 124.90 200.73 120.85 Z" />
</g>
<g id="#09647cff">
<path fill="#09647c" opacity="1.00" d=" M 208.75 124.54 C 210.76 125.64 212.63 126.97 214.50 128.29 C 212.40 129.27 210.31 130.26 208.23 131.28 C 208.41 129.03 208.59 126.79 208.75 124.54 Z" />
</g>
<g id="#ebbd9dff">
<path fill="#ebbd9d" opacity="1.00" d=" M 120.38 155.90 C 120.88 152.09 121.86 148.18 124.97 145.64 C 126.17 150.40 126.20 155.34 125.64 160.19 C 125.34 159.95 124.76 159.48 124.46 159.25 C 123.08 158.16 121.73 157.03 120.38 155.90 Z" />
</g>
<g id="#010101ff">
<path fill="#010101" opacity="1.00" d=" M 212.67 155.65 C 216.62 154.00 218.91 150.29 221.35 147.01 C 220.70 149.54 219.95 152.15 218.11 154.10 C 213.75 158.58 212.44 164.94 208.95 170.01 C 204.22 176.80 199.45 183.66 193.54 189.49 C 184.26 198.25 171.16 202.28 158.55 201.64 C 149.29 201.16 140.80 197.07 132.54 193.24 C 124.61 188.85 117.13 183.67 110.39 177.59 C 107.77 174.76 103.48 175.68 100.51 173.57 C 97.67 170.84 96.41 166.97 94.07 163.87 C 91.88 161.93 89.11 160.81 86.79 159.04 C 84.73 157.75 84.18 155.23 83.11 153.21 C 83.42 151.78 83.71 150.35 84.00 148.92 C 84.53 152.96 86.14 157.11 89.98 159.05 C 100.11 164.78 110.85 169.41 121.81 173.28 C 129.33 176.04 137.56 176.09 145.32 174.37 C 156.31 172.76 167.07 169.84 177.50 166.08 C 178.89 165.77 180.28 165.48 181.67 165.18 C 192.11 162.41 202.87 160.32 212.67 155.65 M 203.28 161.40 C 201.52 161.90 199.76 162.38 198.00 162.88 C 199.71 164.83 201.52 166.68 203.45 168.42 L 203.46 169.17 C 204.65 169.28 205.84 169.39 207.04 169.49 C 208.76 166.24 209.87 162.71 210.00 159.01 C 207.71 159.68 205.47 160.48 203.28 161.40 M 211.19 159.35 C 209.80 160.20 211.18 162.64 212.56 161.49 C 213.95 160.63 212.57 158.22 211.19 159.35 M 172.85 169.84 C 158.28 174.11 143.21 177.70 127.91 176.62 C 121.09 175.60 114.86 172.44 108.14 171.04 C 110.21 176.59 115.39 179.71 119.79 183.23 C 123.12 186.32 127.93 187.43 130.86 190.95 C 131.42 191.16 132.53 191.57 133.09 191.78 C 133.41 191.47 134.05 190.84 134.37 190.53 C 136.00 192.43 138.04 193.90 140.31 194.96 C 147.47 198.04 155.21 199.64 162.99 199.93 C 173.28 199.70 183.69 195.98 191.20 188.81 C 191.42 186.22 191.16 183.61 191.34 181.01 L 192.08 180.93 C 192.16 182.45 192.17 183.99 192.46 185.49 C 193.47 185.73 194.49 185.91 195.52 186.03 C 195.85 185.22 196.51 183.61 196.84 182.81 C 196.34 182.26 195.34 181.17 194.84 180.62 C 199.90 180.99 202.78 176.14 204.83 172.27 C 201.49 169.77 198.46 166.86 196.05 163.45 C 188.37 165.78 180.47 167.32 172.85 169.84 M 96.75 164.79 C 98.29 168.39 100.51 171.89 104.07 173.77 C 105.37 172.72 106.50 171.48 107.77 170.39 C 104.14 168.43 100.80 165.83 96.75 164.79 Z" />
<path fill="#010101" opacity="1.00" d=" M 155.76 155.73 C 156.29 155.61 157.35 155.38 157.88 155.26 C 157.79 156.30 157.71 157.33 157.62 158.37 C 156.86 158.52 155.33 158.84 154.56 158.99 C 154.96 157.90 155.36 156.82 155.76 155.73 Z" />
</g>
<g id="#7f3535fd">
<path fill="#7f3535" opacity="1.00" d=" M 392.10 146.48 C 393.96 149.07 395.25 152.00 396.30 155.00 C 397.26 154.66 398.23 154.32 399.20 153.98 C 400.55 156.73 401.71 159.57 402.65 162.49 C 403.64 161.29 404.65 160.10 405.69 158.93 C 406.70 166.23 406.26 173.63 407.25 180.93 C 407.36 185.01 408.33 189.07 407.94 193.15 C 405.98 187.45 405.60 181.40 405.03 175.45 C 404.96 174.64 404.81 173.04 404.74 172.23 C 404.56 169.71 404.43 167.18 404.28 164.66 C 403.26 164.99 402.24 165.32 401.23 165.65 C 400.60 163.65 399.98 161.66 399.28 159.69 C 399.14 159.31 398.86 158.56 398.72 158.18 C 395.50 157.23 393.60 154.51 392.07 151.71 C 390.42 158.98 388.94 166.29 387.76 173.65 C 386.67 179.15 386.20 184.74 385.72 190.32 C 385.50 191.96 385.21 193.59 384.92 195.22 C 383.91 194.19 382.91 193.15 381.97 192.06 C 380.91 188.79 380.17 185.43 379.28 182.11 C 377.92 180.60 376.46 179.20 375.03 177.78 C 373.83 182.04 373.23 186.42 372.62 190.80 C 372.32 192.63 371.99 194.47 371.66 196.30 C 370.04 194.77 368.47 193.19 366.87 191.65 C 366.55 196.17 366.36 200.70 366.47 205.24 C 366.51 210.16 366.87 215.09 366.72 220.02 C 365.50 223.35 364.29 226.68 362.85 229.92 C 358.72 236.51 351.61 242.40 352.17 250.87 C 353.34 260.13 365.07 262.32 367.47 270.89 C 368.31 274.57 369.19 278.44 371.91 281.24 C 373.49 282.41 375.17 283.44 376.92 284.33 C 377.52 284.61 378.74 285.17 379.34 285.45 C 380.98 286.16 382.61 286.87 384.23 287.63 L 384.92 287.96 C 379.38 287.02 373.79 285.14 369.29 281.69 C 365.07 278.31 367.63 271.79 363.87 268.10 C 359.44 263.16 352.13 260.66 349.90 253.86 C 349.00 248.61 351.70 243.60 354.29 239.24 C 357.98 233.82 362.75 228.80 364.17 222.19 C 365.57 215.20 364.24 208.05 364.92 201.00 C 365.44 195.88 365.19 190.73 365.59 185.60 C 366.99 187.57 368.36 189.55 369.74 191.54 C 372.38 185.09 373.12 177.94 376.27 171.62 C 376.95 173.52 377.50 175.46 377.97 177.43 C 378.58 177.76 379.78 178.42 380.38 178.75 C 381.99 182.44 381.82 186.66 383.58 190.33 C 386.63 175.77 387.63 160.73 392.10 146.48 Z" />
<path fill="#7f3535" opacity="1.00" d=" M 408.13 193.93 C 409.39 197.39 410.62 201.01 413.38 203.62 C 417.03 208.03 422.92 210.59 425.08 216.15 C 424.74 225.78 414.98 232.66 415.71 242.49 C 419.06 239.34 421.25 235.04 425.26 232.57 C 424.87 236.17 423.52 239.55 422.41 242.96 C 424.17 242.20 425.93 241.41 427.74 240.77 C 428.08 245.86 425.49 250.39 424.08 255.13 C 422.44 260.44 419.46 265.21 417.83 270.52 C 416.82 273.95 418.53 277.32 418.77 280.73 C 418.21 282.31 416.99 283.69 415.44 284.35 C 409.16 286.90 402.61 288.75 395.95 290.00 L 395.02 290.24 C 394.36 296.21 394.73 302.23 394.25 308.22 C 394.58 302.25 394.28 296.27 394.12 290.31 C 391.89 290.39 389.67 290.43 387.44 290.45 C 386.94 289.77 386.43 289.09 385.91 288.43 C 387.93 288.63 389.96 288.80 392.00 288.78 C 400.73 288.97 408.84 285.30 416.67 281.88 C 416.27 278.06 415.69 274.13 416.56 270.33 C 417.32 267.13 418.80 264.16 419.98 261.11 C 422.23 255.17 424.20 249.13 426.02 243.05 C 424.27 244.08 422.52 245.11 420.81 246.19 C 421.30 242.98 421.92 239.79 422.47 236.58 C 420.33 239.21 418.56 242.10 417.08 245.14 C 416.18 246.37 415.17 247.54 414.01 248.54 C 413.74 247.07 413.47 245.62 413.27 244.15 C 413.75 239.44 415.48 234.98 417.48 230.73 C 419.04 227.50 421.12 224.48 422.11 221.00 C 422.67 219.12 422.69 217.09 421.75 215.34 C 418.99 209.94 412.95 207.33 409.79 202.23 C 408.26 199.75 408.47 196.71 408.13 193.93 Z" />
</g>
<g id="#e58254ff">
<path fill="#e58254" opacity="1.00" d=" M 387.76 173.65 C 388.94 166.29 390.42 158.98 392.07 151.71 C 393.60 154.51 395.50 157.23 398.72 158.18 C 398.86 158.56 399.14 159.31 399.28 159.69 C 394.56 164.34 390.99 169.92 388.12 175.86 C 388.03 175.31 387.85 174.20 387.76 173.65 Z" />
</g>
<g id="#bac0d7ff">
<path fill="#bac0d7" opacity="1.00" d=" M 203.28 161.40 C 205.47 160.48 207.71 159.68 210.00 159.01 C 209.87 162.71 208.76 166.24 207.04 169.49 C 205.84 169.39 204.65 169.28 203.46 169.17 L 203.45 168.42 C 203.42 166.08 203.36 163.74 203.28 161.40 Z" />
</g>
<g id="#5f414eff">
<path fill="#5f414e" opacity="1.00" d=" M 211.19 159.35 C 212.57 158.22 213.95 160.63 212.56 161.49 C 211.18 162.64 209.80 160.20 211.19 159.35 Z" />
</g>
<g id="#e16a3aff">
<path fill="#e16a3a" opacity="1.00" d=" M 399.28 159.69 C 399.98 161.66 400.60 163.65 401.23 165.65 C 402.24 165.32 403.26 164.99 404.28 164.66 C 404.43 167.18 404.56 169.71 404.74 172.23 C 400.95 175.10 398.90 179.45 396.17 183.20 C 393.63 186.73 389.65 188.75 385.72 190.32 C 386.20 184.74 386.67 179.15 387.76 173.65 C 387.85 174.20 388.03 175.31 388.12 175.86 C 390.99 169.92 394.56 164.34 399.28 159.69 Z" />
</g>
<g id="#fdfdfeff">
<path fill="#fdfdfe" opacity="1.00" d=" M 198.00 162.88 C 199.76 162.38 201.52 161.90 203.28 161.40 C 203.36 163.74 203.42 166.08 203.45 168.42 C 201.52 166.68 199.71 164.83 198.00 162.88 Z" />
</g>
<g id="#9b6a80ff">
<path fill="#9b6a80" opacity="1.00" d=" M 172.85 169.84 C 180.47 167.32 188.37 165.78 196.05 163.45 C 198.46 166.86 201.49 169.77 204.83 172.27 C 202.78 176.14 199.90 180.99 194.84 180.62 C 193.92 180.72 193.00 180.82 192.08 180.93 L 191.34 181.01 C 191.37 180.11 191.41 179.22 191.45 178.32 C 184.50 178.30 177.45 178.13 170.66 179.86 C 159.64 182.48 147.63 185.58 140.31 194.96 C 138.04 193.90 136.00 192.43 134.37 190.53 C 134.05 190.84 133.41 191.47 133.09 191.78 C 133.45 190.59 133.24 189.54 132.47 188.61 C 131.03 187.60 130.43 189.96 130.86 190.95 C 127.93 187.43 123.12 186.32 119.79 183.23 C 122.09 180.58 124.57 177.94 127.91 176.62 C 143.21 177.70 158.28 174.11 172.85 169.84 Z" />
</g>
<g id="#d0d4e4ff">
<path fill="#d0d4e4" opacity="1.00" d=" M 96.75 164.79 C 100.80 165.83 104.14 168.43 107.77 170.39 C 106.50 171.48 105.37 172.72 104.07 173.77 C 100.51 171.89 98.29 168.39 96.75 164.79 Z" />
</g>
<g id="#c39271ff">
<path fill="#c39271" opacity="1.00" d=" M 156.27 169.26 C 163.31 167.95 170.25 165.60 177.50 166.08 C 167.07 169.84 156.31 172.76 145.32 174.37 C 137.56 176.09 129.33 176.04 121.81 173.28 C 126.19 172.88 130.58 172.61 134.97 172.53 C 142.19 172.39 149.22 170.62 156.27 169.26 Z" />
</g>
<g id="#816874ff">
<path fill="#816874" opacity="1.00" d=" M 108.14 171.04 C 114.86 172.44 121.09 175.60 127.91 176.62 C 124.57 177.94 122.09 180.58 119.79 183.23 C 115.39 179.71 110.21 176.59 108.14 171.04 Z" />
</g>
<g id="#e38564ff">
<path fill="#e38564" opacity="1.00" d=" M 396.17 183.20 C 398.90 179.45 400.95 175.10 404.74 172.23 C 404.81 173.04 404.96 174.64 405.03 175.45 C 400.21 180.90 397.16 187.77 391.58 192.57 C 388.51 195.12 385.97 198.76 386.89 202.97 C 386.72 206.74 390.21 208.67 392.85 210.58 C 392.28 214.09 391.76 217.62 391.06 221.11 C 388.87 227.89 385.11 235.20 387.63 242.40 C 388.24 244.82 390.97 244.41 392.89 244.57 C 392.46 245.50 392.01 246.41 391.52 247.31 C 389.92 249.45 388.10 251.41 386.35 253.41 C 383.47 256.53 381.72 260.43 379.85 264.19 C 379.34 260.71 378.82 257.12 379.70 253.66 C 380.49 249.78 382.44 246.15 382.58 242.16 C 382.01 240.35 380.80 238.85 379.88 237.22 C 385.25 230.01 391.33 220.87 387.42 211.58 C 385.65 212.68 383.71 213.58 382.25 215.09 C 381.03 217.18 380.54 219.58 379.84 221.86 C 378.66 221.01 377.48 220.16 376.31 219.31 C 374.86 223.57 371.95 227.11 367.85 229.05 C 367.89 228.31 367.98 226.82 368.02 226.07 C 366.26 227.30 364.50 228.54 362.85 229.92 C 364.29 226.68 365.50 223.35 366.72 220.02 C 368.61 216.22 371.45 213.06 374.35 210.01 C 376.36 206.79 376.18 202.87 376.31 199.22 C 377.38 200.30 378.46 201.38 379.56 202.46 C 380.71 199.09 381.74 195.64 381.97 192.06 C 382.91 193.15 383.91 194.19 384.92 195.22 C 385.21 193.59 385.50 191.96 385.72 190.32 C 389.65 188.75 393.63 186.73 396.17 183.20 Z" />
</g>
<g id="#e3743fff">
<path fill="#e3743f" opacity="1.00" d=" M 391.58 192.57 C 397.16 187.77 400.21 180.90 405.03 175.45 C 405.60 181.40 405.98 187.45 407.94 193.15 L 408.13 193.93 C 408.47 196.71 408.26 199.75 409.79 202.23 C 412.95 207.33 418.99 209.94 421.75 215.34 C 422.69 217.09 422.67 219.12 422.11 221.00 C 422.13 220.37 422.17 219.12 422.18 218.49 C 421.08 218.86 420.21 219.70 419.19 220.25 C 418.73 219.34 418.26 218.44 417.81 217.54 C 416.36 219.10 414.92 220.67 413.42 222.18 C 412.79 220.75 412.14 219.32 411.42 217.94 C 408.52 213.22 406.83 207.90 404.00 203.15 C 402.27 200.24 401.09 197.04 400.11 193.81 C 399.54 198.09 399.12 202.39 399.20 206.71 C 397.22 211.90 394.14 216.53 391.06 221.11 C 391.76 217.62 392.28 214.09 392.85 210.58 C 390.21 208.67 386.72 206.74 386.89 202.97 C 385.97 198.76 388.51 195.12 391.58 192.57 Z" />
</g>
<g id="#c9b5bfff">
<path fill="#c9b5bf" opacity="1.00" d=" M 170.66 179.86 C 177.45 178.13 184.50 178.30 191.45 178.32 C 191.41 179.22 191.37 180.11 191.34 181.01 C 191.16 183.61 191.42 186.22 191.20 188.81 C 183.69 195.98 173.28 199.70 162.99 199.93 C 155.21 199.64 147.47 198.04 140.31 194.96 C 147.63 185.58 159.64 182.48 170.66 179.86 Z" />
</g>
<g id="#fce490ff">
<path fill="#fce490" opacity="1.00" d=" M 375.03 177.78 C 376.46 179.20 377.92 180.60 379.28 182.11 C 377.10 185.45 375.59 189.16 374.07 192.83 C 373.58 192.15 373.09 191.47 372.62 190.80 C 373.23 186.42 373.83 182.04 375.03 177.78 Z" />
</g>
<g id="#dbdff3ff">
<path fill="#dbdff3" opacity="1.00" d=" M 192.08 180.93 C 193.00 180.82 193.92 180.72 194.84 180.62 C 195.34 181.17 196.34 182.26 196.84 182.81 C 196.51 183.61 195.85 185.22 195.52 186.03 C 194.49 185.91 193.47 185.73 192.46 185.49 C 192.17 183.99 192.16 182.45 192.08 180.93 Z" />
</g>
<g id="#fbda65ff">
<path fill="#fbda65" opacity="1.00" d=" M 379.28 182.11 C 380.17 185.43 380.91 188.79 381.97 192.06 C 381.74 195.64 380.71 199.09 379.56 202.46 C 378.46 201.38 377.38 200.30 376.31 199.22 C 376.18 202.87 376.36 206.79 374.35 210.01 C 373.98 207.38 373.60 204.75 373.19 202.12 C 372.10 203.31 371.01 204.50 369.93 205.70 C 368.77 205.54 367.62 205.39 366.47 205.24 C 366.36 200.70 366.55 196.17 366.87 191.65 C 368.47 193.19 370.04 194.77 371.66 196.30 C 371.99 194.47 372.32 192.63 372.62 190.80 C 373.09 191.47 373.58 192.15 374.07 192.83 C 375.59 189.16 377.10 185.45 379.28 182.11 Z" />
<path fill="#fbda65" opacity="1.00" d=" M 362.85 229.92 C 364.50 228.54 366.26 227.30 368.02 226.07 C 367.98 226.82 367.89 228.31 367.85 229.05 C 366.68 234.08 364.79 238.90 362.89 243.69 C 365.84 241.24 369.46 239.84 372.53 237.59 C 374.67 235.09 375.78 231.91 377.17 228.96 C 377.84 231.78 378.57 234.61 379.88 237.22 C 380.80 238.85 382.01 240.35 382.58 242.16 C 382.44 246.15 380.49 249.78 379.70 253.66 C 378.82 257.12 379.34 260.71 379.85 264.19 C 381.72 260.43 383.47 256.53 386.35 253.41 C 386.08 258.57 386.20 264.00 383.78 268.72 C 381.28 273.83 379.02 279.05 376.92 284.33 C 375.17 283.44 373.49 282.41 371.91 281.24 C 374.48 276.51 375.99 271.28 376.29 265.90 C 373.20 267.29 370.25 268.96 367.47 270.89 C 365.07 262.32 353.34 260.13 352.17 250.87 C 351.61 242.40 358.72 236.51 362.85 229.92 Z" />
<path fill="#fbda65" opacity="1.00" d=" M 392.89 244.57 C 394.11 241.66 395.30 238.74 396.60 235.87 C 397.75 237.79 398.91 239.71 400.10 241.61 C 399.69 243.90 399.50 246.23 399.31 248.55 C 401.37 248.16 403.43 247.76 405.49 247.36 C 405.96 248.90 406.42 250.46 406.97 251.99 C 406.53 251.75 405.66 251.27 405.23 251.03 C 404.70 252.23 404.17 253.44 403.67 254.66 C 402.03 258.07 400.46 261.52 398.83 264.94 C 396.82 269.18 393.90 272.91 391.98 277.20 C 387.64 279.08 386.13 283.72 384.23 287.63 C 382.61 286.87 380.98 286.16 379.34 285.45 C 381.85 279.28 385.48 273.58 387.20 267.09 C 388.18 263.15 390.45 259.76 392.44 256.29 C 394.02 253.67 394.20 250.56 394.55 247.60 C 393.79 247.53 392.28 247.38 391.52 247.31 C 392.01 246.41 392.46 245.50 392.89 244.57 Z" />
</g>
<g id="#ced0e1ff">
<path fill="#ced0e1" opacity="1.00" d=" M 130.86 190.95 C 130.43 189.96 131.03 187.60 132.47 188.61 C 133.24 189.54 133.45 190.59 133.09 191.78 C 132.53 191.57 131.42 191.16 130.86 190.95 Z" />
</g>
<g id="#fad866ff">
<path fill="#fad866" opacity="1.00" d=" M 399.20 206.71 C 399.12 202.39 399.54 198.09 400.11 193.81 C 401.09 197.04 402.27 200.24 404.00 203.15 C 406.83 207.90 408.52 213.22 411.42 217.94 C 406.00 225.02 404.37 233.93 400.10 241.61 C 401.03 235.43 402.01 229.20 401.69 222.93 C 401.61 217.43 400.17 212.09 399.20 206.71 Z" />
</g>
<g id="#e4793fff">
<path fill="#e4793f" opacity="1.00" d=" M 369.93 205.70 C 371.01 204.50 372.10 203.31 373.19 202.12 C 373.60 204.75 373.98 207.38 374.35 210.01 C 371.45 213.06 368.61 216.22 366.72 220.02 C 366.87 215.09 366.51 210.16 366.47 205.24 C 367.62 205.39 368.77 205.54 369.93 205.70 Z" />
</g>
<g id="#eaab7dff">
<path fill="#eaab7d" opacity="1.00" d=" M 210.34 225.26 C 217.31 220.01 223.74 213.60 227.38 205.54 C 234.61 207.72 241.51 210.82 248.55 213.49 C 261.42 217.77 273.35 224.38 286.17 228.83 C 290.23 230.06 294.65 233.16 298.88 230.83 C 303.64 228.54 308.78 227.18 314.05 226.84 C 313.84 227.41 313.43 228.53 313.22 229.09 C 306.81 231.50 301.79 236.29 296.92 240.93 C 294.46 243.29 292.57 246.14 290.80 249.04 C 289.77 248.67 288.73 248.33 287.69 248.01 C 290.69 251.06 293.95 253.84 296.73 257.10 C 292.14 256.83 287.53 257.08 282.93 256.98 C 281.67 258.28 280.93 259.98 280.55 261.73 C 274.12 263.14 267.64 264.45 261.05 264.68 C 252.51 265.31 243.92 264.04 235.42 265.32 C 231.75 264.14 228.18 262.68 224.55 261.37 C 225.86 262.89 227.26 264.33 228.59 265.83 C 231.43 272.52 237.52 276.95 243.68 280.38 C 247.69 282.61 252.40 282.79 256.82 281.91 C 261.66 288.33 265.72 295.26 269.95 302.08 C 274.94 309.52 279.34 317.34 283.97 325.01 C 287.83 331.05 291.46 337.24 294.94 343.51 C 291.88 350.54 291.94 358.53 288.33 365.36 C 282.71 377.34 269.39 386.14 255.94 384.36 C 246.99 384.33 238.36 381.74 229.48 381.08 C 227.20 376.00 227.08 370.39 227.15 364.93 C 230.46 367.02 234.00 370.79 238.28 369.32 C 244.35 367.33 248.68 362.15 251.88 356.85 C 255.16 351.48 256.12 344.67 254.27 338.65 C 253.06 334.89 248.25 332.97 244.77 334.79 C 240.64 336.92 237.27 340.61 232.47 341.29 C 234.89 335.35 238.49 330.06 242.47 325.07 C 240.98 326.03 239.54 327.05 238.10 328.06 C 235.93 312.69 232.42 297.49 227.16 282.86 C 219.92 263.80 207.75 247.15 194.74 231.63 C 200.40 230.92 205.81 228.75 210.34 225.26 Z" />
</g>
<g id="#df5c3bff">
<path fill="#df5c3b" opacity="1.00" d=" M 391.06 221.11 C 394.14 216.53 397.22 211.90 399.20 206.71 C 400.17 212.09 401.61 217.43 401.69 222.93 C 402.01 229.20 401.03 235.43 400.10 241.61 C 398.91 239.71 397.75 237.79 396.60 235.87 C 395.30 238.74 394.11 241.66 392.89 244.57 C 390.97 244.41 388.24 244.82 387.63 242.40 C 385.11 235.20 388.87 227.89 391.06 221.11 Z" />
</g>
<g id="#e9ab7dff">
<path fill="#e9ab7d" opacity="1.00" d=" M 109.65 221.55 C 117.47 218.47 125.35 215.44 132.76 211.47 C 135.47 214.99 137.95 218.75 141.23 221.79 C 143.98 224.35 147.59 225.65 151.03 227.01 C 147.44 230.54 144.94 234.95 142.00 239.00 C 137.86 244.70 135.90 251.56 132.59 257.71 C 132.93 254.16 133.17 250.56 134.07 247.09 C 136.80 238.49 137.67 229.44 138.27 220.48 C 136.89 223.35 136.12 226.45 135.62 229.59 C 134.02 240.07 131.63 250.40 129.83 260.85 C 124.94 260.49 120.08 261.26 115.30 262.19 C 106.40 263.86 97.21 263.24 88.37 265.28 C 85.21 265.90 82.79 268.13 80.61 270.35 C 78.22 270.45 75.84 270.74 73.48 271.18 C 72.14 268.45 70.17 266.12 68.06 263.96 C 63.13 256.40 55.38 251.64 48.14 246.59 C 52.86 244.80 57.87 243.90 62.92 243.73 C 61.41 241.57 60.07 239.30 59.05 236.88 C 61.92 237.20 64.73 237.85 67.49 238.65 C 68.66 237.49 69.74 236.23 71.03 235.20 C 72.70 235.33 74.21 236.25 75.88 236.34 C 79.66 235.67 83.06 233.75 86.59 232.34 C 94.45 229.13 102.12 225.47 109.65 221.55 Z" />
</g>
<g id="#e3753eff">
<path fill="#e3753e" opacity="1.00" d=" M 382.25 215.09 C 383.71 213.58 385.65 212.68 387.42 211.58 C 391.33 220.87 385.25 230.01 379.88 237.22 C 378.57 234.61 377.84 231.78 377.17 228.96 C 375.78 231.91 374.67 235.09 372.53 237.59 C 369.46 239.84 365.84 241.24 362.89 243.69 C 364.79 238.90 366.68 234.08 367.85 229.05 C 371.95 227.11 374.86 223.57 376.31 219.31 C 377.48 220.16 378.66 221.01 379.84 221.86 C 380.54 219.58 381.03 217.18 382.25 215.09 Z" />
</g>
<g id="#fad764ff">
<path fill="#fad764" opacity="1.00" d=" M 413.42 222.18 C 414.92 220.67 416.36 219.10 417.81 217.54 C 418.26 218.44 418.73 219.34 419.19 220.25 C 420.21 219.70 421.08 218.86 422.18 218.49 C 422.17 219.12 422.13 220.37 422.11 221.00 C 421.12 224.48 419.04 227.50 417.48 230.73 C 415.74 230.58 413.99 230.38 412.27 230.10 C 412.53 227.45 412.60 224.75 413.42 222.18 Z" />
</g>
<g id="#e6d7bfff">
<path fill="#e6d7bf" opacity="1.00" d=" M 163.91 218.73 C 166.94 218.02 170.06 218.07 173.11 218.61 C 172.40 219.49 171.70 220.38 171.00 221.27 C 172.95 224.74 174.52 228.72 177.83 231.14 C 181.79 233.68 186.54 231.66 190.50 230.21 C 191.50 231.17 192.49 232.13 193.48 233.11 C 189.87 234.78 185.90 235.13 181.98 235.02 C 177.29 234.82 172.75 237.44 168.08 236.04 C 162.43 234.56 155.80 233.14 152.90 227.42 L 152.35 226.64 L 153.35 227.01 C 160.12 229.71 166.97 232.62 174.39 232.81 C 171.99 227.37 167.99 222.95 163.91 218.73 Z" />
</g>
<g id="#fbe19aff">
<path fill="#fbe19a" opacity="1.00" d=" M 400.10 241.61 C 404.37 233.93 406.00 225.02 411.42 217.94 C 412.14 219.32 412.79 220.75 413.42 222.18 C 412.60 224.75 412.53 227.45 412.27 230.10 C 413.99 230.38 415.74 230.58 417.48 230.73 C 415.48 234.98 413.75 239.44 413.27 244.15 C 411.68 244.32 410.09 244.50 408.51 244.69 C 408.36 247.34 408.20 250.00 408.07 252.66 C 407.79 252.49 407.24 252.16 406.97 251.99 C 406.42 250.46 405.96 248.90 405.49 247.36 C 403.43 247.76 401.37 248.16 399.31 248.55 C 399.50 246.23 399.69 243.90 400.10 241.61 Z" />
</g>
<g id="#d4c4adff">
<path fill="#d4c4ad" opacity="1.00" d=" M 153.35 227.01 C 156.27 223.53 160.18 221.20 163.91 218.73 C 167.99 222.95 171.99 227.37 174.39 232.81 C 166.97 232.62 160.12 229.71 153.35 227.01 Z" />
</g>
<g id="#d7c8b3ff">
<path fill="#d7c8b3" opacity="1.00" d=" M 173.11 218.61 C 180.00 220.48 185.69 225.08 190.50 230.21 C 186.54 231.66 181.79 233.68 177.83 231.14 C 174.52 228.72 172.95 224.74 171.00 221.27 C 171.70 220.38 172.40 219.49 173.11 218.61 Z" />
</g>
<g id="#f6e9d0ff">
<path fill="#f6e9d0" opacity="1.00" d=" M 143.52 239.49 C 146.46 235.32 148.82 230.65 152.90 227.42 C 155.80 233.14 162.43 234.56 168.08 236.04 C 172.75 237.44 177.29 234.82 181.98 235.02 C 185.90 235.13 189.87 234.78 193.48 233.11 C 203.01 244.63 212.19 256.60 218.93 270.02 C 227.38 286.19 232.25 304.01 235.44 321.91 C 235.41 322.64 235.36 324.11 235.33 324.84 C 234.54 324.41 233.74 323.99 232.95 323.57 C 229.14 325.25 224.70 327.74 220.58 325.50 C 215.98 322.99 213.92 317.85 211.48 313.50 C 208.36 307.38 204.31 301.63 202.83 294.81 C 207.91 297.24 212.54 300.45 217.43 303.22 C 217.94 300.90 218.77 298.45 217.92 296.10 C 215.33 287.08 208.40 280.42 202.78 273.23 C 197.83 266.86 191.70 261.45 184.94 257.06 C 182.85 255.89 180.14 254.20 177.78 255.63 C 175.37 257.33 175.62 260.85 176.80 263.22 C 178.94 267.58 182.31 271.16 185.17 275.05 C 184.46 275.73 183.76 276.41 183.05 277.09 C 179.88 275.21 176.71 273.34 173.59 271.38 C 171.99 272.90 170.34 274.40 169.10 276.24 C 169.27 280.83 172.25 284.63 174.69 288.30 C 177.61 292.27 179.93 296.62 181.94 301.11 C 179.00 301.71 173.43 300.57 173.38 304.95 C 174.37 310.35 178.62 314.40 180.42 319.52 C 182.68 325.70 185.11 331.84 188.47 337.52 C 183.06 339.62 177.40 340.96 171.90 342.78 C 167.41 344.34 162.61 343.47 158.00 343.18 C 152.70 342.72 147.04 342.57 142.44 339.54 C 138.39 336.86 134.22 334.39 129.77 332.42 C 129.72 331.91 129.60 330.87 129.55 330.36 C 134.18 331.55 138.18 334.23 142.06 336.92 C 147.87 340.94 155.23 341.09 162.03 341.13 C 169.68 341.24 176.71 337.89 183.99 336.05 C 183.15 332.75 182.28 329.43 180.68 326.40 C 177.17 319.67 174.06 312.65 169.36 306.63 C 161.87 297.20 153.86 287.87 143.56 281.39 C 139.10 278.09 133.18 281.34 128.51 278.43 C 129.01 269.30 133.36 261.17 136.88 252.93 C 138.94 248.37 140.80 243.71 143.52 239.49 Z" />
</g>
<g id="#bb8b6bff">
<path fill="#bb8b6b" opacity="1.00" d=" M 296.92 240.93 C 301.79 236.29 306.81 231.50 313.22 229.09 C 311.88 232.65 310.38 236.15 308.65 239.53 C 310.80 239.26 312.96 239.03 315.14 238.91 C 313.64 239.55 312.17 240.26 310.71 240.98 C 315.00 241.39 319.29 241.72 323.58 242.23 C 320.84 244.44 318.14 246.69 315.56 249.08 C 315.91 249.90 316.26 250.73 316.63 251.56 C 315.56 252.45 314.50 253.33 313.44 254.22 C 313.69 255.41 313.94 256.59 314.20 257.78 C 308.94 258.65 304.71 262.11 299.78 263.85 C 279.36 271.63 256.04 273.31 235.42 265.32 C 243.92 264.04 252.51 265.31 261.05 264.68 C 267.64 264.45 274.12 263.14 280.55 261.73 C 280.93 259.98 281.67 258.28 282.93 256.98 C 287.53 257.08 292.14 256.83 296.73 257.10 C 297.03 257.43 297.63 258.07 297.93 258.40 C 293.07 259.67 288.09 259.03 283.21 258.39 C 287.52 262.51 294.25 261.38 299.43 259.75 C 297.81 255.33 294.69 251.65 290.80 249.04 C 292.57 246.14 294.46 243.29 296.92 240.93 Z" />
</g>
<g id="#fde89eff">
<path fill="#fde89e" opacity="1.00" d=" M 417.08 245.14 C 418.56 242.10 420.33 239.21 422.47 236.58 C 421.92 239.79 421.30 242.98 420.81 246.19 C 420.04 247.49 419.26 248.78 418.48 250.06 C 418.02 248.99 417.58 247.92 417.17 246.84 C 417.15 246.42 417.11 245.57 417.08 245.14 Z" />
</g>
<g id="#ebac7eff">
<path fill="#ebac7e" opacity="1.00" d=" M 315.14 238.91 C 318.76 238.63 322.38 239.29 325.85 240.30 C 325.28 240.78 324.14 241.75 323.58 242.23 C 319.29 241.72 315.00 241.39 310.71 240.98 C 312.17 240.26 313.64 239.55 315.14 238.91 Z" />
<path fill="#ebac7e" opacity="1.00" d=" M 387.44 290.45 C 389.67 290.43 391.89 290.39 394.12 290.31 C 394.28 296.27 394.58 302.25 394.25 308.22 C 393.84 314.60 392.11 320.86 389.06 326.49 C 388.00 322.69 387.33 318.78 385.92 315.09 C 385.00 312.58 382.66 311.08 380.74 309.41 C 383.94 303.47 386.60 297.19 387.44 290.45 Z" />
</g>
<g id="#f8d162ff">
<path fill="#f8d162" opacity="1.00" d=" M 420.81 246.19 C 422.52 245.11 424.27 244.08 426.02 243.05 C 424.20 249.13 422.23 255.17 419.98 261.11 C 419.57 261.20 418.74 261.40 418.32 261.49 C 417.64 256.63 417.29 251.74 417.17 246.84 C 417.58 247.92 418.02 248.99 418.48 250.06 C 419.26 248.78 420.04 247.49 420.81 246.19 Z" />
</g>
<g id="#eca479ff">
<path fill="#eca479" opacity="1.00" d=" M 408.07 252.66 C 408.20 250.00 408.36 247.34 408.51 244.69 C 410.09 244.50 411.68 244.32 413.27 244.15 C 413.47 245.62 413.74 247.07 414.01 248.54 C 412.68 248.99 411.33 249.38 409.99 249.79 C 409.40 256.10 405.38 260.98 401.94 265.98 C 402.88 262.27 403.20 258.45 403.67 254.66 C 404.17 253.44 404.70 252.23 405.23 251.03 C 405.66 251.27 406.53 251.75 406.97 251.99 C 407.24 252.16 407.79 252.49 408.07 252.66 Z" />
</g>
<g id="#e26f3bff">
<path fill="#e26f3b" opacity="1.00" d=" M 414.01 248.54 C 415.17 247.54 416.18 246.37 417.08 245.14 C 417.11 245.57 417.15 246.42 417.17 246.84 C 417.29 251.74 417.64 256.63 418.32 261.49 C 418.74 261.40 419.57 261.20 419.98 261.11 C 418.80 264.16 417.32 267.13 416.56 270.33 C 415.69 274.13 416.27 278.06 416.67 281.88 C 408.84 285.30 400.73 288.97 392.00 288.78 C 393.25 288.33 394.48 287.83 395.70 287.29 C 399.33 284.97 400.95 280.89 402.05 276.92 C 401.01 276.62 399.98 276.33 398.95 276.03 C 399.06 275.08 399.19 274.13 399.33 273.19 C 400.16 270.77 401.04 268.37 401.94 265.98 C 405.38 260.98 409.40 256.10 409.99 249.79 C 411.33 249.38 412.68 248.99 414.01 248.54 Z" />
</g>
<g id="#fbe2a5ff">
<path fill="#fbe2a5" opacity="1.00" d=" M 391.52 247.31 C 392.28 247.38 393.79 247.53 394.55 247.60 C 394.20 250.56 394.02 253.67 392.44 256.29 C 390.45 259.76 388.18 263.15 387.20 267.09 C 385.48 273.58 381.85 279.28 379.34 285.45 C 378.74 285.17 377.52 284.61 376.92 284.33 C 379.02 279.05 381.28 273.83 383.78 268.72 C 386.20 264.00 386.08 258.57 386.35 253.41 C 388.10 251.41 389.92 249.45 391.52 247.31 Z" />
</g>
<g id="#e7a87cff">
<path fill="#e7a87c" opacity="1.00" d=" M 313.44 254.22 C 314.50 253.33 315.56 252.45 316.63 251.56 C 318.30 252.99 319.95 254.45 321.57 255.94 C 319.13 256.63 316.68 257.25 314.20 257.78 C 313.94 256.59 313.69 255.41 313.44 254.22 Z" />
</g>
<g id="#f1e3c8ff">
<path fill="#f1e3c8" opacity="1.00" d=" M 177.78 255.63 C 180.14 254.20 182.85 255.89 184.94 257.06 C 191.70 261.45 197.83 266.86 202.78 273.23 C 208.40 280.42 215.33 287.08 217.92 296.10 C 218.77 298.45 217.94 300.90 217.43 303.22 C 212.54 300.45 207.91 297.24 202.83 294.81 C 204.31 301.63 208.36 307.38 211.48 313.50 C 213.92 317.85 215.98 322.99 220.58 325.50 C 224.70 327.74 229.14 325.25 232.95 323.57 C 233.74 323.99 234.54 324.41 235.33 324.84 C 232.28 328.74 227.41 330.12 222.71 330.74 C 214.95 331.80 207.82 335.17 200.29 337.09 C 194.67 338.56 189.91 342.26 184.17 343.33 C 176.86 344.76 169.50 346.69 161.99 346.00 C 154.74 345.36 147.20 344.80 140.67 341.28 C 137.84 339.71 134.73 338.79 131.51 338.52 C 130.83 336.51 130.12 334.51 129.77 332.42 C 134.22 334.39 138.39 336.86 142.44 339.54 C 147.04 342.57 152.70 342.72 158.00 343.18 C 162.61 343.47 167.41 344.34 171.90 342.78 C 177.40 340.96 183.06 339.62 188.47 337.52 C 185.11 331.84 182.68 325.70 180.42 319.52 C 178.62 314.40 174.37 310.35 173.38 304.95 C 173.43 300.57 179.00 301.71 181.94 301.11 C 179.93 296.62 177.61 292.27 174.69 288.30 C 172.25 284.63 169.27 280.83 169.10 276.24 C 170.34 274.40 171.99 272.90 173.59 271.38 C 176.71 273.34 179.88 275.21 183.05 277.09 C 183.76 276.41 184.46 275.73 185.17 275.05 C 182.31 271.16 178.94 267.58 176.80 263.22 C 175.62 260.85 175.37 257.33 177.78 255.63 Z" />
</g>
<g id="#fbe3a6ff">
<path fill="#fbe3a6" opacity="1.00" d=" M 398.83 264.94 C 400.46 261.52 402.03 258.07 403.67 254.66 C 403.20 258.45 402.88 262.27 401.94 265.98 C 401.04 268.37 400.16 270.77 399.33 273.19 C 397.40 275.44 395.22 277.45 392.93 279.33 C 392.69 278.79 392.22 277.73 391.98 277.20 C 393.90 272.91 396.82 269.18 398.83 264.94 Z" />
</g>
<g id="#be8d6cff">
<path fill="#be8d6c" opacity="1.00" d=" M 115.30 262.19 C 120.08 261.26 124.94 260.49 129.83 260.85 C 129.43 263.10 129.03 265.36 128.59 267.61 C 121.36 270.25 113.60 270.44 105.99 270.67 C 97.53 270.74 89.06 270.86 80.61 270.35 C 82.79 268.13 85.21 265.90 88.37 265.28 C 97.21 263.24 106.40 263.86 115.30 262.19 Z" />
</g>
<g id="#eebb99ff">
<path fill="#eebb99" opacity="1.00" d=" M 68.06 263.96 C 70.17 266.12 72.14 268.45 73.48 271.18 C 70.64 271.89 67.90 272.97 65.15 273.96 C 65.96 270.58 66.85 267.22 68.06 263.96 Z" />
</g>
<g id="#b98a6bff">
<path fill="#b98a6b" opacity="1.00" d=" M 228.59 265.83 C 234.69 266.64 240.39 269.06 246.30 270.62 C 251.84 271.75 253.71 277.91 256.82 281.91 C 252.40 282.79 247.69 282.61 243.68 280.38 C 237.52 276.95 231.43 272.52 228.59 265.83 Z" />
</g>
<g id="#eda36fff">
<path fill="#eda36f" opacity="1.00" d=" M 367.47 270.89 C 370.25 268.96 373.20 267.29 376.29 265.90 C 375.99 271.28 374.48 276.51 371.91 281.24 C 369.19 278.44 368.31 274.57 367.47 270.89 Z" />
</g>
<g id="#f7ca62ff">
<path fill="#f7ca62" opacity="1.00" d=" M 392.93 279.33 C 395.22 277.45 397.40 275.44 399.33 273.19 C 399.19 274.13 399.06 275.08 398.95 276.03 C 399.98 276.33 401.01 276.62 402.05 276.92 C 400.95 280.89 399.33 284.97 395.70 287.29 C 394.98 284.56 394.16 281.86 392.93 279.33 Z" />
</g>
<g id="#faefdbff">
<path fill="#faefdb" opacity="1.00" d=" M 128.51 278.43 C 133.18 281.34 139.10 278.09 143.56 281.39 C 153.86 287.87 161.87 297.20 169.36 306.63 C 174.06 312.65 177.17 319.67 180.68 326.40 C 182.28 329.43 183.15 332.75 183.99 336.05 C 176.71 337.89 169.68 341.24 162.03 341.13 C 155.23 341.09 147.87 340.94 142.06 336.92 C 138.18 334.23 134.18 331.55 129.55 330.36 L 128.83 330.13 C 127.02 321.56 125.80 312.79 126.77 304.03 C 127.62 298.43 126.79 292.72 127.89 287.15 C 128.46 284.28 128.53 281.34 128.51 278.43 M 154.97 298.81 C 154.12 300.50 152.50 302.33 153.69 304.29 C 156.98 311.53 162.88 317.09 167.82 323.20 C 169.82 325.90 172.75 327.58 176.01 328.29 C 176.74 321.41 172.65 315.51 168.57 310.43 C 164.69 305.88 160.66 301.10 154.97 298.81 Z" />
</g>
<g id="#cca967ff">
<path fill="#cca967" opacity="1.00" d=" M 384.23 287.63 C 386.13 283.72 387.64 279.08 391.98 277.20 C 392.22 277.73 392.69 278.79 392.93 279.33 C 394.16 281.86 394.98 284.56 395.70 287.29 C 394.48 287.83 393.25 288.33 392.00 288.78 C 389.96 288.80 387.93 288.63 385.91 288.43 C 385.66 288.32 385.17 288.08 384.92 287.96 L 384.23 287.63 Z" />
</g>
<g id="#f4e5cbff">
<path fill="#f4e5cb" opacity="1.00" d=" M 154.97 298.81 C 160.66 301.10 164.69 305.88 168.57 310.43 C 172.65 315.51 176.74 321.41 176.01 328.29 C 172.75 327.58 169.82 325.90 167.82 323.20 C 162.88 317.09 156.98 311.53 153.69 304.29 C 152.50 302.33 154.12 300.50 154.97 298.81 Z" />
</g>
<g id="#cd9671ff">
<path fill="#cd9671" opacity="1.00" d=" M 379.59 311.47 C 379.88 310.95 380.45 309.92 380.74 309.41 C 382.66 311.08 385.00 312.58 385.92 315.09 C 387.33 318.78 388.00 322.69 389.06 326.49 C 387.67 329.46 386.41 332.48 384.93 335.41 C 384.44 327.26 385.47 318.03 379.59 311.47 Z" />
</g>
<g id="#b48869ff">
<path fill="#b48869" opacity="1.00" d=" M 365.39 331.66 C 371.46 325.98 375.48 318.59 379.59 311.47 C 385.47 318.03 384.44 327.26 384.93 335.41 C 381.25 341.82 376.39 347.47 371.97 353.37 C 372.05 351.14 372.45 348.84 371.89 346.64 C 370.97 344.52 369.29 342.86 367.89 341.07 C 363.44 344.33 358.95 347.57 354.07 350.18 C 357.43 345.53 362.12 342.06 365.57 337.50 C 367.22 335.78 366.05 333.52 365.39 331.66 Z" />
</g>
<g id="#dccebbff">
<path fill="#dccebb" opacity="1.00" d=" M 235.44 321.91 C 236.01 324.53 236.55 327.19 236.61 329.88 C 234.93 333.54 232.95 337.08 230.97 340.59 C 230.72 338.00 230.28 335.44 229.87 332.87 C 221.84 333.38 214.34 336.42 206.73 338.76 C 202.88 339.98 199.27 341.79 195.77 343.78 C 200.32 345.76 205.10 347.19 209.48 349.54 C 214.16 352.02 217.19 356.67 221.85 359.17 C 223.28 358.22 224.55 357.05 225.76 355.84 C 225.11 365.34 224.23 375.55 228.61 384.36 C 230.79 388.81 233.46 392.99 235.89 397.30 C 215.10 398.02 194.70 392.70 175.29 385.72 C 162.43 380.23 151.49 371.08 142.66 360.35 C 138.16 353.49 134.44 346.17 131.51 338.52 C 134.73 338.79 137.84 339.71 140.67 341.28 C 147.20 344.80 154.74 345.36 161.99 346.00 C 169.50 346.69 176.86 344.76 184.17 343.33 C 189.91 342.26 194.67 338.56 200.29 337.09 C 207.82 335.17 214.95 331.80 222.71 330.74 C 227.41 330.12 232.28 328.74 235.33 324.84 C 235.36 324.11 235.41 322.64 235.44 321.91 Z" />
</g>
<g id="#ecb18bff">
<path fill="#ecb18b" opacity="1.00" d=" M 118.92 328.88 C 121.38 327.24 123.48 325.16 125.77 323.31 C 127.59 334.01 131.41 344.28 136.52 353.84 C 133.27 357.15 130.26 360.75 126.58 363.61 C 122.80 366.53 117.48 365.80 113.63 368.59 C 109.18 371.79 105.37 376.21 99.86 377.63 C 95.92 378.68 91.72 380.15 89.90 384.17 C 89.73 380.73 89.55 377.28 89.70 373.84 C 89.92 371.97 90.27 370.13 90.51 368.27 C 91.99 370.14 93.11 373.23 95.97 373.08 C 100.13 372.96 103.49 370.08 106.42 367.43 C 109.33 364.60 112.42 361.79 114.32 358.15 C 116.18 354.89 113.70 350.11 109.95 349.86 C 106.89 349.68 103.85 350.28 100.83 350.71 C 100.40 349.95 99.97 349.20 99.54 348.45 C 104.93 340.99 111.10 333.86 118.92 328.88 Z" />
</g>
<g id="#fcf1d7ff">
<path fill="#fcf1d7" opacity="1.00" d=" M 384.15 339.15 C 386.87 335.31 388.26 330.72 390.86 326.82 C 389.64 331.84 386.95 336.33 385.40 341.24 C 383.96 345.62 381.35 349.45 379.09 353.42 C 378.30 352.18 377.51 350.95 376.73 349.72 C 379.41 346.34 381.64 342.64 384.15 339.15 Z" />
</g>
<g id="#a27a63ff">
<path fill="#a27a63" opacity="1.00" d=" M 331.27 350.39 C 343.90 346.92 355.87 340.72 365.39 331.66 C 366.05 333.52 367.22 335.78 365.57 337.50 C 362.12 342.06 357.43 345.53 354.07 350.18 C 358.95 347.57 363.44 344.33 367.89 341.07 C 369.29 342.86 370.97 344.52 371.89 346.64 C 372.45 348.84 372.05 351.14 371.97 353.37 C 362.33 365.40 350.37 375.84 336.45 382.60 C 327.32 386.66 317.59 389.38 307.72 390.86 C 307.08 377.53 305.29 364.15 300.27 351.70 C 303.58 351.43 306.93 351.35 310.23 351.84 C 317.25 352.85 324.43 352.10 331.27 350.39 Z" />
</g>
<g id="#d3c3adff">
<path fill="#d3c3ad" opacity="1.00" d=" M 206.73 338.76 C 214.34 336.42 221.84 333.38 229.87 332.87 C 230.28 335.44 230.72 338.00 230.97 340.59 C 229.32 345.70 227.20 350.65 225.76 355.84 C 224.55 357.05 223.28 358.22 221.85 359.17 C 217.19 356.67 214.16 352.02 209.48 349.54 C 205.10 347.19 200.32 345.76 195.77 343.78 C 199.27 341.79 202.88 339.98 206.73 338.76 Z" />
</g>
<g id="#edb894ff">
<path fill="#edb894" opacity="1.00" d=" M 244.77 334.79 C 248.25 332.97 253.06 334.89 254.27 338.65 C 256.12 344.67 255.16 351.48 251.88 356.85 C 248.68 362.15 244.35 367.33 238.28 369.32 C 234.00 370.79 230.46 367.02 227.15 364.93 C 226.78 356.72 228.67 348.56 232.47 341.29 C 237.27 340.61 240.64 336.92 244.77 334.79 M 243.53 338.55 C 237.25 342.99 231.84 349.47 230.13 357.12 C 229.11 361.53 232.53 368.06 237.72 366.74 C 243.02 364.85 246.41 359.88 249.28 355.31 C 251.74 350.91 254.07 345.31 251.61 340.43 C 250.27 337.44 246.12 337.41 243.53 338.55 Z" />
</g>
<g id="#efc7abff">
<path fill="#efc7ab" opacity="1.00" d=" M 243.53 338.55 C 246.12 337.41 250.27 337.44 251.61 340.43 C 254.07 345.31 251.74 350.91 249.28 355.31 C 246.41 359.88 243.02 364.85 237.72 366.74 C 232.53 368.06 229.11 361.53 230.13 357.12 C 231.84 349.47 237.25 342.99 243.53 338.55 Z" />
</g>
<g id="#ce9772ff">
<path fill="#ce9772" opacity="1.00" d=" M 294.94 343.51 C 295.85 345.40 296.64 347.35 297.38 349.32 C 294.01 356.16 293.82 364.18 289.69 370.68 C 286.05 376.59 280.58 381.31 274.39 384.39 C 267.45 387.82 259.48 387.03 251.99 387.05 C 245.12 387.19 238.38 384.43 231.51 385.90 C 230.72 384.34 230.08 382.71 229.48 381.08 C 238.36 381.74 246.99 384.33 255.94 384.36 C 269.39 386.14 282.71 377.34 288.33 365.36 C 291.94 358.53 291.88 350.54 294.94 343.51 Z" />
</g>
<g id="#f0cbb2ff">
<path fill="#f0cbb2" opacity="1.00" d=" M 90.51 368.27 C 92.24 361.17 95.23 354.36 99.54 348.45 C 99.97 349.20 100.40 349.95 100.83 350.71 C 103.85 350.28 106.89 349.68 109.95 349.86 C 113.70 350.11 116.18 354.89 114.32 358.15 C 112.42 361.79 109.33 364.60 106.42 367.43 C 103.49 370.08 100.13 372.96 95.97 373.08 C 93.11 373.23 91.99 370.14 90.51 368.27 Z" />
</g>
<g id="#bb8a6bff">
<path fill="#bb8a6b" opacity="1.00" d=" M 297.38 349.32 C 301.63 361.79 304.90 374.75 305.47 387.97 C 306.04 395.99 306.58 404.01 306.85 412.05 C 306.65 414.35 308.45 415.83 309.94 417.26 C 310.14 417.47 310.53 417.88 310.73 418.09 C 311.49 419.03 312.22 420.00 312.97 420.96 C 311.13 423.41 309.42 425.96 307.84 428.59 C 305.65 428.17 303.45 427.46 301.20 427.71 C 297.46 430.84 295.74 435.60 293.67 439.87 C 290.69 436.79 288.07 432.99 283.92 431.40 C 278.45 431.79 277.10 437.78 276.08 442.13 C 271.91 440.23 267.56 438.70 263.60 436.40 C 261.06 434.94 260.65 431.76 259.63 429.28 C 256.69 419.68 251.82 410.49 244.58 403.43 C 239.41 398.25 234.93 392.37 231.51 385.90 C 238.38 384.43 245.12 387.19 251.99 387.05 C 259.48 387.03 267.45 387.82 274.39 384.39 C 280.58 381.31 286.05 376.59 289.69 370.68 C 293.82 364.18 294.01 356.16 297.38 349.32 Z" />
<path fill="#bb8a6b" opacity="1.00" d=" M 117.23 376.26 C 125.64 371.31 131.95 363.74 138.13 356.36 C 146.14 368.97 157.69 379.33 171.16 385.82 C 178.31 389.40 186.22 390.97 193.59 393.99 C 183.21 395.30 172.56 395.92 162.69 399.72 C 157.90 401.63 153.34 404.67 150.99 409.42 C 152.88 408.28 154.63 406.92 156.42 405.63 C 156.27 409.48 158.37 414.87 154.43 417.43 C 150.27 420.09 145.17 420.49 140.47 421.67 C 132.42 422.87 124.73 425.58 116.98 427.99 C 114.23 424.55 111.72 419.85 107.04 418.98 C 105.06 419.71 103.40 421.06 101.66 422.22 C 99.59 419.80 97.37 417.54 95.19 415.23 C 96.47 412.95 97.75 410.67 99.00 408.37 C 100.93 409.05 102.88 409.66 104.82 410.28 C 92.56 402.96 87.14 387.54 89.70 373.84 C 89.55 377.28 89.73 380.73 89.90 384.17 C 89.93 384.69 90.00 385.72 90.03 386.24 C 100.25 387.45 108.84 381.03 117.23 376.26 M 98.47 410.62 C 101.11 413.86 105.35 414.03 109.20 413.84 C 105.67 412.62 102.04 411.72 98.47 410.62 Z" />
</g>
<g id="#cec3b5ff">
<path fill="#cec3b5" opacity="1.00" d=" M 365.50 363.46 C 369.17 358.82 373.41 354.64 376.73 349.72 C 377.51 350.95 378.30 352.18 379.09 353.42 C 374.44 359.83 370.05 366.43 364.78 372.36 C 365.94 369.53 365.95 366.44 365.50 363.46 Z" />
</g>
<g id="#e5a77cff">
<path fill="#e5a77c" opacity="1.00" d=" M 136.52 353.84 C 137.06 354.67 137.59 355.52 138.13 356.36 C 131.95 363.74 125.64 371.31 117.23 376.26 C 108.84 381.03 100.25 387.45 90.03 386.24 C 90.00 385.72 89.93 384.69 89.90 384.17 C 91.72 380.15 95.92 378.68 99.86 377.63 C 105.37 376.21 109.18 371.79 113.63 368.59 C 117.48 365.80 122.80 366.53 126.58 363.61 C 130.26 360.75 133.27 357.15 136.52 353.84 Z" />
</g>
<g id="#bdb3a4ff">
<path fill="#bdb3a4" opacity="1.00" d=" M 337.22 384.08 C 347.69 378.75 356.74 371.19 365.50 363.46 C 365.95 366.44 365.94 369.53 364.78 372.36 C 360.27 376.67 355.86 381.14 350.76 384.76 C 342.02 390.29 332.45 394.30 322.81 397.95 C 318.05 399.53 313.26 401.45 308.15 401.33 C 307.97 398.51 307.88 395.69 307.85 392.87 C 317.82 390.61 327.84 388.27 337.22 384.08 Z" />
</g>
<g id="#efb48cff">
<path fill="#efb48c" opacity="1.00" d=" M 84.36 412.91 C 88.18 410.40 91.96 407.83 95.72 405.24 C 96.80 406.29 97.90 407.33 99.00 408.37 C 97.75 410.67 96.47 412.95 95.19 415.23 C 94.12 414.69 93.04 414.22 91.93 413.80 C 90.06 414.33 88.69 415.82 87.18 416.96 C 86.25 415.60 85.31 414.25 84.36 412.91 Z" />
</g>
<g id="#fdfdfdff">
<path fill="#fdfdfd" opacity="1.00" d=" M 72.44 423.37 C 75.61 419.84 79.27 416.80 83.07 413.98 C 83.45 414.38 84.20 415.19 84.57 415.59 C 80.97 418.80 77.17 422.03 72.44 423.37 Z" />
<path fill="#fdfdfd" opacity="1.00" d=" M 81.43 428.41 C 84.25 423.47 88.01 419.16 91.88 415.02 C 93.05 415.86 94.21 416.71 95.38 417.57 C 89.24 422.90 83.65 429.00 79.98 436.31 C 79.47 436.66 78.46 437.36 77.96 437.71 C 78.01 434.27 79.67 431.24 81.43 428.41 Z" />
</g>
<g id="#ccd0e1ff">
<path fill="#ccd0e1" opacity="1.00" d=" M 84.57 415.59 C 85.16 416.62 85.76 417.65 86.20 418.77 C 83.23 422.86 80.17 427.49 74.89 428.68 C 74.50 428.80 73.74 429.05 73.35 429.17 C 71.75 429.17 70.15 429.17 68.55 429.17 C 69.66 427.12 70.79 425.04 72.44 423.37 C 77.17 422.03 80.97 418.80 84.57 415.59 Z" />
</g>
<g id="#cdd0e1ff">
<path fill="#cdd0e1" opacity="1.00" d=" M 95.38 417.57 C 97.21 419.92 101.07 423.21 98.29 426.21 C 93.62 431.58 86.41 433.77 79.98 436.31 C 83.65 429.00 89.24 422.90 95.38 417.57 Z" />
<path fill="#cdd0e1" opacity="1.00" d=" M 279.50 442.37 C 277.26 440.33 279.17 437.33 279.63 434.95 C 282.40 438.43 284.82 442.18 286.59 446.27 C 283.95 445.53 280.98 444.95 279.50 442.37 Z" />
</g>
<g id="#fefdfdff">
<path fill="#fefdfd" opacity="1.00" d=" M 92.94 437.65 C 96.47 431.20 100.10 423.88 107.07 420.58 C 107.75 420.84 109.11 421.35 109.79 421.61 C 104.95 426.27 99.53 430.44 95.81 436.14 C 94.94 436.79 93.99 437.29 92.94 437.65 Z" />
</g>
<g id="#ced2e1ff">
<path fill="#ced2e1" opacity="1.00" d=" M 109.79 421.61 C 111.71 423.77 113.54 426.01 115.29 428.31 C 109.04 431.49 102.29 433.49 95.81 436.14 C 99.53 430.44 104.95 426.27 109.79 421.61 Z" />
</g>
<g id="#e0e1eaff">
<path fill="#e0e1ea" opacity="1.00" d=" M 312.27 423.41 C 316.07 423.46 318.33 426.75 321.11 428.81 C 323.62 430.68 325.95 432.80 327.79 435.35 C 324.99 435.61 322.20 435.66 319.40 435.67 C 317.10 431.92 314.73 428.22 312.82 424.26 L 312.27 423.41 Z" />
<path fill="#e0e1ea" opacity="1.00" d=" M 301.00 429.26 C 305.44 430.55 309.21 433.35 312.58 436.43 C 315.32 439.07 318.27 441.66 319.86 445.21 C 318.12 445.44 316.39 445.66 314.66 445.89 C 315.18 445.36 316.21 444.31 316.72 443.78 C 313.45 442.42 309.93 441.23 307.39 438.65 C 304.71 435.93 302.83 432.57 301.00 429.26 Z" />
</g>
<g id="#bec4dbff">
<path fill="#bec4db" opacity="1.00" d=" M 310.83 430.81 C 309.98 428.38 311.69 426.24 312.82 424.26 C 314.73 428.22 317.10 431.92 319.40 435.67 C 315.68 436.13 312.80 433.67 310.83 430.81 Z" />
</g>
<g id="#b8bed5ff">
<path fill="#b8bed5" opacity="1.00" d=" M 296.07 440.83 C 295.52 436.62 298.95 432.79 301.00 429.26 C 302.83 432.57 304.71 435.93 307.39 438.65 C 309.93 441.23 313.45 442.42 316.72 443.78 C 316.21 444.31 315.18 445.36 314.66 445.89 C 308.27 445.07 302.23 442.60 296.07 440.83 Z" />
</g>
<g id="#fefefeff">
<path fill="#fefefe" opacity="1.00" d=" M 279.63 434.95 C 280.79 434.17 281.95 432.18 283.43 433.54 C 290.16 437.57 294.33 444.52 299.40 450.29 C 294.68 450.65 290.87 447.63 286.59 446.27 C 284.82 442.18 282.40 438.43 279.63 434.95 Z" />
</g>
</svg>
