<?xml version="1.0" encoding="UTF-8" ?>
<!DOCTYPE svg PUBLIC "-//W3C//DTD SVG 1.1//EN" "http://www.w3.org/Graphics/SVG/1.1/DTD/svg11.dtd">
<svg width="475pt" height="475pt" viewBox="0 0 475 475" version="1.1" xmlns="http://www.w3.org/2000/svg">
<g id="#010101fe">
<path fill="#010101" opacity="1.00" d=" M 230.09 24.06 C 235.41 20.02 243.45 23.27 245.75 29.18 C 247.59 32.44 246.54 36.44 244.06 39.03 C 236.61 47.22 227.09 53.85 222.01 63.94 C 229.74 76.92 237.25 90.10 242.87 104.15 C 244.76 109.02 245.78 114.15 246.78 119.26 C 247.97 123.39 245.54 127.30 243.97 130.96 C 241.39 135.71 239.45 140.90 235.94 145.06 C 238.58 137.47 243.91 130.98 245.52 123.02 C 244.85 110.50 238.97 99.14 233.87 87.94 C 229.13 78.72 224.48 69.34 218.09 61.12 C 219.09 61.46 220.10 61.80 221.11 62.15 C 224.40 56.91 228.37 52.13 232.99 48.02 C 237.90 43.15 244.36 38.86 245.77 31.60 C 244.17 26.53 238.50 22.90 233.30 24.00 C 227.52 27.04 222.43 31.25 216.80 34.55 C 210.93 38.56 204.69 41.97 198.63 45.66 C 187.16 52.88 174.03 56.69 161.00 60.02 C 156.91 61.20 152.66 62.00 148.78 63.82 C 144.79 65.83 143.20 70.31 140.63 73.68 C 137.20 78.77 131.45 81.43 127.18 85.65 C 122.74 90.23 122.49 97.09 125.00 102.68 C 125.88 105.28 126.86 107.84 127.74 110.44 C 128.92 113.91 130.14 117.38 131.89 120.61 C 130.87 122.81 129.24 124.64 127.42 126.20 C 125.26 120.06 125.52 113.53 124.82 107.16 C 123.11 101.94 121.09 96.33 122.91 90.83 C 125.10 83.36 133.25 80.56 137.67 74.72 C 141.44 70.52 143.33 64.12 149.13 62.16 C 158.81 58.99 168.78 56.73 178.45 53.51 C 185.64 50.71 192.65 47.39 199.09 43.12 C 209.58 37.03 220.15 31.03 230.09 24.06 M 126.40 110.88 C 126.84 115.19 126.47 119.96 129.11 123.66 C 129.26 119.25 127.76 115.02 126.40 110.88 Z" />
<path fill="#010101" opacity="1.00" d=" M 133.66 155.45 C 134.92 153.12 135.95 150.03 139.02 149.70 L 138.44 150.39 C 136.95 152.17 135.50 154.02 133.66 155.45 Z" />
<path fill="#010101" opacity="1.00" d=" M 225.49 168.95 C 225.18 164.91 226.94 161.14 228.91 157.74 C 228.52 161.55 226.82 165.14 226.80 168.99 C 227.64 179.25 230.92 189.21 235.56 198.36 C 239.58 198.77 243.81 198.71 247.57 200.34 C 251.64 203.23 254.35 207.71 258.73 210.24 C 270.70 217.79 283.78 223.64 297.33 227.75 C 301.91 229.81 305.59 233.67 307.89 238.10 C 311.99 245.82 316.26 253.49 319.24 261.74 C 323.53 273.69 329.49 285.04 332.56 297.41 C 333.85 303.18 336.26 308.59 338.26 314.12 C 339.20 315.89 337.30 317.11 336.07 317.97 C 337.22 315.42 336.13 312.86 335.05 310.52 C 334.22 308.54 333.41 306.55 332.52 304.60 C 331.09 305.86 329.68 307.15 328.39 308.56 C 326.76 310.41 325.10 312.37 324.57 314.85 C 323.56 319.39 321.00 323.32 319.18 327.54 C 321.86 327.49 325.21 328.59 327.27 326.27 C 328.89 324.79 330.39 323.19 332.03 321.73 C 330.90 324.17 329.47 326.59 327.33 328.28 C 324.40 329.53 320.60 327.63 318.11 330.12 C 315.31 332.48 312.41 334.70 309.57 337.01 C 322.07 339.27 335.96 342.03 347.79 335.83 C 354.34 332.76 360.68 328.98 365.77 323.77 C 373.10 315.86 378.61 306.28 381.39 295.83 C 381.81 295.83 382.64 295.82 383.06 295.81 C 380.40 304.49 376.05 312.53 371.00 320.04 C 366.32 326.72 359.45 331.52 352.30 335.27 C 347.17 337.82 341.83 340.56 335.98 340.76 C 329.72 340.93 323.46 340.57 317.27 339.73 C 313.20 339.05 309.07 338.73 305.03 337.88 C 301.98 336.72 299.57 334.36 296.80 332.70 C 297.48 337.74 298.66 342.83 297.87 347.93 C 297.01 353.65 295.87 359.34 295.58 365.14 C 311.22 369.93 328.50 368.07 343.34 361.43 C 352.84 357.74 360.64 350.87 367.28 343.30 C 371.55 338.30 376.36 333.62 379.25 327.62 C 382.07 321.93 385.18 316.37 387.42 310.41 C 389.17 305.72 389.60 300.70 390.20 295.77 C 390.38 296.21 390.74 297.10 390.92 297.54 C 390.75 305.92 388.57 314.10 385.98 322.03 C 385.54 323.58 384.63 324.93 383.55 326.12 C 384.13 323.97 384.58 321.78 384.91 319.58 C 381.99 324.23 380.37 329.60 376.95 333.95 C 374.01 337.52 371.02 341.05 368.16 344.68 C 361.04 351.93 353.52 359.56 343.78 363.12 C 328.36 368.88 311.21 371.53 295.16 366.69 C 294.54 372.33 295.05 378.00 295.50 383.64 C 311.36 384.31 327.73 381.59 341.62 373.59 C 351.01 367.91 360.40 361.58 366.90 352.56 C 373.12 344.90 378.30 336.48 382.78 327.70 C 382.84 331.19 380.67 334.08 379.13 337.05 C 373.43 347.56 365.79 356.94 357.03 365.04 C 346.18 373.54 333.80 380.43 320.13 383.03 C 312.08 385.21 303.63 384.07 295.54 385.85 C 296.81 396.04 300.58 405.71 302.10 415.87 C 302.71 420.18 304.96 425.82 300.91 429.12 C 301.64 426.59 302.43 423.94 301.86 421.30 C 299.40 408.24 294.56 395.63 293.76 382.27 C 292.38 371.11 294.43 359.99 296.08 348.99 C 297.12 343.18 295.81 337.37 294.96 331.63 C 294.03 332.02 293.10 332.42 292.16 332.82 C 289.93 330.39 287.60 327.94 286.21 324.90 C 284.45 321.21 284.07 317.09 282.94 313.21 C 281.26 308.25 275.12 306.26 273.98 301.01 C 272.00 292.61 270.68 284.07 268.36 275.76 C 265.59 264.85 261.35 254.38 256.88 244.08 C 254.83 239.67 252.80 235.10 249.42 231.54 C 247.04 229.88 243.93 229.98 241.17 229.57 C 246.81 227.46 252.54 230.17 257.73 232.28 C 265.16 235.71 273.14 238.29 279.69 243.35 C 282.19 245.04 282.12 248.34 282.41 251.02 C 283.05 264.79 284.06 278.74 281.38 292.37 C 280.64 296.15 281.21 299.99 281.78 303.75 C 283.22 302.68 284.67 301.63 286.17 300.65 C 288.97 301.46 291.81 302.21 294.43 303.52 C 295.78 304.26 297.10 305.05 298.44 305.83 C 298.45 308.05 298.36 310.27 298.27 312.49 C 300.84 311.09 303.51 309.70 305.43 307.41 C 307.62 304.69 311.04 303.61 314.25 302.61 C 316.82 302.64 319.40 302.69 321.98 302.80 C 323.05 305.21 324.07 307.65 325.12 310.08 C 327.50 307.64 330.19 305.48 332.34 302.83 C 332.11 298.99 330.48 295.42 329.28 291.82 C 324.74 279.95 319.94 268.18 315.27 256.36 C 311.38 248.30 307.87 239.85 302.16 232.87 C 300.26 230.22 297.14 229.14 294.09 228.48 C 286.75 226.51 279.75 223.42 273.06 219.84 C 265.35 215.68 256.90 212.19 251.17 205.27 C 248.44 201.82 244.16 200.59 239.90 200.62 C 236.41 200.04 233.01 199.10 229.63 198.09 C 229.21 197.56 228.37 196.52 227.94 196.00 C 229.70 196.46 231.45 196.92 233.22 197.37 C 229.83 188.16 225.61 178.95 225.49 168.95 M 252.45 232.12 C 256.61 240.02 260.32 248.13 263.57 256.45 C 269.56 269.93 271.21 284.74 275.04 298.87 C 275.97 303.57 279.83 306.73 283.03 309.97 C 282.11 306.25 280.37 302.78 279.60 299.03 C 279.34 294.29 281.21 289.75 281.44 285.04 C 281.85 277.71 281.87 270.36 281.44 263.03 C 281.10 257.79 281.68 252.47 280.63 247.29 C 280.06 243.86 276.31 242.84 273.73 241.31 C 266.76 237.99 260.00 233.98 252.45 232.12 M 284.69 302.45 C 284.03 309.12 285.03 315.77 286.76 322.20 C 287.95 325.23 289.96 327.87 292.10 330.30 C 292.24 329.72 292.52 328.57 292.67 327.99 C 294.55 321.35 295.72 314.52 297.53 307.85 C 296.34 306.87 295.15 305.91 293.94 304.97 C 291.10 303.36 288.06 301.81 284.69 302.45 M 312.83 304.60 C 310.27 305.02 307.85 306.34 306.18 308.34 C 306.08 311.82 306.90 315.26 307.22 318.72 C 307.93 324.83 306.77 330.89 304.80 336.66 C 308.67 335.24 312.67 333.60 315.70 330.71 C 317.80 327.61 319.02 323.99 320.95 320.77 C 323.83 315.64 323.96 309.18 320.83 304.12 C 318.15 304.06 315.46 304.07 312.83 304.60 M 300.60 312.47 C 296.33 314.23 296.05 319.37 295.05 323.23 C 293.65 327.22 296.67 331.09 299.87 333.14 C 301.08 333.52 302.65 335.55 303.80 334.17 C 307.21 327.51 305.41 319.78 305.19 312.66 C 303.67 312.38 302.03 311.44 300.60 312.47 Z" />
<path fill="#010101" opacity="1.00" d=" M 248.69 385.05 C 250.11 386.30 251.49 387.60 252.80 388.97 C 253.62 389.82 254.43 390.68 255.24 391.55 C 254.88 391.66 254.16 391.87 253.80 391.98 C 251.59 390.08 250.01 387.61 248.69 385.05 Z" />
<path fill="#010101" opacity="1.00" d=" M 236.02 393.76 C 240.78 396.68 245.86 402.54 242.83 408.38 L 242.41 409.12 C 242.24 406.61 243.00 403.79 241.50 401.56 C 239.72 398.93 237.35 396.69 236.02 393.76 Z" />
</g>
<g id="#e17e6eff">
<path fill="#e17e6e" opacity="1.00" d=" M 216.80 34.55 C 222.43 31.25 227.52 27.04 233.30 24.00 C 238.50 22.90 244.17 26.53 245.77 31.60 C 242.74 30.76 239.38 29.67 236.39 31.29 C 227.06 35.79 219.32 42.89 211.45 49.49 C 203.23 56.24 192.61 58.93 183.94 64.97 C 179.96 67.51 176.70 70.97 173.78 74.65 C 181.63 72.31 189.88 71.61 198.04 71.75 C 203.11 71.63 204.18 77.93 204.63 81.83 C 205.41 85.99 201.49 88.52 198.69 90.74 C 192.15 95.45 186.33 101.05 180.70 106.79 C 179.08 108.28 178.43 110.41 177.98 112.49 C 173.34 112.49 168.74 113.11 164.19 114.02 C 162.64 112.96 161.09 111.91 159.54 110.86 C 159.53 110.25 159.51 109.03 159.49 108.42 C 161.71 108.31 164.78 109.58 166.20 107.21 C 169.03 102.56 168.39 95.26 163.16 92.57 C 159.04 98.06 157.75 105.36 158.25 112.10 C 158.67 117.20 160.85 123.83 166.74 124.58 C 171.49 124.19 176.23 124.88 180.98 124.88 C 185.57 124.90 190.16 124.50 194.76 124.43 C 195.30 124.46 196.38 124.53 196.92 124.56 C 191.17 131.11 184.62 137.59 176.07 140.20 C 169.96 142.09 163.82 143.94 157.71 145.85 C 151.61 147.76 145.13 147.86 139.02 149.70 C 135.95 150.03 134.92 153.12 133.66 155.45 C 129.70 157.86 125.35 159.53 121.05 161.22 C 116.52 155.51 112.83 148.24 114.54 140.76 C 114.77 142.62 115.00 144.48 115.24 146.34 C 118.27 145.74 121.98 145.67 123.86 142.78 C 125.95 140.57 124.94 137.42 124.69 134.77 C 123.05 134.49 121.40 134.21 119.76 133.92 C 121.92 131.57 124.20 129.36 126.45 127.10 C 126.69 126.88 127.17 126.43 127.42 126.20 C 129.24 124.64 130.87 122.81 131.89 120.61 C 133.25 116.85 133.62 112.80 133.03 108.84 C 132.36 104.09 132.49 99.29 133.01 94.54 C 131.25 99.53 131.04 104.88 131.70 110.10 C 131.48 110.30 131.03 110.70 130.80 110.90 C 129.78 110.76 128.75 110.61 127.74 110.44 C 126.86 107.84 125.88 105.28 125.00 102.68 C 130.94 98.99 130.07 91.02 127.18 85.65 C 131.45 81.43 137.20 78.77 140.63 73.68 C 143.20 70.31 144.79 65.83 148.78 63.82 C 152.66 62.00 156.91 61.20 161.00 60.02 C 174.03 56.69 187.16 52.88 198.63 45.66 C 197.70 47.72 196.96 49.85 196.25 51.99 C 205.78 50.24 212.43 42.72 218.97 36.22 C 218.43 35.81 217.34 34.97 216.80 34.55 Z" />
</g>
<g id="#c25d4dff">
<path fill="#c25d4d" opacity="1.00" d=" M 236.39 31.29 C 239.38 29.67 242.74 30.76 245.77 31.60 C 244.36 38.86 237.90 43.15 232.99 48.02 C 228.37 52.13 224.40 56.91 221.11 62.15 C 220.10 61.80 219.09 61.46 218.09 61.12 C 224.48 69.34 229.13 78.72 233.87 87.94 C 231.74 90.79 228.97 93.71 229.11 97.52 C 229.15 100.51 229.31 103.65 230.58 106.41 C 232.65 109.59 235.65 112.03 237.87 115.11 C 240.03 118.10 242.52 120.85 245.52 123.02 C 243.91 130.98 238.58 137.47 235.94 145.06 C 235.70 145.49 235.22 146.36 234.99 146.79 C 233.22 149.31 231.47 151.85 230.15 154.64 C 230.36 152.29 230.43 149.94 230.55 147.59 C 227.44 146.41 224.33 145.27 221.19 144.18 C 215.99 146.33 210.52 147.84 205.57 150.57 C 205.72 150.13 206.03 149.26 206.18 148.82 C 202.82 150.96 200.33 155.01 196.04 155.21 C 192.35 155.59 188.64 155.53 184.94 155.74 C 183.34 151.84 181.68 147.29 177.63 145.33 C 173.51 143.72 169.25 145.85 165.39 147.25 C 156.92 150.78 147.50 151.74 138.44 150.39 L 139.02 149.70 C 145.13 147.86 151.61 147.76 157.71 145.85 C 163.82 143.94 169.96 142.09 176.07 140.20 C 184.62 137.59 191.17 131.11 196.92 124.56 C 196.38 124.53 195.30 124.46 194.76 124.43 C 197.68 124.14 200.65 123.70 203.27 122.28 C 204.69 121.61 206.06 120.84 207.45 120.10 C 208.12 112.94 206.53 105.82 203.53 99.34 C 202.32 97.22 202.58 94.82 203.23 92.58 C 194.76 99.14 185.99 105.33 177.98 112.49 C 178.43 110.41 179.08 108.28 180.70 106.79 C 186.33 101.05 192.15 95.45 198.69 90.74 C 201.49 88.52 205.41 85.99 204.63 81.83 C 204.18 77.93 203.11 71.63 198.04 71.75 C 189.88 71.61 181.63 72.31 173.78 74.65 C 176.70 70.97 179.96 67.51 183.94 64.97 C 192.61 58.93 203.23 56.24 211.45 49.49 C 219.32 42.89 227.06 35.79 236.39 31.29 Z" />
<path fill="#c25d4d" opacity="1.00" d=" M 241.17 229.57 C 243.93 229.98 247.04 229.88 249.42 231.54 C 252.80 235.10 254.83 239.67 256.88 244.08 C 261.35 254.38 265.59 264.85 268.36 275.76 C 270.68 284.07 272.00 292.61 273.98 301.01 C 275.12 306.26 281.26 308.25 282.94 313.21 C 284.07 317.09 284.45 321.21 286.21 324.90 C 287.60 327.94 289.93 330.39 292.16 332.82 C 293.10 332.42 294.03 332.02 294.96 331.63 C 295.81 337.37 297.12 343.18 296.08 348.99 C 294.43 359.99 292.38 371.11 293.76 382.27 C 294.56 395.63 299.40 408.24 301.86 421.30 C 302.43 423.94 301.64 426.59 300.91 429.12 C 300.82 429.42 300.64 430.01 300.55 430.30 C 299.92 430.55 298.65 431.04 298.01 431.28 C 295.75 427.56 293.63 423.34 289.74 421.07 C 287.10 420.55 285.10 422.76 283.50 424.51 C 280.87 427.29 281.37 431.38 281.12 434.90 C 278.42 435.07 275.72 435.28 273.03 435.58 C 270.87 430.82 268.96 425.36 264.49 422.29 C 261.13 420.13 258.32 424.08 256.24 426.25 C 252.80 419.60 248.87 413.00 242.83 408.38 C 245.86 402.54 240.78 396.68 236.02 393.76 C 235.81 393.57 235.40 393.18 235.19 392.99 C 233.40 390.64 231.55 388.36 229.70 386.08 C 233.50 386.74 237.26 387.69 240.83 389.18 C 244.95 390.74 249.26 392.99 253.80 391.98 C 254.16 391.87 254.88 391.66 255.24 391.55 C 259.81 389.50 264.84 388.62 269.31 386.34 C 276.29 382.01 279.79 373.77 280.77 365.88 C 282.07 356.87 279.94 347.92 279.00 338.99 C 277.80 326.51 272.79 314.56 265.58 304.39 C 261.90 298.74 254.15 299.26 248.38 300.49 C 240.95 302.85 235.65 308.99 230.00 314.03 C 229.00 314.81 227.97 315.56 226.94 316.32 C 226.45 307.26 224.97 298.30 224.04 289.29 C 224.41 286.22 224.95 283.18 225.42 280.13 C 227.59 280.66 229.76 281.19 231.92 281.73 C 234.90 275.80 236.94 269.43 237.75 262.83 C 238.67 254.70 242.51 247.20 243.00 239.00 C 243.22 236.45 243.34 233.90 243.47 231.35 C 242.69 230.96 241.11 230.17 240.33 229.78 L 241.17 229.57 M 256.43 393.33 C 255.64 394.39 256.37 396.63 257.84 396.56 C 259.77 395.79 258.33 392.05 256.43 393.33 M 269.73 412.81 C 272.93 413.99 276.14 412.60 279.07 411.32 C 275.92 411.57 272.79 412.05 269.73 412.81 Z" />
</g>
<g id="#dd9d97ff">
<path fill="#dd9d97" opacity="1.00" d=" M 198.63 45.66 C 204.69 41.97 210.93 38.56 216.80 34.55 C 217.34 34.97 218.43 35.81 218.97 36.22 C 212.43 42.72 205.78 50.24 196.25 51.99 C 196.96 49.85 197.70 47.72 198.63 45.66 Z" />
</g>
<g id="#df9a93ff">
<path fill="#df9a93" opacity="1.00" d=" M 127.18 85.65 C 130.07 91.02 130.94 98.99 125.00 102.68 C 122.49 97.09 122.74 90.23 127.18 85.65 Z" />
</g>
<g id="#d97667ff">
<path fill="#d97667" opacity="1.00" d=" M 229.11 97.52 C 228.97 93.71 231.74 90.79 233.87 87.94 C 238.97 99.14 244.85 110.50 245.52 123.02 C 242.52 120.85 240.03 118.10 237.87 115.11 C 235.65 112.03 232.65 109.59 230.58 106.41 C 229.31 103.65 229.15 100.51 229.11 97.52 Z" />
</g>
<g id="#120706ff">
<path fill="#120706" opacity="1.00" d=" M 158.25 112.10 C 157.75 105.36 159.04 98.06 163.16 92.57 C 161.33 97.68 159.10 102.85 159.49 108.42 C 159.51 109.03 159.53 110.25 159.54 110.86 C 159.22 111.17 158.57 111.79 158.25 112.10 Z" />
<path fill="#120706" opacity="1.00" d=" M 131.70 110.10 C 131.04 104.88 131.25 99.53 133.01 94.54 C 132.49 99.29 132.36 104.09 133.03 108.84 C 132.70 109.15 132.04 109.78 131.70 110.10 Z" />
<path fill="#120706" opacity="1.00" d=" M 187.01 176.45 C 187.68 176.04 188.36 175.64 189.04 175.24 C 190.43 176.06 191.83 176.88 193.21 177.74 C 191.14 177.33 189.07 176.88 187.01 176.45 Z" />
<path fill="#120706" opacity="1.00" d=" M 176.29 194.25 C 178.83 190.95 179.43 186.66 181.24 182.98 C 180.67 187.67 179.64 192.63 176.61 196.40 C 171.48 199.15 165.40 199.52 160.23 202.21 C 157.97 203.58 156.95 206.19 155.38 208.21 C 153.65 209.63 151.65 210.70 149.60 211.59 C 140.60 215.42 131.19 218.18 121.74 220.63 C 119.99 220.95 118.24 221.29 116.52 221.73 C 106.13 226.22 98.36 234.96 91.14 243.42 C 83.51 251.68 75.26 259.35 67.50 267.49 C 65.70 269.28 64.29 271.45 63.45 273.85 C 61.17 281.60 58.43 289.20 55.73 296.81 C 57.81 294.87 60.11 293.16 62.04 291.07 C 63.51 287.29 62.94 282.76 65.57 279.42 C 69.24 278.55 72.63 280.79 75.33 283.00 C 77.44 285.11 79.37 287.37 81.24 289.69 C 82.81 289.11 84.38 288.54 85.96 287.99 C 85.98 285.65 85.98 283.32 86.02 280.99 C 86.21 279.03 85.81 276.75 87.22 275.15 C 89.70 271.91 94.06 271.53 97.78 270.91 C 98.98 271.74 100.18 272.56 101.35 273.44 C 103.03 275.16 104.48 277.09 105.94 279.01 C 110.78 275.12 111.82 268.72 114.41 263.41 C 118.76 254.81 123.99 246.61 130.43 239.42 C 134.46 234.81 140.63 233.24 146.12 231.10 C 151.57 229.00 157.39 227.94 162.79 225.72 C 164.88 223.14 165.98 219.93 167.45 216.99 C 167.82 216.20 168.20 215.42 168.58 214.64 C 168.46 216.29 168.32 217.94 168.19 219.59 C 172.75 214.66 177.24 209.12 183.77 206.79 C 186.75 205.76 189.88 207.05 192.46 208.54 C 197.51 211.60 202.20 215.50 205.57 220.39 C 209.88 227.47 211.83 235.63 214.49 243.41 C 218.78 255.67 220.64 268.57 222.83 281.33 C 223.19 283.98 223.66 286.63 224.04 289.29 C 224.97 298.30 226.45 307.26 226.94 316.32 C 227.97 315.56 229.00 314.81 230.00 314.03 L 229.65 314.81 C 222.35 333.41 221.03 354.03 224.35 373.64 C 225.02 378.17 226.71 382.56 229.70 386.08 C 231.55 388.36 233.40 390.64 235.19 392.99 C 230.38 390.69 226.40 386.40 224.76 381.30 C 224.13 379.61 223.65 377.84 222.65 376.32 C 215.39 375.01 207.87 374.76 200.88 372.17 C 198.27 371.35 195.79 369.95 193.05 369.67 C 188.28 370.12 183.80 372.13 180.01 375.01 C 175.31 378.47 170.19 381.81 166.89 386.73 C 163.97 394.73 171.20 403.69 166.49 411.40 C 161.92 413.87 156.51 414.38 152.05 417.12 C 147.41 419.94 142.92 423.36 137.46 424.40 C 131.90 425.46 126.16 425.78 120.82 427.78 C 112.95 430.20 105.91 434.55 98.38 437.77 C 98.18 434.13 99.72 430.83 101.28 427.66 C 95.81 428.73 90.53 430.54 85.61 433.19 C 86.37 429.50 87.86 426.04 89.28 422.58 C 85.68 422.68 82.15 423.37 78.59 423.85 C 80.93 419.97 83.78 415.94 88.22 414.33 C 95.08 411.56 102.19 408.79 107.58 403.53 C 111.54 396.63 107.47 389.04 106.89 381.89 C 109.23 386.02 110.64 390.62 111.19 395.33 C 110.73 400.38 108.85 405.40 104.44 408.27 C 106.38 410.67 108.08 413.25 109.65 415.91 C 111.64 414.67 113.70 413.53 115.90 412.71 C 119.87 416.18 122.92 420.51 124.94 425.38 C 131.16 424.10 137.97 424.16 143.41 420.47 C 147.75 417.55 152.29 414.82 157.37 413.42 C 160.29 412.32 163.75 412.01 166.07 409.75 C 167.38 402.06 162.64 394.39 164.80 386.77 C 167.88 382.26 172.59 379.19 176.83 375.84 C 180.84 372.63 185.48 370.38 190.13 368.26 C 176.45 360.53 163.47 350.55 155.37 336.84 C 154.66 335.68 153.96 334.51 153.29 333.32 C 148.81 324.97 144.37 316.34 143.31 306.78 C 137.15 317.16 127.28 324.47 119.65 333.65 C 114.60 339.70 109.56 345.86 105.66 352.74 C 104.53 354.98 103.47 357.25 102.47 359.56 C 101.35 365.79 104.82 371.43 105.74 377.43 C 105.86 378.10 106.11 379.42 106.24 380.09 C 102.35 375.29 101.31 368.98 100.71 363.01 C 100.42 359.32 101.74 355.73 103.71 352.67 C 107.68 346.44 112.17 340.55 116.78 334.78 C 123.58 326.30 132.37 319.65 138.95 310.98 C 141.01 308.02 143.08 304.73 143.17 301.02 C 142.86 287.68 143.49 274.11 147.41 261.27 C 150.36 249.26 157.67 239.04 162.09 227.61 C 155.26 229.09 148.88 231.99 142.30 234.25 C 139.05 235.50 135.50 236.45 132.94 238.94 C 125.91 245.88 120.73 254.38 116.02 262.99 C 113.79 267.45 113.10 272.49 110.99 276.99 C 108.30 279.41 104.30 280.07 102.20 283.21 C 98.01 288.88 93.74 294.61 88.12 298.97 C 87.29 295.66 86.60 292.32 85.82 289.00 C 84.20 290.23 81.64 290.94 81.30 293.24 C 80.39 297.86 78.52 302.23 77.68 306.85 C 78.86 308.88 80.42 310.66 81.85 312.52 C 79.79 313.52 77.76 314.58 75.87 315.89 C 70.32 311.64 61.78 312.67 57.38 306.66 C 55.67 303.67 53.59 300.51 53.31 297.03 C 55.48 290.77 58.58 284.82 60.47 278.43 C 61.78 274.63 62.37 270.30 65.38 267.37 C 74.14 258.48 83.46 250.09 91.45 240.47 C 93.33 238.33 94.99 236.01 97.01 234.00 C 100.63 230.20 105.43 227.82 109.01 223.99 C 112.48 220.51 117.59 220.05 122.13 219.04 C 131.60 216.55 140.89 213.45 150.06 210.07 C 154.06 208.53 155.26 203.94 158.31 201.34 C 163.99 198.25 171.22 198.60 176.29 194.25 M 178.21 211.43 C 171.97 217.16 165.87 223.36 161.99 230.98 C 158.70 237.44 155.31 243.86 152.35 250.49 C 146.83 264.56 144.35 279.67 144.22 294.75 C 144.33 302.75 144.80 311.08 148.23 318.45 C 148.49 320.46 149.44 322.29 150.19 324.15 C 151.88 327.60 153.69 330.99 155.70 334.27 C 156.92 336.24 158.12 338.24 159.31 340.24 C 162.24 344.09 165.51 347.67 168.73 351.28 C 171.76 354.68 175.77 356.93 179.35 359.69 C 191.50 369.33 207.17 373.23 222.38 374.31 C 221.29 362.23 220.19 349.99 222.08 337.94 C 222.85 332.56 224.85 327.42 225.54 322.03 C 225.60 316.31 225.70 310.49 224.35 304.90 C 222.90 290.86 220.48 276.93 218.13 263.01 C 216.90 255.76 214.70 248.72 212.32 241.77 C 210.19 235.59 208.97 229.05 205.71 223.31 C 202.01 216.54 195.80 211.13 188.57 208.45 C 184.76 206.98 181.30 209.54 178.21 211.43 M 88.21 277.22 C 88.58 283.71 86.42 290.57 89.41 296.71 L 89.74 295.57 C 95.24 290.45 100.32 284.62 103.75 277.87 C 102.31 276.24 100.76 274.70 99.13 273.26 C 95.11 271.77 90.05 273.16 88.21 277.22 M 70.16 309.63 L 69.98 310.14 C 71.84 311.57 73.68 313.03 75.57 314.43 C 74.07 306.61 79.23 299.71 79.53 292.05 C 79.62 288.83 76.82 286.75 74.77 284.72 C 72.61 282.55 69.88 281.10 67.00 280.12 C 62.79 289.48 63.89 301.45 70.16 309.63 M 58.16 304.94 C 59.67 309.41 65.06 310.27 69.06 311.17 C 65.12 305.90 63.16 299.50 62.54 293.01 C 57.91 294.91 56.60 300.55 58.16 304.94 M 77.15 309.50 C 76.10 310.51 77.45 312.84 78.83 311.90 C 79.93 310.92 78.46 308.62 77.15 309.50 M 92.66 420.64 C 90.65 423.48 89.28 426.71 87.87 429.88 C 88.45 429.84 89.61 429.75 90.20 429.71 L 90.55 428.98 C 94.39 427.88 98.32 427.08 102.17 426.04 C 104.87 423.71 106.66 420.51 108.90 417.76 C 108.08 416.27 107.25 414.79 106.42 413.31 C 105.46 412.24 104.51 411.17 103.56 410.10 C 99.78 413.45 95.86 416.71 92.66 420.64 M 89.91 414.93 C 86.22 416.18 83.70 419.35 81.30 422.24 C 84.17 421.83 87.04 421.40 89.94 421.23 C 93.17 417.49 97.13 414.47 100.37 410.75 C 96.79 411.91 93.41 413.57 89.91 414.93 M 106.78 422.80 C 103.90 426.61 100.68 430.56 100.24 435.51 C 101.41 434.78 102.84 434.39 103.77 433.34 C 106.85 432.48 109.58 430.80 112.51 429.56 C 116.07 428.03 119.80 426.89 123.15 424.90 C 121.78 422.12 120.13 419.48 118.18 417.06 C 117.04 416.13 115.92 415.17 114.79 414.23 C 111.23 416.15 109.25 419.77 106.78 422.80 Z" />
<path fill="#120706" opacity="1.00" d=" M 108.77 372.95 C 110.74 375.47 112.61 378.06 114.53 380.63 L 115.05 381.38 C 115.11 381.89 115.23 382.92 115.30 383.43 C 113.46 381.49 111.64 379.51 110.31 377.18 C 109.74 375.79 109.25 374.37 108.77 372.95 Z" />
<path fill="#120706" opacity="1.00" d=" M 256.43 393.33 C 258.33 392.05 259.77 395.79 257.84 396.56 C 256.37 396.63 255.64 394.39 256.43 393.33 Z" />
<path fill="#120706" opacity="1.00" d=" M 269.73 412.81 C 272.79 412.05 275.92 411.57 279.07 411.32 C 276.14 412.60 272.93 413.99 269.73 412.81 Z" />
</g>
<g id="#e69e94ff">
<path fill="#e69e94" opacity="1.00" d=" M 163.16 92.57 C 168.39 95.26 169.03 102.56 166.20 107.21 C 164.78 109.58 161.71 108.31 159.49 108.42 C 159.10 102.85 161.33 97.68 163.16 92.57 Z" />
</g>
<g id="#020202ff">
<path fill="#020202" opacity="1.00" d=" M 177.98 112.49 C 185.99 105.33 194.76 99.14 203.23 92.58 C 202.58 94.82 202.32 97.22 203.53 99.34 C 206.53 105.82 208.12 112.94 207.45 120.10 C 206.45 111.97 204.71 103.76 200.47 96.65 C 197.47 98.57 194.64 100.73 191.85 102.93 C 192.47 104.69 193.09 106.45 193.59 108.26 C 194.78 113.03 194.62 117.98 194.31 122.85 C 196.17 122.72 198.03 122.59 199.90 122.48 C 200.74 122.43 202.43 122.33 203.27 122.28 C 200.65 123.70 197.68 124.14 194.76 124.43 C 190.16 124.50 185.57 124.90 180.98 124.88 C 176.23 124.88 171.49 124.19 166.74 124.58 C 170.36 120.43 174.23 116.51 177.98 112.49 M 185.21 108.36 C 184.97 111.40 188.57 113.90 191.33 112.40 C 193.28 109.69 191.24 106.58 190.40 103.86 C 188.62 105.29 186.57 106.49 185.21 108.36 M 186.89 115.10 C 186.98 116.88 187.07 118.66 187.15 120.44 L 186.31 120.70 C 186.28 121.35 186.24 122.63 186.21 123.28 C 188.32 123.25 190.43 123.21 192.54 123.13 C 192.83 121.57 193.12 120.01 193.41 118.45 C 193.20 116.86 193.00 115.28 192.80 113.69 C 190.83 114.18 188.86 114.65 186.89 115.10 M 170.59 121.94 C 172.05 122.47 173.51 122.99 174.98 123.50 C 174.63 121.95 174.29 120.40 173.94 118.86 C 172.82 119.88 171.70 120.91 170.59 121.94 Z" />
<path fill="#020202" opacity="1.00" d=" M 117.67 134.63 C 120.35 131.89 122.53 128.15 126.45 127.10 C 124.20 129.36 121.92 131.57 119.76 133.92 C 117.86 136.07 116.05 138.32 114.54 140.76 C 112.83 148.24 116.52 155.51 121.05 161.22 C 124.01 164.53 127.57 167.90 132.12 168.62 C 141.93 167.28 147.61 155.87 157.97 156.27 C 166.96 156.82 175.97 156.53 184.94 155.74 C 188.64 155.53 192.35 155.59 196.04 155.21 C 200.33 155.01 202.82 150.96 206.18 148.82 C 206.03 149.26 205.72 150.13 205.57 150.57 C 203.79 152.94 202.06 156.05 198.80 156.43 C 191.20 157.42 183.50 157.03 175.87 157.68 C 168.95 158.27 161.99 157.15 155.08 157.77 C 149.17 159.54 144.55 163.92 139.88 167.75 C 146.60 171.96 153.15 178.69 161.73 177.76 C 172.27 175.97 182.77 171.79 193.62 173.71 C 189.81 174.26 185.98 174.57 182.15 174.96 C 181.91 177.12 181.69 179.28 181.43 181.44 L 181.34 182.19 C 180.75 179.95 181.05 177.31 179.58 175.39 C 172.18 175.49 165.30 179.04 158.00 179.60 C 150.66 178.19 144.99 172.80 139.01 168.69 C 134.88 170.20 129.95 170.47 126.21 167.82 C 118.10 163.16 113.85 153.94 112.68 144.97 C 111.86 140.79 115.47 137.70 117.67 134.63 Z" />
<path fill="#020202" opacity="1.00" d=" M 234.31 419.22 C 235.78 415.89 238.47 413.31 241.26 411.07 C 239.90 413.46 238.40 415.76 236.86 418.04 C 244.06 421.19 244.60 430.50 250.94 434.64 C 252.56 431.75 254.24 428.89 256.24 426.25 C 258.32 424.08 261.13 420.13 264.49 422.29 C 268.96 425.36 270.87 430.82 273.03 435.58 C 275.72 435.28 278.42 435.07 281.12 434.90 C 281.37 431.38 280.87 427.29 283.50 424.51 C 285.10 422.76 287.10 420.55 289.74 421.07 C 293.63 423.34 295.75 427.56 298.01 431.28 C 298.65 431.04 299.92 430.55 300.55 430.30 C 295.80 435.62 295.05 442.97 291.38 448.90 C 287.83 445.19 285.53 440.45 281.92 436.83 C 277.82 436.12 273.73 437.17 269.79 438.23 C 270.36 437.12 270.93 436.01 271.50 434.91 C 269.05 430.68 266.96 425.94 262.74 423.13 C 257.58 424.37 255.24 429.69 253.47 434.15 C 253.99 440.04 256.01 445.76 258.82 450.95 C 259.07 450.61 259.58 449.93 259.83 449.59 C 260.60 448.60 261.38 447.61 262.16 446.63 C 261.79 449.27 260.32 451.51 258.34 453.24 C 255.16 448.80 253.85 443.47 252.69 438.23 C 252.21 435.23 248.86 433.75 246.10 434.04 C 239.19 435.03 233.32 438.98 227.32 442.23 C 225.78 433.73 231.04 426.54 234.31 419.22 M 228.79 434.93 C 228.59 436.65 228.45 438.37 228.35 440.10 C 233.35 435.38 240.31 434.26 246.67 432.41 C 244.20 428.36 241.46 424.48 239.11 420.37 C 232.69 422.13 230.38 429.20 228.79 434.93 M 283.43 435.25 C 286.24 439.10 288.13 443.83 292.15 446.64 L 291.92 445.58 C 293.37 441.99 294.87 438.40 295.88 434.66 C 296.50 429.02 292.06 424.15 287.07 422.21 C 283.82 425.62 280.85 430.56 283.43 435.25 Z" />
</g>
<g id="#c3b6cdff">
<path fill="#c3b6cd" opacity="1.00" d=" M 191.85 102.93 C 194.64 100.73 197.47 98.57 200.47 96.65 C 204.71 103.76 206.45 111.97 207.45 120.10 C 206.06 120.84 204.69 121.61 203.27 122.28 C 202.43 122.33 200.74 122.43 199.90 122.48 C 200.74 117.96 201.77 113.47 202.91 109.02 C 199.69 108.51 196.50 107.87 193.34 107.08 C 193.40 107.37 193.53 107.96 193.59 108.26 C 193.09 106.45 192.47 104.69 191.85 102.93 Z" />
</g>
<g id="#ffffffff">
<path fill="#ffffff" opacity="1.00" d=" M 185.21 108.36 C 186.57 106.49 188.62 105.29 190.40 103.86 C 191.24 106.58 193.28 109.69 191.33 112.40 C 188.57 113.90 184.97 111.40 185.21 108.36 Z" />
<path fill="#ffffff" opacity="1.00" d=" M 70.16 309.63 C 63.89 301.45 62.79 289.48 67.00 280.12 C 69.88 281.10 72.61 282.55 74.77 284.72 C 72.95 290.70 73.90 297.09 72.24 303.10 C 71.66 305.31 70.91 307.47 70.16 309.63 Z" />
<path fill="#ffffff" opacity="1.00" d=" M 306.18 308.34 C 307.85 306.34 310.27 305.02 312.83 304.60 C 315.05 304.53 317.27 304.59 319.50 304.64 C 315.18 311.79 314.87 320.66 309.96 327.48 C 307.81 325.07 307.64 321.75 307.22 318.72 C 306.90 315.26 306.08 311.82 306.18 308.34 Z" />
</g>
<g id="#e1d8deff">
<path fill="#e1d8de" opacity="1.00" d=" M 193.34 107.08 C 196.50 107.87 199.69 108.51 202.91 109.02 C 201.77 113.47 200.74 117.96 199.90 122.48 C 198.03 122.59 196.17 122.72 194.31 122.85 C 194.62 117.98 194.78 113.03 193.59 108.26 C 193.53 107.96 193.40 107.37 193.34 107.08 Z" />
</g>
<g id="#ca6351ff">
<path fill="#ca6351" opacity="1.00" d=" M 133.03 108.84 C 133.62 112.80 133.25 116.85 131.89 120.61 C 130.14 117.38 128.92 113.91 127.74 110.44 C 128.75 110.61 129.78 110.76 130.80 110.90 C 131.03 110.70 131.48 110.30 131.70 110.10 C 132.04 109.78 132.70 109.15 133.03 108.84 Z" />
</g>
<g id="#35566dff">
<path fill="#35566d" opacity="1.00" d=" M 126.40 110.88 C 127.76 115.02 129.26 119.25 129.11 123.66 C 126.47 119.96 126.84 115.19 126.40 110.88 Z" />
<path fill="#35566d" opacity="1.00" d=" M 186.89 115.10 C 188.86 114.65 190.83 114.18 192.80 113.69 C 193.00 115.28 193.20 116.86 193.41 118.45 C 191.33 119.13 189.24 119.80 187.15 120.44 C 187.07 118.66 186.98 116.88 186.89 115.10 Z" />
</g>
<g id="#c96453ff">
<path fill="#c96453" opacity="1.00" d=" M 159.54 110.86 C 161.09 111.91 162.64 112.96 164.19 114.02 C 168.74 113.11 173.34 112.49 177.98 112.49 C 174.23 116.51 170.36 120.43 166.74 124.58 C 160.85 123.83 158.67 117.20 158.25 112.10 C 158.57 111.79 159.22 111.17 159.54 110.86 Z" />
</g>
<g id="#7f93a2ff">
<path fill="#7f93a2" opacity="1.00" d=" M 187.15 120.44 C 189.24 119.80 191.33 119.13 193.41 118.45 C 193.12 120.01 192.83 121.57 192.54 123.13 C 190.43 123.21 188.32 123.25 186.21 123.28 C 186.24 122.63 186.28 121.35 186.31 120.70 L 187.15 120.44 Z" />
</g>
<g id="#2f4d63ff">
<path fill="#2f4d63" opacity="1.00" d=" M 170.59 121.94 C 171.70 120.91 172.82 119.88 173.94 118.86 C 174.29 120.40 174.63 121.95 174.98 123.50 C 173.51 122.99 172.05 122.47 170.59 121.94 Z" />
</g>
<g id="#e7aaa3ff">
<path fill="#e7aaa3" opacity="1.00" d=" M 114.54 140.76 C 116.05 138.32 117.86 136.07 119.76 133.92 C 121.40 134.21 123.05 134.49 124.69 134.77 C 124.94 137.42 125.95 140.57 123.86 142.78 C 121.98 145.67 118.27 145.74 115.24 146.34 C 115.00 144.48 114.77 142.62 114.54 140.76 Z" />
</g>
<g id="#b15a4eff">
<path fill="#b15a4e" opacity="1.00" d=" M 205.57 150.57 C 210.52 147.84 215.99 146.33 221.19 144.18 C 224.33 145.27 227.44 146.41 230.55 147.59 C 230.43 149.94 230.36 152.29 230.15 154.64 C 230.03 155.01 229.79 155.75 229.67 156.12 C 229.48 156.52 229.10 157.34 228.91 157.74 C 226.94 161.14 225.18 164.91 225.49 168.95 C 225.61 178.95 229.83 188.16 233.22 197.37 C 231.45 196.92 229.70 196.46 227.94 196.00 C 228.37 196.52 229.21 197.56 229.63 198.09 C 220.85 201.13 211.06 199.21 202.86 195.30 C 195.21 191.52 188.16 186.67 181.43 181.44 C 181.69 179.28 181.91 177.12 182.15 174.96 C 185.98 174.57 189.81 174.26 193.62 173.71 C 182.77 171.79 172.27 175.97 161.73 177.76 C 153.15 178.69 146.60 171.96 139.88 167.75 C 144.55 163.92 149.17 159.54 155.08 157.77 C 161.99 157.15 168.95 158.27 175.87 157.68 C 183.50 157.03 191.20 157.42 198.80 156.43 C 202.06 156.05 203.79 152.94 205.57 150.57 M 187.01 176.45 C 189.07 176.88 191.14 177.33 193.21 177.74 C 191.83 176.88 190.43 176.06 189.04 175.24 C 188.36 175.64 187.68 176.04 187.01 176.45 Z" />
</g>
<g id="#b75c4fff">
<path fill="#b75c4f" opacity="1.00" d=" M 165.39 147.25 C 169.25 145.85 173.51 143.72 177.63 145.33 C 181.68 147.29 183.34 151.84 184.94 155.74 C 175.97 156.53 166.96 156.82 157.97 156.27 C 147.61 155.87 141.93 167.28 132.12 168.62 C 127.57 167.90 124.01 164.53 121.05 161.22 C 125.35 159.53 129.70 157.86 133.66 155.45 C 135.50 154.02 136.95 152.17 138.44 150.39 C 147.50 151.74 156.92 150.78 165.39 147.25 Z" />
</g>
<g id="#21110ed2">
<path fill="#21110e" opacity="0.82" d=" M 230.15 154.64 C 231.47 151.85 233.22 149.31 234.99 146.79 C 234.22 150.35 232.36 153.65 229.67 156.12 C 229.79 155.75 230.03 155.01 230.15 154.64 Z" />
</g>
<g id="#aa5950ff">
<path fill="#aa5950" opacity="1.00" d=" M 329.30 154.97 C 329.72 154.74 330.56 154.30 330.98 154.07 C 334.83 157.59 339.40 160.43 342.28 164.90 C 339.67 162.91 337.01 161.01 334.42 159.01 C 334.53 161.39 334.60 163.77 334.80 166.15 C 332.86 162.47 331.34 158.59 329.30 154.97 Z" />
<path fill="#aa5950" opacity="1.00" d=" M 403.32 213.52 C 405.67 215.95 407.11 219.07 407.77 222.37 C 406.98 221.25 406.15 220.16 405.32 219.08 C 405.18 219.86 404.89 221.42 404.74 222.20 C 403.66 219.43 403.33 216.47 403.32 213.52 Z" />
<path fill="#aa5950" opacity="1.00" d=" M 361.31 334.37 C 367.13 331.76 372.60 327.65 379.25 327.62 C 376.36 333.62 371.55 338.30 367.28 343.30 C 360.64 350.87 352.84 357.74 343.34 361.43 C 328.50 368.07 311.22 369.93 295.58 365.14 C 295.87 359.34 297.01 353.65 297.87 347.93 C 298.66 342.83 297.48 337.74 296.80 332.70 C 299.57 334.36 301.98 336.72 305.03 337.88 C 309.07 338.73 313.20 339.05 317.27 339.73 C 315.76 339.87 314.27 340.03 312.78 340.23 C 320.58 342.31 328.71 343.19 336.77 342.72 C 345.55 342.14 353.46 337.96 361.31 334.37 Z" />
</g>
<g id="#e3743eff">
<path fill="#e3743e" opacity="1.00" d=" M 334.42 159.01 C 337.01 161.01 339.67 162.91 342.28 164.90 C 342.49 165.16 342.90 165.68 343.11 165.95 C 345.18 169.17 347.77 172.00 350.75 174.40 C 353.10 176.63 354.96 179.34 357.45 181.45 C 356.39 177.25 354.93 173.15 354.11 168.90 C 359.54 172.00 362.97 177.42 367.01 182.00 C 368.22 183.59 369.91 185.03 370.31 187.07 C 370.37 187.43 370.49 188.14 370.55 188.50 C 370.60 188.87 370.68 189.61 370.73 189.98 C 366.46 188.76 362.26 186.82 357.78 186.69 C 354.15 187.61 350.93 189.64 347.49 191.03 C 347.65 192.66 347.81 194.30 348.06 195.93 C 343.82 185.92 339.34 176.01 334.80 166.15 C 334.60 163.77 334.53 161.39 334.42 159.01 Z" />
</g>
<g id="#e09992ff">
<path fill="#e09992" opacity="1.00" d=" M 343.11 165.95 C 345.83 168.59 348.52 171.31 350.75 174.40 C 347.77 172.00 345.18 169.17 343.11 165.95 Z" />
<path fill="#e09992" opacity="1.00" d=" M 105.66 352.74 C 107.45 352.29 109.25 351.84 111.05 351.38 C 112.66 356.58 116.05 362.82 112.64 367.96 C 107.52 368.33 105.22 362.88 102.47 359.56 C 103.47 357.25 104.53 354.98 105.66 352.74 Z" />
</g>
<g id="#e07e6dff">
<path fill="#e07e6d" opacity="1.00" d=" M 181.34 182.19 L 181.43 181.44 C 188.16 186.67 195.21 191.52 202.86 195.30 C 211.06 199.21 220.85 201.13 229.63 198.09 C 233.01 199.10 236.41 200.04 239.90 200.62 C 238.78 200.77 237.66 200.93 236.55 201.11 C 237.61 203.85 238.21 207.66 241.42 208.63 C 244.93 208.67 248.03 206.60 251.17 205.27 C 256.90 212.19 265.35 215.68 273.06 219.84 C 279.75 223.42 286.75 226.51 294.09 228.48 C 297.57 234.01 303.46 237.81 305.89 244.02 C 307.37 247.72 308.47 251.55 309.63 255.36 C 312.35 263.98 312.36 273.10 314.09 281.92 C 314.64 286.15 315.88 291.20 312.76 294.76 C 308.79 299.40 303.20 302.14 298.44 305.83 C 297.10 305.05 295.78 304.26 294.43 303.52 C 294.87 298.35 295.66 292.96 293.91 287.95 C 292.61 284.13 290.90 280.48 289.44 276.73 C 287.19 284.40 282.99 292.64 286.17 300.65 C 284.67 301.63 283.22 302.68 281.78 303.75 C 281.21 299.99 280.64 296.15 281.38 292.37 C 284.06 278.74 283.05 264.79 282.41 251.02 C 282.12 248.34 282.19 245.04 279.69 243.35 C 273.14 238.29 265.16 235.71 257.73 232.28 C 252.54 230.17 246.81 227.46 241.17 229.57 L 240.33 229.78 C 237.26 246.23 235.62 262.98 231.13 279.13 C 229.06 277.40 227.00 275.66 224.94 273.93 C 224.20 276.39 223.44 278.83 222.83 281.33 C 220.64 268.57 218.78 255.67 214.49 243.41 C 211.83 235.63 209.88 227.47 205.57 220.39 C 202.20 215.50 197.51 211.60 192.46 208.54 C 189.88 207.05 186.75 205.76 183.77 206.79 C 177.24 209.12 172.75 214.66 168.19 219.59 C 168.32 217.94 168.46 216.29 168.58 214.64 C 168.20 215.42 167.82 216.20 167.45 216.99 C 162.94 214.82 158.15 212.61 155.38 208.21 C 156.95 206.19 157.97 203.58 160.23 202.21 C 165.40 199.52 171.48 199.15 176.61 196.40 C 179.64 192.63 180.67 187.67 181.24 182.98 L 181.34 182.19 Z" />
<path fill="#e07e6d" opacity="1.00" d=" M 253.19 301.71 C 257.80 301.07 261.28 305.00 263.47 308.54 C 268.50 316.89 272.44 326.00 274.31 335.61 C 275.58 342.39 277.62 349.06 278.14 355.96 C 278.78 361.99 276.54 367.72 274.42 373.23 C 272.78 377.01 271.95 381.77 268.19 384.10 C 263.36 386.52 257.91 387.29 252.80 388.97 C 251.49 387.60 250.11 386.30 248.69 385.05 C 250.01 387.61 251.59 390.08 253.80 391.98 C 249.26 392.99 244.95 390.74 240.83 389.18 C 237.26 387.69 233.50 386.74 229.70 386.08 C 226.71 382.56 225.02 378.17 224.35 373.64 C 221.03 354.03 222.35 333.41 229.65 314.81 C 237.62 310.67 244.05 303.40 253.19 301.71 M 244.17 364.73 C 243.29 368.61 242.16 372.72 243.41 376.65 C 244.18 379.79 247.77 381.51 250.80 380.93 C 253.02 380.65 253.71 378.04 253.62 376.14 C 252.97 370.96 249.67 365.65 244.17 364.73 Z" />
</g>
<g id="#934b49ff">
<path fill="#934b49" opacity="1.00" d=" M 374.41 184.49 C 375.29 185.43 376.76 186.15 376.88 187.59 C 377.18 189.62 377.49 191.66 378.19 193.60 C 377.12 193.97 376.06 194.34 375.00 194.71 C 373.47 192.67 371.95 190.63 370.55 188.50 C 370.49 188.14 370.37 187.43 370.31 187.07 C 371.91 188.53 373.56 189.96 375.47 191.02 C 375.17 188.83 374.71 186.67 374.41 184.49 Z" />
</g>
<g id="#de573bff">
<path fill="#de573b" opacity="1.00" d=" M 347.49 191.03 C 350.93 189.64 354.15 187.61 357.78 186.69 C 362.26 186.82 366.46 188.76 370.73 189.98 C 370.97 193.41 372.00 196.70 372.82 200.02 C 373.90 204.24 372.15 208.44 371.06 212.46 C 370.29 211.12 369.53 209.79 368.75 208.46 C 367.07 205.02 362.78 204.73 359.69 203.20 C 359.13 202.82 358.03 202.05 357.48 201.67 C 354.94 199.90 352.23 198.40 349.49 196.98 C 349.56 197.79 349.69 199.40 349.76 200.20 C 349.10 198.81 348.41 197.43 348.06 195.93 C 347.81 194.30 347.65 192.66 347.49 191.03 Z" />
</g>
<g id="#de583bff">
<path fill="#de583b" opacity="1.00" d=" M 378.19 193.60 C 377.49 191.66 377.18 189.62 376.88 187.59 C 380.52 191.50 383.65 195.90 386.69 200.28 C 387.00 200.70 387.63 201.54 387.94 201.97 C 388.15 202.28 388.56 202.89 388.77 203.20 C 389.07 203.63 389.68 204.50 389.98 204.93 C 391.72 206.63 392.97 208.75 394.54 210.60 C 393.42 211.40 392.31 212.21 391.20 213.02 C 391.73 215.49 392.22 217.97 392.67 220.46 C 389.80 218.76 386.58 217.14 384.93 214.08 C 382.91 210.35 383.00 205.97 381.98 201.95 C 381.31 198.93 379.61 196.30 378.19 193.60 Z" />
</g>
<g id="#e37e4bff">
<path fill="#e37e4b" opacity="1.00" d=" M 370.73 189.98 C 370.68 189.61 370.60 188.87 370.55 188.50 C 371.95 190.63 373.47 192.67 375.00 194.71 C 376.06 194.34 377.12 193.97 378.19 193.60 C 379.61 196.30 381.31 198.93 381.98 201.95 C 383.00 205.97 382.91 210.35 384.93 214.08 C 386.58 217.14 389.80 218.76 392.67 220.46 C 392.22 217.97 391.73 215.49 391.20 213.02 C 392.31 212.21 393.42 211.40 394.54 210.60 C 394.53 210.95 394.50 211.64 394.49 211.99 C 394.34 214.93 393.85 217.88 394.17 220.82 C 394.61 223.38 396.12 225.57 397.49 227.72 C 397.02 229.90 396.56 232.08 396.09 234.27 C 393.69 231.59 391.42 228.79 389.08 226.06 C 389.70 229.60 390.31 233.15 391.06 236.67 C 391.70 239.44 391.91 242.40 393.23 244.98 C 395.59 248.21 399.05 250.59 400.79 254.30 C 400.90 254.75 401.12 255.65 401.22 256.10 C 397.81 253.74 395.26 250.45 392.38 247.52 C 391.21 246.22 389.27 246.81 387.74 246.58 C 389.73 251.42 392.51 255.98 393.63 261.14 C 393.33 260.91 392.72 260.45 392.42 260.22 C 392.31 263.32 392.17 266.43 392.01 269.53 L 391.06 269.19 C 389.88 263.97 389.20 258.65 387.82 253.48 C 387.55 252.44 387.27 251.41 386.99 250.38 C 383.97 248.87 381.67 246.35 380.82 243.04 C 379.17 238.62 377.39 234.25 375.97 229.74 C 378.50 231.63 380.91 233.70 382.94 236.12 C 384.42 238.03 386.01 239.85 387.68 241.60 C 388.01 231.71 383.29 222.59 379.13 213.91 C 377.94 212.13 376.64 210.44 375.35 208.75 C 374.48 210.98 373.62 213.21 372.76 215.45 C 372.18 214.45 371.62 213.46 371.06 212.46 C 372.15 208.44 373.90 204.24 372.82 200.02 C 372.00 196.70 370.97 193.41 370.73 189.98 Z" />
</g>
<g id="#ec9b70ff">
<path fill="#ec9b70" opacity="1.00" d=" M 349.49 196.98 C 352.23 198.40 354.94 199.90 357.48 201.67 C 357.85 205.58 359.67 209.07 361.69 212.36 C 364.34 216.45 363.70 221.49 364.03 226.11 C 362.19 221.87 359.68 217.97 356.91 214.28 C 356.52 214.63 355.73 215.32 355.34 215.67 C 354.08 210.30 351.40 205.43 349.76 200.20 C 349.69 199.40 349.56 197.79 349.49 196.98 Z" />
</g>
<g id="#542b2c98">
<path fill="#542b2c" opacity="0.60" d=" M 386.69 200.28 L 387.60 200.24 L 388.24 201.11 L 387.94 201.97 C 387.63 201.54 387.00 200.70 386.69 200.28 Z" />
</g>
<g id="#e69183ff">
<path fill="#e69183" opacity="1.00" d=" M 236.55 201.11 C 237.66 200.93 238.78 200.77 239.90 200.62 C 244.16 200.59 248.44 201.82 251.17 205.27 C 248.03 206.60 244.93 208.67 241.42 208.63 C 238.21 207.66 237.61 203.85 236.55 201.11 Z" />
</g>
<g id="#fad664ff">
<path fill="#fad664" opacity="1.00" d=" M 361.69 212.36 C 359.67 209.07 357.85 205.58 357.48 201.67 C 358.03 202.05 359.13 202.82 359.69 203.20 C 363.06 207.42 365.97 212.00 369.29 216.26 C 369.17 213.66 369.04 211.05 368.75 208.46 C 369.53 209.79 370.29 211.12 371.06 212.46 C 371.62 213.46 372.18 214.45 372.76 215.45 C 373.62 213.21 374.48 210.98 375.35 208.75 C 376.64 210.44 377.94 212.13 379.13 213.91 C 378.14 216.17 377.50 218.77 375.62 220.49 C 372.62 220.78 369.61 220.32 366.62 220.57 C 365.82 223.73 365.71 227.01 365.68 230.26 C 365.14 228.87 364.57 227.49 364.03 226.11 C 363.70 221.49 364.34 216.45 361.69 212.36 Z" />
</g>
<g id="#e47a42ff">
<path fill="#e47a42" opacity="1.00" d=" M 359.69 203.20 C 362.78 204.73 367.07 205.02 368.75 208.46 C 369.04 211.05 369.17 213.66 369.29 216.26 C 365.97 212.00 363.06 207.42 359.69 203.20 Z" />
</g>
<g id="#5f3233b0">
<path fill="#5f3233" opacity="0.69" d=" M 388.77 203.20 L 389.68 203.20 L 390.30 204.08 L 389.98 204.93 C 389.68 204.50 389.07 203.63 388.77 203.20 Z" />
</g>
<g id="#be5f4eff">
<path fill="#be5f4e" opacity="1.00" d=" M 149.60 211.59 C 151.65 210.70 153.65 209.63 155.38 208.21 C 158.15 212.61 162.94 214.82 167.45 216.99 C 165.98 219.93 164.88 223.14 162.79 225.72 C 157.39 227.94 151.57 229.00 146.12 231.10 C 140.63 233.24 134.46 234.81 130.43 239.42 C 123.99 246.61 118.76 254.81 114.41 263.41 C 111.82 268.72 110.78 275.12 105.94 279.01 C 104.48 277.09 103.03 275.16 101.35 273.44 C 105.30 267.46 109.31 261.48 114.27 256.28 C 119.20 251.20 122.28 244.78 125.65 238.66 C 127.33 235.40 129.09 231.92 128.94 228.17 C 127.80 225.29 125.28 223.22 123.37 220.83 C 122.96 220.78 122.15 220.68 121.74 220.63 C 131.19 218.18 140.60 215.42 149.60 211.59 Z" />
</g>
<g id="#e8cebbff">
<path fill="#e8cebb" opacity="1.00" d=" M 178.21 211.43 C 181.30 209.54 184.76 206.98 188.57 208.45 C 195.80 211.13 202.01 216.54 205.71 223.31 C 208.97 229.05 210.19 235.59 212.32 241.77 C 214.70 248.72 216.90 255.76 218.13 263.01 C 220.48 276.93 222.90 290.86 224.35 304.90 C 224.21 305.48 223.94 306.65 223.80 307.23 C 222.96 304.30 222.25 301.32 221.75 298.31 C 220.30 289.49 219.43 280.49 216.26 272.07 C 214.12 273.68 212.12 275.58 209.59 276.57 C 207.65 276.98 205.64 276.89 203.67 276.94 C 203.12 273.21 202.93 269.26 201.06 265.90 C 198.89 262.33 195.24 260.06 191.97 257.61 C 187.83 262.90 184.11 268.49 180.54 274.17 C 185.17 276.93 189.95 279.44 194.90 281.61 C 198.12 280.45 201.37 278.95 204.86 278.99 C 206.68 279.51 208.10 280.85 209.65 281.87 C 206.07 282.56 202.46 283.06 198.84 283.46 C 198.45 290.66 201.83 297.12 204.40 303.61 C 206.05 307.88 210.04 310.77 211.33 315.22 C 211.24 315.89 211.04 317.25 210.95 317.93 C 206.32 321.37 201.96 325.31 196.60 327.59 C 190.26 330.28 183.75 332.82 176.88 333.69 C 169.84 334.68 162.70 332.71 155.70 334.27 C 153.69 330.99 151.88 327.60 150.19 324.15 C 154.15 324.70 158.13 325.00 162.12 325.18 C 164.23 318.29 162.50 310.69 157.54 305.46 C 154.93 302.41 150.62 302.35 146.97 301.71 C 147.53 307.28 148.10 312.85 148.23 318.45 C 144.80 311.08 144.33 302.75 144.22 294.75 C 144.52 297.26 144.98 299.76 145.36 302.26 C 146.01 299.39 145.89 296.09 147.76 293.66 C 154.14 287.16 162.54 283.23 169.60 277.60 C 175.96 272.67 172.93 262.97 178.62 257.62 C 183.39 253.12 190.86 252.27 194.60 246.51 C 197.95 242.62 195.70 237.35 195.54 232.84 C 194.76 227.44 195.91 220.71 191.19 216.81 C 187.48 213.45 182.18 214.34 177.65 214.80 C 177.83 213.67 178.02 212.55 178.21 211.43 Z" />
</g>
<g id="#7e403fda">
<path fill="#7e403f" opacity="0.85" d=" M 336.59 208.25 C 340.39 209.98 343.45 212.88 346.18 215.97 C 344.09 214.66 341.99 213.38 339.90 212.08 C 339.57 212.58 338.90 213.58 338.57 214.08 C 337.82 212.16 337.15 210.22 336.59 208.25 Z" />
</g>
<g id="#de553bff">
<path fill="#de553b" opacity="1.00" d=" M 349.04 210.52 C 350.92 212.42 352.68 214.43 354.54 216.35 L 355.34 215.67 C 355.73 215.32 356.52 214.63 356.91 214.28 C 359.68 217.97 362.19 221.87 364.03 226.11 C 364.57 227.49 365.14 228.87 365.68 230.26 C 366.11 231.44 366.55 232.63 367.01 233.81 C 365.47 239.26 366.17 244.94 366.12 250.51 C 364.54 246.45 362.63 242.54 360.90 238.55 C 360.77 238.13 360.51 237.29 360.38 236.87 C 359.58 238.35 358.79 239.82 358.00 241.30 C 355.03 237.24 351.75 233.41 348.13 229.91 C 347.98 231.29 347.84 232.68 347.71 234.07 C 347.16 232.75 346.62 231.44 346.13 230.10 C 345.25 227.59 344.26 225.12 343.02 222.76 C 341.55 219.86 340.14 216.93 338.57 214.08 C 338.90 213.58 339.57 212.58 339.90 212.08 C 341.99 213.38 344.09 214.66 346.18 215.97 C 347.40 216.79 348.62 217.60 349.85 218.42 C 349.62 215.78 349.29 213.15 349.04 210.52 Z" />
</g>
<g id="#f0d8ccff">
<path fill="#f0d8cc" opacity="1.00" d=" M 161.99 230.98 C 165.87 223.36 171.97 217.16 178.21 211.43 C 178.02 212.55 177.83 213.67 177.65 214.80 C 182.18 214.34 187.48 213.45 191.19 216.81 C 195.91 220.71 194.76 227.44 195.54 232.84 C 195.70 237.35 197.95 242.62 194.60 246.51 C 190.86 252.27 183.39 253.12 178.62 257.62 C 172.93 262.97 175.96 272.67 169.60 277.60 C 162.54 283.23 154.14 287.16 147.76 293.66 C 145.89 296.09 146.01 299.39 145.36 302.26 C 144.98 299.76 144.52 297.26 144.22 294.75 C 144.35 279.67 146.83 264.56 152.35 250.49 C 155.31 243.86 158.70 237.44 161.99 230.98 Z" />
</g>
<g id="#fad766ff">
<path fill="#fad766" opacity="1.00" d=" M 394.49 211.99 C 397.65 215.65 400.57 219.71 402.05 224.37 C 403.13 227.78 403.95 231.26 404.71 234.76 C 403.49 238.02 404.36 241.36 405.88 244.34 C 403.21 244.35 400.12 245.06 397.86 243.19 C 395.33 241.31 393.16 239.00 391.06 236.67 C 390.31 233.15 389.70 229.60 389.08 226.06 C 391.42 228.79 393.69 231.59 396.09 234.27 C 397.17 235.44 398.30 236.58 399.44 237.72 C 399.85 236.22 400.72 234.78 400.64 233.19 C 399.91 231.20 398.62 229.49 397.49 227.72 C 396.12 225.57 394.61 223.38 394.17 220.82 C 393.85 217.88 394.34 214.93 394.49 211.99 Z" />
</g>
<g id="#fbe2a8ff">
<path fill="#fbe2a8" opacity="1.00" d=" M 375.62 220.49 C 377.50 218.77 378.14 216.17 379.13 213.91 C 383.29 222.59 388.01 231.71 387.68 241.60 C 386.01 239.85 384.42 238.03 382.94 236.12 C 381.64 232.82 381.11 229.04 378.71 226.30 C 375.67 223.74 371.44 223.58 367.72 222.78 C 367.46 226.93 367.22 231.55 369.94 235.03 C 372.85 238.55 377.14 240.47 380.82 243.04 C 381.67 246.35 383.97 248.87 386.99 250.38 C 387.27 251.41 387.55 252.44 387.82 253.48 C 385.83 252.77 383.60 252.42 381.94 251.04 C 379.66 248.63 378.47 245.36 375.96 243.15 C 373.83 241.44 371.34 240.30 368.96 239.02 C 368.33 237.28 367.67 235.54 367.01 233.81 C 366.55 232.63 366.11 231.44 365.68 230.26 C 365.71 227.01 365.82 223.73 366.62 220.57 C 369.61 220.32 372.62 220.78 375.62 220.49 Z" />
</g>
<g id="#df5c3aff">
<path fill="#df5c3a" opacity="1.00" d=" M 405.32 219.08 C 406.15 220.16 406.98 221.25 407.77 222.37 C 410.74 227.83 412.36 233.91 414.25 239.80 C 413.92 241.78 413.50 243.74 412.98 245.68 C 411.20 245.06 409.24 244.63 407.78 243.37 C 406.04 240.82 405.51 237.69 404.71 234.76 C 403.95 231.26 403.13 227.78 402.05 224.37 C 402.65 224.32 403.84 224.22 404.43 224.17 C 404.51 223.68 404.66 222.69 404.74 222.20 C 404.89 221.42 405.18 219.86 405.32 219.08 Z" />
</g>
<g id="#ce6e60ff">
<path fill="#ce6e60" opacity="1.00" d=" M 116.52 221.73 C 118.24 221.29 119.99 220.95 121.74 220.63 C 122.15 220.68 122.96 220.78 123.37 220.83 C 125.28 223.22 127.80 225.29 128.94 228.17 C 129.09 231.92 127.33 235.40 125.65 238.66 C 122.28 244.78 119.20 251.20 114.27 256.28 C 109.31 261.48 105.30 267.46 101.35 273.44 C 100.18 272.56 98.98 271.74 97.78 270.91 C 103.48 265.50 108.10 259.13 113.07 253.08 C 117.58 247.58 121.14 241.33 123.70 234.70 C 124.44 232.44 125.35 229.96 124.62 227.59 C 122.32 225.14 119.30 223.56 116.52 221.73 Z" />
</g>
<g id="#e08679ff">
<path fill="#e08679" opacity="1.00" d=" M 91.14 243.42 C 98.36 234.96 106.13 226.22 116.52 221.73 C 119.30 223.56 122.32 225.14 124.62 227.59 C 125.35 229.96 124.44 232.44 123.70 234.70 C 121.14 241.33 117.58 247.58 113.07 253.08 C 108.10 259.13 103.48 265.50 97.78 270.91 C 94.06 271.53 89.70 271.91 87.22 275.15 C 85.81 276.75 86.21 279.03 86.02 280.99 C 82.43 281.51 78.86 282.18 75.33 283.00 C 72.63 280.79 69.24 278.55 65.57 279.42 C 62.94 282.76 63.51 287.29 62.04 291.07 C 60.11 293.16 57.81 294.87 55.73 296.81 C 58.43 289.20 61.17 281.60 63.45 273.85 C 66.51 274.07 70.07 274.88 72.66 272.72 C 79.83 266.89 82.96 257.79 89.01 251.00 C 91.04 248.98 91.45 246.15 91.14 243.42 Z" />
</g>
<g id="#6d3736bc">
<path fill="#6d3736" opacity="0.74" d=" M 343.02 222.76 C 344.26 225.12 345.25 227.59 346.13 230.10 C 344.57 227.91 343.59 225.38 343.02 222.76 Z" />
</g>
<g id="#fad764ff">
<path fill="#fad764" opacity="1.00" d=" M 367.72 222.78 C 371.44 223.58 375.67 223.74 378.71 226.30 C 381.11 229.04 381.64 232.82 382.94 236.12 C 380.91 233.70 378.50 231.63 375.97 229.74 C 377.39 234.25 379.17 238.62 380.82 243.04 C 377.14 240.47 372.85 238.55 369.94 235.03 C 367.22 231.55 367.46 226.93 367.72 222.78 Z" />
</g>
<g id="#c29166ff">
<path fill="#c29166" opacity="1.00" d=" M 397.49 227.72 C 398.62 229.49 399.91 231.20 400.64 233.19 C 400.72 234.78 399.85 236.22 399.44 237.72 C 398.30 236.58 397.17 235.44 396.09 234.27 C 396.56 232.08 397.02 229.90 397.49 227.72 Z" />
</g>
<g id="#cc6858ff">
<path fill="#cc6858" opacity="1.00" d=" M 294.09 228.48 C 297.14 229.14 300.26 230.22 302.16 232.87 C 307.87 239.85 311.38 248.30 315.27 256.36 C 314.81 256.79 313.88 257.65 313.42 258.08 C 316.40 267.11 316.55 276.69 317.93 286.02 C 318.22 289.36 319.04 292.87 318.05 296.16 C 316.19 298.60 313.43 300.12 311.01 301.94 C 312.08 302.17 313.16 302.39 314.25 302.61 C 311.04 303.61 307.62 304.69 305.43 307.41 C 303.51 309.70 300.84 311.09 298.27 312.49 C 298.36 310.27 298.45 308.05 298.44 305.83 C 303.20 302.14 308.79 299.40 312.76 294.76 C 315.88 291.20 314.64 286.15 314.09 281.92 C 312.36 273.10 312.35 263.98 309.63 255.36 C 308.47 251.55 307.37 247.72 305.89 244.02 C 303.46 237.81 297.57 234.01 294.09 228.48 Z" />
</g>
<g id="#f1b56dff">
<path fill="#f1b56d" opacity="1.00" d=" M 348.13 229.91 C 351.75 233.41 355.03 237.24 358.00 241.30 C 358.79 239.82 359.58 238.35 360.38 236.87 C 360.51 237.29 360.77 238.13 360.90 238.55 C 360.60 239.94 360.26 241.31 359.92 242.69 C 358.68 242.62 357.44 242.56 356.21 242.51 C 357.31 246.62 357.78 250.86 358.18 255.09 C 355.17 252.06 352.10 249.08 349.14 246.01 C 349.54 242.53 350.11 238.83 348.38 235.59 C 348.21 235.21 347.88 234.45 347.71 234.07 C 347.84 232.68 347.98 231.29 348.13 229.91 Z" />
</g>
<g id="#d36c5cff">
<path fill="#d36c5c" opacity="1.00" d=" M 240.33 229.78 C 241.11 230.17 242.69 230.96 243.47 231.35 C 243.34 233.90 243.22 236.45 243.00 239.00 C 242.51 247.20 238.67 254.70 237.75 262.83 C 236.94 269.43 234.90 275.80 231.92 281.73 C 229.76 281.19 227.59 280.66 225.42 280.13 C 224.95 283.18 224.41 286.22 224.04 289.29 C 223.66 286.63 223.19 283.98 222.83 281.33 C 223.44 278.83 224.20 276.39 224.94 273.93 C 227.00 275.66 229.06 277.40 231.13 279.13 C 235.62 262.98 237.26 246.23 240.33 229.78 Z" />
</g>
<g id="#ea954eff">
<path fill="#ea954e" opacity="1.00" d=" M 367.01 233.81 C 367.67 235.54 368.33 237.28 368.96 239.02 C 368.50 240.77 368.02 242.51 367.70 244.29 C 367.80 245.45 367.93 246.60 368.10 247.76 C 368.47 250.65 368.59 253.57 368.65 256.49 C 367.75 254.51 366.88 252.53 366.12 250.51 C 366.17 244.94 365.47 239.26 367.01 233.81 Z" />
</g>
<g id="#d56e5dff">
<path fill="#d56e5d" opacity="1.00" d=" M 404.71 234.76 C 405.51 237.69 406.04 240.82 407.78 243.37 C 409.24 244.63 411.20 245.06 412.98 245.68 C 411.69 246.77 410.12 247.56 409.05 248.89 C 409.04 252.67 409.33 256.45 409.32 260.23 C 408.62 256.43 408.04 252.59 407.26 248.80 C 406.95 247.27 406.45 245.79 405.88 244.34 C 404.36 241.36 403.49 238.02 404.71 234.76 Z" />
<path fill="#d56e5d" opacity="1.00" d=" M 383.06 295.81 C 385.44 295.78 387.82 295.77 390.20 295.77 C 389.60 300.70 389.17 305.72 387.42 310.41 C 385.18 316.37 382.07 321.93 379.25 327.62 C 372.60 327.65 367.13 331.76 361.31 334.37 C 353.46 337.96 345.55 342.14 336.77 342.72 C 328.71 343.19 320.58 342.31 312.78 340.23 C 314.27 340.03 315.76 339.87 317.27 339.73 C 323.46 340.57 329.72 340.93 335.98 340.76 C 341.83 340.56 347.17 337.82 352.30 335.27 C 359.45 331.52 366.32 326.72 371.00 320.04 C 376.05 312.53 380.40 304.49 383.06 295.81 Z" />
</g>
<g id="#dd503bff">
<path fill="#dd503b" opacity="1.00" d=" M 348.38 235.59 C 350.11 238.83 349.54 242.53 349.14 246.01 C 352.10 249.08 355.17 252.06 358.18 255.09 C 359.91 258.47 361.52 261.90 363.01 265.38 C 362.20 265.56 360.58 265.91 359.77 266.08 C 359.37 266.17 358.55 266.35 358.14 266.44 C 357.91 267.12 357.45 268.48 357.22 269.16 C 352.81 264.04 344.74 260.77 345.52 252.75 C 347.13 247.14 349.76 241.58 348.38 235.59 Z" />
</g>
<g id="#fae0a4ff">
<path fill="#fae0a4" opacity="1.00" d=" M 391.06 236.67 C 393.16 239.00 395.33 241.31 397.86 243.19 C 400.12 245.06 403.21 244.35 405.88 244.34 C 406.45 245.79 406.95 247.27 407.26 248.80 C 407.15 250.04 407.04 251.28 406.91 252.52 C 404.86 253.10 402.82 253.70 400.79 254.30 C 399.05 250.59 395.59 248.21 393.23 244.98 C 391.91 242.40 391.70 239.44 391.06 236.67 Z" />
</g>
<g id="#fbda65ff">
<path fill="#fbda65" opacity="1.00" d=" M 359.92 242.69 C 360.26 241.31 360.60 239.94 360.90 238.55 C 362.63 242.54 364.54 246.45 366.12 250.51 C 366.88 252.53 367.75 254.51 368.65 256.49 C 368.59 253.57 368.47 250.65 368.10 247.76 C 370.05 250.51 372.46 252.91 374.32 255.73 C 376.31 258.73 376.65 262.41 377.43 265.84 C 378.73 272.57 381.62 278.83 383.57 285.36 C 383.28 286.68 383.00 288.01 382.72 289.33 C 380.14 287.28 377.58 285.04 376.11 282.02 C 374.22 278.67 373.22 274.48 369.79 272.28 C 366.53 270.08 363.14 268.11 359.77 266.08 C 360.58 265.91 362.20 265.56 363.01 265.38 C 361.52 261.90 359.91 258.47 358.18 255.09 C 357.78 250.86 357.31 246.62 356.21 242.51 C 357.44 242.56 358.68 242.62 359.92 242.69 Z" />
</g>
<g id="#fbdb65ff">
<path fill="#fbdb65" opacity="1.00" d=" M 368.96 239.02 C 371.34 240.30 373.83 241.44 375.96 243.15 C 378.47 245.36 379.66 248.63 381.94 251.04 C 383.60 252.42 385.83 252.77 387.82 253.48 C 389.20 258.65 389.88 263.97 391.06 269.19 C 388.81 268.19 385.70 268.08 384.47 265.61 C 382.29 261.57 381.54 256.87 378.95 253.02 C 376.60 249.55 373.59 246.60 370.85 243.45 C 369.80 243.72 368.75 244.01 367.70 244.29 C 368.02 242.51 368.50 240.77 368.96 239.02 Z" />
</g>
<g id="#f7c966ff">
<path fill="#f7c966" opacity="1.00" d=" M 414.25 239.80 C 416.04 245.18 417.99 250.52 419.44 256.00 C 419.96 257.74 418.87 259.36 418.40 260.97 L 418.10 260.30 C 416.04 256.40 414.78 251.03 410.32 249.28 C 409.45 254.80 413.39 259.54 415.12 264.54 C 412.39 267.32 409.95 270.38 408.00 273.75 L 407.72 273.36 C 403.60 268.50 402.48 262.14 401.22 256.10 C 401.12 255.65 400.90 254.75 400.79 254.30 C 402.82 253.70 404.86 253.10 406.91 252.52 C 407.04 251.28 407.15 250.04 407.26 248.80 C 408.04 252.59 408.62 256.43 409.32 260.23 C 409.33 256.45 409.04 252.67 409.05 248.89 C 410.12 247.56 411.69 246.77 412.98 245.68 C 413.50 243.74 413.92 241.78 414.25 239.80 Z" />
</g>
<g id="#fbe1a3ff">
<path fill="#fbe1a3" opacity="1.00" d=" M 367.70 244.29 C 368.75 244.01 369.80 243.72 370.85 243.45 C 373.59 246.60 376.60 249.55 378.95 253.02 C 381.54 256.87 382.29 261.57 384.47 265.61 C 385.70 268.08 388.81 268.19 391.06 269.19 L 392.01 269.53 C 392.17 266.43 392.31 263.32 392.42 260.22 C 392.72 260.45 393.33 260.91 393.63 261.14 C 394.15 264.07 394.44 267.03 394.96 269.96 C 395.69 273.29 397.13 276.40 398.93 279.28 C 398.78 280.67 398.63 282.05 398.48 283.45 C 395.21 282.31 392.67 279.94 390.99 276.95 C 388.65 272.95 385.12 269.85 381.06 267.68 C 381.49 272.95 382.63 278.12 383.64 283.31 L 383.80 284.26 L 383.57 285.36 C 381.62 278.83 378.73 272.57 377.43 265.84 C 376.65 262.41 376.31 258.73 374.32 255.73 C 372.46 252.91 370.05 250.51 368.10 247.76 C 367.93 246.60 367.80 245.45 367.70 244.29 Z" />
</g>
<g id="#e5a098ff">
<path fill="#e5a098" opacity="1.00" d=" M 67.50 267.49 C 75.26 259.35 83.51 251.68 91.14 243.42 C 91.45 246.15 91.04 248.98 89.01 251.00 C 82.96 257.79 79.83 266.89 72.66 272.72 C 70.07 274.88 66.51 274.07 63.45 273.85 C 64.29 271.45 65.70 269.28 67.50 267.49 Z" />
</g>
<g id="#e0673cff">
<path fill="#e0673c" opacity="1.00" d=" M 387.74 246.58 C 389.27 246.81 391.21 246.22 392.38 247.52 C 395.26 250.45 397.81 253.74 401.22 256.10 C 402.48 262.14 403.60 268.50 407.72 273.36 C 407.02 279.16 406.90 285.72 402.26 289.97 C 398.23 291.74 394.21 293.60 389.95 294.75 C 390.33 294.41 391.08 293.74 391.45 293.40 C 394.51 290.68 397.43 287.51 398.48 283.45 C 398.63 282.05 398.78 280.67 398.93 279.28 C 399.56 277.55 400.30 275.87 401.06 274.20 C 399.02 272.78 396.99 271.37 394.96 269.96 C 394.44 267.03 394.15 264.07 393.63 261.14 C 392.51 255.98 389.73 251.42 387.74 246.58 Z" />
</g>
<g id="#fbe2a9ff">
<path fill="#fbe2a9" opacity="1.00" d=" M 410.32 249.28 C 414.78 251.03 416.04 256.40 418.10 260.30 C 417.12 261.73 416.11 263.13 415.12 264.54 C 413.39 259.54 409.45 254.80 410.32 249.28 Z" />
</g>
<g id="#824540dc">
<path fill="#824540" opacity="0.86" d=" M 344.89 259.83 C 344.32 257.46 345.03 255.06 345.52 252.75 C 344.74 260.77 352.81 264.04 357.22 269.16 C 359.75 273.10 360.75 277.71 361.90 282.19 C 363.31 287.92 369.27 290.53 373.96 293.17 C 375.59 293.62 377.25 293.98 378.93 294.23 C 382.56 294.85 386.27 294.99 389.95 294.75 C 394.21 293.60 398.23 291.74 402.26 289.97 C 399.24 293.61 393.82 293.77 390.92 297.54 C 390.74 297.10 390.38 296.21 390.20 295.77 C 387.82 295.77 385.44 295.78 383.06 295.81 C 382.64 295.82 381.81 295.83 381.39 295.83 C 374.85 295.43 368.54 292.62 363.54 288.47 C 360.09 285.82 360.62 281.16 359.60 277.40 C 358.44 271.82 354.33 267.41 349.71 264.36 C 347.94 263.05 345.86 261.89 344.89 259.83 Z" />
</g>
<g id="#bd5d4dff">
<path fill="#bd5d4d" opacity="1.00" d=" M 313.42 258.08 C 313.88 257.65 314.81 256.79 315.27 256.36 C 319.94 268.18 324.74 279.95 329.28 291.82 C 330.48 295.42 332.11 298.99 332.34 302.83 C 330.19 305.48 327.50 307.64 325.12 310.08 C 324.07 307.65 323.05 305.21 321.98 302.80 C 319.40 302.69 316.82 302.64 314.25 302.61 C 313.16 302.39 312.08 302.17 311.01 301.94 C 313.43 300.12 316.19 298.60 318.05 296.16 C 319.04 292.87 318.22 289.36 317.93 286.02 C 316.55 276.69 316.40 267.11 313.42 258.08 Z" />
</g>
<g id="#e2c6b5ff">
<path fill="#e2c6b5" opacity="1.00" d=" M 180.54 274.17 C 184.11 268.49 187.83 262.90 191.97 257.61 C 195.24 260.06 198.89 262.33 201.06 265.90 C 202.93 269.26 203.12 273.21 203.67 276.94 C 205.64 276.89 207.65 276.98 209.59 276.57 C 212.12 275.58 214.12 273.68 216.26 272.07 C 219.43 280.49 220.30 289.49 221.75 298.31 C 220.10 298.08 218.46 297.85 216.82 297.62 C 215.33 303.59 212.80 309.24 211.33 315.22 C 210.04 310.77 206.05 307.88 204.40 303.61 C 201.83 297.12 198.45 290.66 198.84 283.46 C 202.46 283.06 206.07 282.56 209.65 281.87 C 208.10 280.85 206.68 279.51 204.86 278.99 C 201.37 278.95 198.12 280.45 194.90 281.61 C 189.95 279.44 185.17 276.93 180.54 274.17 Z" />
</g>
<g id="#fbe191ff">
<path fill="#fbe191" opacity="1.00" d=" M 358.14 266.44 C 358.55 266.35 359.37 266.17 359.77 266.08 C 363.14 268.11 366.53 270.08 369.79 272.28 C 373.22 274.48 374.22 278.67 376.11 282.02 C 377.58 285.04 380.14 287.28 382.72 289.33 C 382.44 290.94 382.27 292.57 382.10 294.19 L 381.17 294.20 C 379.07 291.26 376.83 288.42 374.32 285.82 C 374.19 288.27 374.07 290.72 373.96 293.17 C 369.27 290.53 363.31 287.92 361.90 282.19 C 360.75 277.71 359.75 273.10 357.22 269.16 C 357.45 268.48 357.91 267.12 358.14 266.44 Z" />
</g>
<g id="#fad865ff">
<path fill="#fad865" opacity="1.00" d=" M 381.06 267.68 C 385.12 269.85 388.65 272.95 390.99 276.95 C 392.67 279.94 395.21 282.31 398.48 283.45 C 397.43 287.51 394.51 290.68 391.45 293.40 C 390.51 289.81 389.81 286.13 388.37 282.70 C 386.78 282.76 385.21 283.06 383.64 283.31 C 382.63 278.12 381.49 272.95 381.06 267.68 Z" />
</g>
<g id="#eb9f6bff">
<path fill="#eb9f6b" opacity="1.00" d=" M 394.96 269.96 C 396.99 271.37 399.02 272.78 401.06 274.20 C 400.30 275.87 399.56 277.55 398.93 279.28 C 397.13 276.40 395.69 273.29 394.96 269.96 Z" />
</g>
<g id="#fefefeff">
<path fill="#fefefe" opacity="1.00" d=" M 88.21 277.22 C 90.05 273.16 95.11 271.77 99.13 273.26 C 95.16 280.30 91.60 287.67 89.74 295.57 L 89.41 296.71 C 86.42 290.57 88.58 283.71 88.21 277.22 Z" />
<path fill="#fefefe" opacity="1.00" d=" M 284.69 302.45 C 288.06 301.81 291.10 303.36 293.94 304.97 C 291.36 312.42 291.72 320.30 292.67 327.99 C 292.52 328.57 292.24 329.72 292.10 330.30 C 289.96 327.87 287.95 325.23 286.76 322.20 C 285.03 315.77 284.03 309.12 284.69 302.45 Z" />
<path fill="#fefefe" opacity="1.00" d=" M 328.39 308.56 C 329.68 307.15 331.09 305.86 332.52 304.60 C 333.41 306.55 334.22 308.54 335.05 310.52 C 332.82 309.89 330.60 309.23 328.39 308.56 Z" />
<path fill="#fefefe" opacity="1.00" d=" M 253.47 434.15 C 255.24 429.69 257.58 424.37 262.74 423.13 C 259.66 431.59 258.70 440.67 259.83 449.59 C 259.58 449.93 259.07 450.61 258.82 450.95 C 256.01 445.76 253.99 440.04 253.47 434.15 Z" />
</g>
<g id="#c2c6d1ff">
<path fill="#c2c6d1" opacity="1.00" d=" M 99.13 273.26 C 100.76 274.70 102.31 276.24 103.75 277.87 C 100.32 284.62 95.24 290.45 89.74 295.57 C 91.60 287.67 95.16 280.30 99.13 273.26 Z" />
</g>
<g id="#e29288ff">
<path fill="#e29288" opacity="1.00" d=" M 286.17 300.65 C 282.99 292.64 287.19 284.40 289.44 276.73 C 290.90 280.48 292.61 284.13 293.91 287.95 C 295.66 292.96 294.87 298.35 294.43 303.52 C 291.81 302.21 288.97 301.46 286.17 300.65 Z" />
</g>
<g id="#bf5f50ff">
<path fill="#bf5f50" opacity="1.00" d=" M 75.33 283.00 C 78.86 282.18 82.43 281.51 86.02 280.99 C 85.98 283.32 85.98 285.65 85.96 287.99 C 84.38 288.54 82.81 289.11 81.24 289.69 C 79.37 287.37 77.44 285.11 75.33 283.00 Z" />
</g>
<g id="#cda055ff">
<path fill="#cda055" opacity="1.00" d=" M 383.64 283.31 C 385.21 283.06 386.78 282.76 388.37 282.70 C 389.81 286.13 390.51 289.81 391.45 293.40 C 391.08 293.74 390.33 294.41 389.95 294.75 C 386.27 294.99 382.56 294.85 378.93 294.23 C 379.49 294.22 380.61 294.21 381.17 294.20 L 382.10 294.19 C 382.96 294.16 384.69 294.10 385.55 294.07 C 385.06 290.79 384.45 287.52 383.80 284.26 L 383.64 283.31 Z" />
</g>
<g id="#cfbc8fff">
<path fill="#cfbc8f" opacity="1.00" d=" M 383.57 285.36 L 383.80 284.26 C 384.45 287.52 385.06 290.79 385.55 294.07 C 384.69 294.10 382.96 294.16 382.10 294.19 C 382.27 292.57 382.44 290.94 382.72 289.33 C 383.00 288.01 383.28 286.68 383.57 285.36 Z" />
</g>
<g id="#c4c8d3ff">
<path fill="#c4c8d3" opacity="1.00" d=" M 72.24 303.10 C 73.90 297.09 72.95 290.70 74.77 284.72 C 76.82 286.75 79.62 288.83 79.53 292.05 C 79.23 299.71 74.07 306.61 75.57 314.43 C 73.68 313.03 71.84 311.57 69.98 310.14 L 70.16 309.63 C 70.91 307.47 71.66 305.31 72.24 303.10 Z" />
</g>
<g id="#fcde65ff">
<path fill="#fcde65" opacity="1.00" d=" M 374.32 285.82 C 376.83 288.42 379.07 291.26 381.17 294.20 C 380.61 294.21 379.49 294.22 378.93 294.23 C 377.25 293.98 375.59 293.62 373.96 293.17 C 374.07 290.72 374.19 288.27 374.32 285.82 Z" />
</g>
<g id="#fefeffff">
<path fill="#fefeff" opacity="1.00" d=" M 58.16 304.94 C 56.60 300.55 57.91 294.91 62.54 293.01 C 63.16 299.50 65.12 305.90 69.06 311.17 C 65.06 310.27 59.67 309.41 58.16 304.94 Z" />
</g>
<g id="#c4a897ff">
<path fill="#c4a897" opacity="1.00" d=" M 216.82 297.62 C 218.46 297.85 220.10 298.08 221.75 298.31 C 222.25 301.32 222.96 304.30 223.80 307.23 C 223.94 306.65 224.21 305.48 224.35 304.90 C 225.70 310.49 225.60 316.31 225.54 322.03 C 224.85 327.42 222.85 332.56 222.08 337.94 C 220.19 349.99 221.29 362.23 222.38 374.31 C 207.17 373.23 191.50 369.33 179.35 359.69 C 175.77 356.93 171.76 354.68 168.73 351.28 C 165.51 347.67 162.24 344.09 159.31 340.24 C 159.62 339.48 160.24 337.94 160.55 337.18 C 168.39 337.73 176.55 338.96 184.13 336.17 C 192.76 333.10 202.17 330.59 208.61 323.64 C 210.23 322.18 210.62 319.97 210.95 317.93 C 211.04 317.25 211.24 315.89 211.33 315.22 C 212.80 309.24 215.33 303.59 216.82 297.62 Z" />
</g>
<g id="#d36d5dff">
<path fill="#d36d5d" opacity="1.00" d=" M 248.38 300.49 C 254.15 299.26 261.90 298.74 265.58 304.39 C 272.79 314.56 277.80 326.51 279.00 338.99 C 279.94 347.92 282.07 356.87 280.77 365.88 C 279.79 373.77 276.29 382.01 269.31 386.34 C 264.84 388.62 259.81 389.50 255.24 391.55 C 254.43 390.68 253.62 389.82 252.80 388.97 C 257.91 387.29 263.36 386.52 268.19 384.10 C 271.95 381.77 272.78 377.01 274.42 373.23 C 276.54 367.72 278.78 361.99 278.14 355.96 C 277.62 349.06 275.58 342.39 274.31 335.61 C 272.44 326.00 268.50 316.89 263.47 308.54 C 261.28 305.00 257.80 301.07 253.19 301.71 C 244.05 303.40 237.62 310.67 229.65 314.81 L 230.00 314.03 C 235.65 308.99 240.95 302.85 248.38 300.49 Z" />
</g>
<g id="#dfc4b4ff">
<path fill="#dfc4b4" opacity="1.00" d=" M 146.97 301.71 C 150.62 302.35 154.93 302.41 157.54 305.46 C 162.50 310.69 164.23 318.29 162.12 325.18 C 158.13 325.00 154.15 324.70 150.19 324.15 C 149.44 322.29 148.49 320.46 148.23 318.45 C 148.10 312.85 147.53 307.28 146.97 301.71 Z" />
</g>
<g id="#c1c6d0ff">
<path fill="#c1c6d0" opacity="1.00" d=" M 312.83 304.60 C 315.46 304.07 318.15 304.06 320.83 304.12 C 323.96 309.18 323.83 315.64 320.95 320.77 C 319.02 323.99 317.80 327.61 315.70 330.71 C 312.67 333.60 308.67 335.24 304.80 336.66 C 306.77 330.89 307.93 324.83 307.22 318.72 C 307.64 321.75 307.81 325.07 309.96 327.48 C 314.87 320.66 315.18 311.79 319.50 304.64 C 317.27 304.59 315.05 304.53 312.83 304.60 Z" />
</g>
<g id="#c5c9d3ff">
<path fill="#c5c9d3" opacity="1.00" d=" M 293.94 304.97 C 295.15 305.91 296.34 306.87 297.53 307.85 C 295.72 314.52 294.55 321.35 292.67 327.99 C 291.72 320.30 291.36 312.42 293.94 304.97 Z" />
</g>
<g id="#e07d6dff">
<path fill="#e07d6d" opacity="1.00" d=" M 119.65 333.65 C 127.28 324.47 137.15 317.16 143.31 306.78 C 144.37 316.34 148.81 324.97 153.29 333.32 C 151.02 335.03 148.85 337.00 147.59 339.60 C 143.96 346.81 140.75 354.34 135.66 360.68 C 131.13 366.34 123.86 368.71 119.00 374.00 C 117.18 375.97 115.80 378.29 114.53 380.63 C 112.61 378.06 110.74 375.47 108.77 372.95 C 109.25 374.37 109.74 375.79 110.31 377.18 C 108.79 377.26 107.26 377.35 105.74 377.43 C 104.82 371.43 101.35 365.79 102.47 359.56 C 105.22 362.88 107.52 368.33 112.64 367.96 C 116.05 362.82 112.66 356.58 111.05 351.38 C 109.25 351.84 107.45 352.29 105.66 352.74 C 109.56 345.86 114.60 339.70 119.65 333.65 Z" />
</g>
<g id="#bec3d0ff">
<path fill="#bec3d0" opacity="1.00" d=" M 77.15 309.50 C 78.46 308.62 79.93 310.92 78.83 311.90 C 77.45 312.84 76.10 310.51 77.15 309.50 Z" />
</g>
<g id="#c1c5d0ff">
<path fill="#c1c5d0" opacity="1.00" d=" M 324.57 314.85 C 325.10 312.37 326.76 310.41 328.39 308.56 C 330.60 309.23 332.82 309.89 335.05 310.52 C 336.13 312.86 337.22 315.42 336.07 317.97 C 334.73 319.23 333.38 320.47 332.03 321.73 C 330.39 323.19 328.89 324.79 327.27 326.27 C 325.21 328.59 321.86 327.49 319.18 327.54 C 321.00 323.32 323.56 319.39 324.57 314.85 Z" />
<path fill="#c1c5d0" opacity="1.00" d=" M 106.42 413.31 C 107.25 414.79 108.08 416.27 108.90 417.76 C 106.66 420.51 104.87 423.71 102.17 426.04 C 98.32 427.08 94.39 427.88 90.55 428.98 C 93.26 421.58 100.70 418.02 106.42 413.31 Z" />
<path fill="#c1c5d0" opacity="1.00" d=" M 103.77 433.34 C 106.80 426.56 112.27 421.37 118.18 417.06 C 120.13 419.48 121.78 422.12 123.15 424.90 C 119.80 426.89 116.07 428.03 112.51 429.56 C 109.58 430.80 106.85 432.48 103.77 433.34 Z" />
<path fill="#c1c5d0" opacity="1.00" d=" M 239.11 420.37 C 241.46 424.48 244.20 428.36 246.67 432.41 C 240.31 434.26 233.35 435.38 228.35 440.10 C 228.45 438.37 228.59 436.65 228.79 434.93 C 228.86 435.83 229.02 437.63 229.09 438.53 C 233.30 433.02 237.24 427.12 239.11 420.37 Z" />
<path fill="#c1c5d0" opacity="1.00" d=" M 283.43 435.25 C 280.85 430.56 283.82 425.62 287.07 422.21 C 292.06 424.15 296.50 429.02 295.88 434.66 C 294.87 438.40 293.37 441.99 291.92 445.58 C 290.49 440.09 289.65 434.47 289.25 428.81 C 287.34 430.98 285.40 433.13 283.43 435.25 Z" />
<path fill="#c1c5d0" opacity="1.00" d=" M 262.74 423.13 C 266.96 425.94 269.05 430.68 271.50 434.91 C 270.93 436.01 270.36 437.12 269.79 438.23 C 269.53 438.36 268.99 438.62 268.73 438.74 C 267.77 439.14 267.12 439.84 266.79 440.86 C 266.52 441.13 265.96 441.67 265.69 441.94 C 264.45 442.89 263.48 444.13 262.81 445.55 C 262.65 445.82 262.32 446.36 262.16 446.63 C 261.38 447.61 260.60 448.60 259.83 449.59 C 258.70 440.67 259.66 431.59 262.74 423.13 Z" />
</g>
<g id="#d3baa9ff">
<path fill="#d3baa9" opacity="1.00" d=" M 196.60 327.59 C 201.96 325.31 206.32 321.37 210.95 317.93 C 210.62 319.97 210.23 322.18 208.61 323.64 C 202.17 330.59 192.76 333.10 184.13 336.17 C 176.55 338.96 168.39 337.73 160.55 337.18 C 160.24 337.94 159.62 339.48 159.31 340.24 C 158.12 338.24 156.92 336.24 155.70 334.27 C 162.70 332.71 169.84 334.68 176.88 333.69 C 183.75 332.82 190.26 330.28 196.60 327.59 Z" />
</g>
<g id="#e3cab8ff">
<path fill="#e3cab8" opacity="1.00" d=" M 376.95 333.95 C 380.37 329.60 381.99 324.23 384.91 319.58 C 384.58 321.78 384.13 323.97 383.55 326.12 C 383.36 326.52 382.97 327.30 382.78 327.70 C 378.30 336.48 373.12 344.90 366.90 352.56 C 367.41 349.95 367.67 347.30 368.16 344.68 C 371.02 341.05 374.01 337.52 376.95 333.95 Z" />
</g>
<g id="#d46c5cff">
<path fill="#d46c5c" opacity="1.00" d=" M 147.59 339.60 C 148.85 337.00 151.02 335.03 153.29 333.32 C 153.96 334.51 154.66 335.68 155.37 336.84 C 151.93 342.27 148.39 347.66 145.40 353.36 C 143.18 357.61 140.64 361.79 137.02 365.01 C 130.22 371.14 122.47 376.06 115.05 381.38 L 114.53 380.63 C 115.80 378.29 117.18 375.97 119.00 374.00 C 123.86 368.71 131.13 366.34 135.66 360.68 C 140.75 354.34 143.96 346.81 147.59 339.60 Z" />
</g>
<g id="#b25a4eff">
<path fill="#b25a4e" opacity="1.00" d=" M 155.37 336.84 C 163.47 350.55 176.45 360.53 190.13 368.26 C 185.48 370.38 180.84 372.63 176.83 375.84 C 172.59 379.19 167.88 382.26 164.80 386.77 C 162.64 394.39 167.38 402.06 166.07 409.75 C 163.75 412.01 160.29 412.32 157.37 413.42 C 152.29 414.82 147.75 417.55 143.41 420.47 C 137.97 424.16 131.16 424.10 124.94 425.38 C 122.92 420.51 119.87 416.18 115.90 412.71 C 117.80 409.46 119.98 405.53 118.27 401.74 C 117.17 398.50 114.09 396.73 111.19 395.33 C 110.64 390.62 109.23 386.02 106.89 381.89 C 106.73 381.44 106.40 380.54 106.24 380.09 C 106.11 379.42 105.86 378.10 105.74 377.43 C 107.26 377.35 108.79 377.26 110.31 377.18 C 111.64 379.51 113.46 381.49 115.30 383.43 C 115.23 382.92 115.11 381.89 115.05 381.38 C 122.47 376.06 130.22 371.14 137.02 365.01 C 140.64 361.79 143.18 357.61 145.40 353.36 C 148.39 347.66 151.93 342.27 155.37 336.84 M 127.22 379.43 C 126.13 379.35 124.70 380.66 125.42 381.76 C 126.72 382.90 129.16 380.04 127.22 379.43 Z" />
</g>
<g id="#b19e90ff">
<path fill="#b19e90" opacity="1.00" d=" M 343.78 363.12 C 353.52 359.56 361.04 351.93 368.16 344.68 C 367.67 347.30 367.41 349.95 366.90 352.56 C 360.40 361.58 351.01 367.91 341.62 373.59 C 344.02 369.83 347.38 366.87 350.51 363.74 C 348.27 363.49 346.03 363.22 343.78 363.12 Z" />
</g>
<g id="#a69288ff">
<path fill="#a69288" opacity="1.00" d=" M 295.16 366.69 C 311.21 371.53 328.36 368.88 343.78 363.12 C 346.03 363.22 348.27 363.49 350.51 363.74 C 347.38 366.87 344.02 369.83 341.62 373.59 C 327.73 381.59 311.36 384.31 295.50 383.64 C 295.05 378.00 294.54 372.33 295.16 366.69 Z" />
</g>
<g id="#e49d94ff">
<path fill="#e49d94" opacity="1.00" d=" M 244.17 364.73 C 249.67 365.65 252.97 370.96 253.62 376.14 C 253.71 378.04 253.02 380.65 250.80 380.93 C 247.77 381.51 244.18 379.79 243.41 376.65 C 242.16 372.72 243.29 368.61 244.17 364.73 Z" />
</g>
<g id="#331916ff">
<path fill="#331916" opacity="1.00" d=" M 127.22 379.43 C 129.16 380.04 126.72 382.90 125.42 381.76 C 124.70 380.66 126.13 379.35 127.22 379.43 Z" />
</g>
<g id="#df7a6aff">
<path fill="#df7a6a" opacity="1.00" d=" M 111.19 395.33 C 114.09 396.73 117.17 398.50 118.27 401.74 C 119.98 405.53 117.80 409.46 115.90 412.71 C 113.70 413.53 111.64 414.67 109.65 415.91 C 108.08 413.25 106.38 410.67 104.44 408.27 C 108.85 405.40 110.73 400.38 111.19 395.33 Z" />
</g>
<g id="#e27f6eff">
<path fill="#e27f6e" opacity="1.00" d=" M 242.41 409.12 L 242.83 408.38 C 248.87 413.00 252.80 419.60 256.24 426.25 C 254.24 428.89 252.56 431.75 250.94 434.64 C 244.60 430.50 244.06 421.19 236.86 418.04 C 238.40 415.76 239.90 413.46 241.26 411.07 C 241.55 410.58 242.12 409.61 242.41 409.12 Z" />
</g>
<g id="#fcfcfcff">
<path fill="#fcfcfc" opacity="1.00" d=" M 92.66 420.64 C 95.86 416.71 99.78 413.45 103.56 410.10 C 104.51 411.17 105.46 412.24 106.42 413.31 C 100.70 418.02 93.26 421.58 90.55 428.98 L 90.20 429.71 C 89.61 429.75 88.45 429.84 87.87 429.88 C 89.28 426.71 90.65 423.48 92.66 420.64 Z" />
</g>
<g id="#ededefff">
<path fill="#ededef" opacity="1.00" d=" M 89.91 414.93 C 93.41 413.57 96.79 411.91 100.37 410.75 C 97.13 414.47 93.17 417.49 89.94 421.23 C 87.04 421.40 84.17 421.83 81.30 422.24 C 83.70 419.35 86.22 416.18 89.91 414.93 Z" />
</g>
<g id="#fafafaff">
<path fill="#fafafa" opacity="1.00" d=" M 106.78 422.80 C 109.25 419.77 111.23 416.15 114.79 414.23 C 115.92 415.17 117.04 416.13 118.18 417.06 C 112.27 421.37 106.80 426.56 103.77 433.34 C 102.84 434.39 101.41 434.78 100.24 435.51 C 100.68 430.56 103.90 426.61 106.78 422.80 Z" />
</g>
<g id="#fbfafbff">
<path fill="#fbfafb" opacity="1.00" d=" M 228.79 434.93 C 230.38 429.20 232.69 422.13 239.11 420.37 C 237.24 427.12 233.30 433.02 229.09 438.53 C 229.02 437.63 228.86 435.83 228.79 434.93 Z" />
</g>
<g id="#fcfcfbff">
<path fill="#fcfcfb" opacity="1.00" d=" M 283.43 435.25 C 285.40 433.13 287.34 430.98 289.25 428.81 C 289.65 434.47 290.49 440.09 291.92 445.58 L 292.15 446.64 C 288.13 443.83 286.24 439.10 283.43 435.25 Z" />
</g>
<g id="#070707bb">
<path fill="#070707" opacity="0.73" d=" M 266.79 440.86 C 267.12 439.84 267.77 439.14 268.73 438.74 C 269.18 440.46 268.54 441.16 266.79 440.86 Z" />
</g>
<g id="#1c1d1edd">
<path fill="#1c1d1e" opacity="0.87" d=" M 262.81 445.55 C 263.48 444.13 264.45 442.89 265.69 441.94 C 266.85 443.44 264.57 446.72 262.81 445.55 Z" />
</g>
</svg>
